<?xml version="1.0" encoding="UTF-8" standalone="no"?>
<!-- Created with Inkscape (http://www.inkscape.org/) -->

<svg
   xmlns:dc="http://purl.org/dc/elements/1.1/"
   xmlns:cc="http://creativecommons.org/ns#"
   xmlns:rdf="http://www.w3.org/1999/02/22-rdf-syntax-ns#"
   xmlns:svg="http://www.w3.org/2000/svg"
   xmlns="http://www.w3.org/2000/svg"
   xmlns:sodipodi="http://sodipodi.sourceforge.net/DTD/sodipodi-0.dtd"
   xmlns:inkscape="http://www.inkscape.org/namespaces/inkscape"
   width="210mm"
   height="297mm"
   viewBox="0 0 744.09448819 1052.3622047"
   id="svg2"
   version="1.1"
   inkscape:version="0.91 r13725"
   sodipodi:docname="FE3 Rev 11 COREi64 Label 2017-01-05.svg"
   inkscape:export-filename="C:\Users\heather\Desktop\Projects\Final Expansion 3\Label\FE3 Rev 11 COREi64 2016-12-20.png"
   inkscape:export-xdpi="600"
   inkscape:export-ydpi="600">
  <defs
     id="defs4" />
  <sodipodi:namedview
     id="base"
     pagecolor="#ffffff"
     bordercolor="#666666"
     borderopacity="1.0"
     inkscape:pageopacity="0.0"
     inkscape:pageshadow="2"
     inkscape:zoom="2.6783452"
     inkscape:cx="281.61419"
     inkscape:cy="676.1874"
     inkscape:document-units="px"
     inkscape:current-layer="layer2"
     showgrid="false"
     inkscape:window-width="1920"
     inkscape:window-height="1137"
     inkscape:window-x="-8"
     inkscape:window-y="-8"
     inkscape:window-maximized="1"
     inkscape:object-paths="true"
     inkscape:snap-intersection-paths="true"
     inkscape:snap-smooth-nodes="true"
     inkscape:object-nodes="true"
     inkscape:snap-midpoints="true"
     inkscape:snap-others="true"
     inkscape:snap-object-midpoints="false"
     inkscape:snap-bbox="false"
     inkscape:snap-global="true" />
  <metadata
     id="metadata7">
    <rdf:RDF>
      <cc:Work
         rdf:about="">
        <dc:format>image/svg+xml</dc:format>
        <dc:type
           rdf:resource="http://purl.org/dc/dcmitype/StillImage" />
        <dc:title />
      </cc:Work>
    </rdf:RDF>
  </metadata>
  <g
     style="display:inline"
     inkscape:label="Label"
     id="g3439"
     inkscape:groupmode="layer">
    <path
       style="color:#000000;display:inline;overflow:visible;visibility:visible;opacity:1;fill:#f1efd6;fill-opacity:1;fill-rule:nonzero;stroke:none;stroke-width:0.1;stroke-linecap:square;stroke-linejoin:miter;stroke-miterlimit:4;stroke-dasharray:none;stroke-dashoffset:0;stroke-opacity:1;marker:none;enable-background:accumulate"
       d="m 166.87109,262.78906 c -0.554,0 -1,0.446 -1,1 l 0,30.82514 1.20535,0 c 3.88658,-2.1e-4 7.03732,3.15007 7.03711,7.03665 2.1e-4,3.88658 -3.15053,7.03756 -7.03711,7.03735 l -1.20535,0 0,5.396 1.20535,0 c 3.88658,-2.1e-4 7.03732,3.15077 7.03711,7.03735 2.1e-4,3.88658 -3.15053,7.03686 -7.03711,7.03665 l -1.20535,0 0,160.40235 c 0,0.554 0.446,1 1,1 l 449.77149,0 c 0.554,0 1,-0.446 1,-1 l 0,-224.77149 c 0,-0.554 -0.446,-1 -1,-1 l -69.70564,9.2e-4 0,92.47308 c 0,2.493 -2.12221,4.50001 -4.75781,4.5 l -148.30139,-4.2e-4 c -2.6356,-10e-6 -4.75586,-2.00702 -4.75586,-4.5 l 0,-92.47308 -37.19018,0 0,92.47308 c 0,2.493 -2.007,4.50001 -4.5,4.5 l -147.39784,-5e-4 c -2.493,-10e-6 -4.5,-2.007 -4.5,-4.5 l 0,-92.47308 z"
       id="path3442"
       inkscape:connector-curvature="0"
       sodipodi:nodetypes="ssccccccccccsssssscssssccsssscs" />
    <g
       style="display:inline"
       id="g4233"
       transform="translate(-8.1e-4,0.71122)">
      <path
         style="color:#000000;display:inline;overflow:visible;visibility:visible;opacity:1;fill:#53241c;fill-opacity:1;fill-rule:nonzero;stroke:none;stroke-width:6.00199986;stroke-linecap:square;stroke-linejoin:round;stroke-miterlimit:0;stroke-dasharray:none;stroke-dashoffset:0;stroke-opacity:1;marker:none;enable-background:accumulate"
         d="m 402.9122,436.97917 0,8.53892 -202.20711,0 23.16057,24.74079 179.04654,0 0,8.54049 19.26638,-20.91089 z"
         id="path3547"
         inkscape:connector-curvature="0"
         sodipodi:nodetypes="cccccccc" />
      <path
         sodipodi:nodetypes="cccccccc"
         inkscape:connector-curvature="0"
         id="path3549"
         d="m 378.12222,410.5968 0,8.53893 -202.20659,0 23.15976,24.74078 179.04683,0 0,8.54051 19.26638,-20.9109 z"
         style="color:#000000;display:inline;overflow:visible;visibility:visible;opacity:1;fill:#53241c;fill-opacity:1;fill-rule:nonzero;stroke:none;stroke-width:6.00199986;stroke-linecap:square;stroke-linejoin:round;stroke-miterlimit:0;stroke-dasharray:none;stroke-dashoffset:0;stroke-opacity:1;marker:none;enable-background:accumulate" />
      <path
         inkscape:connector-curvature="0"
         style="color:#000000;display:inline;overflow:visible;visibility:visible;opacity:1;fill:#f1efd6;fill-opacity:1;fill-rule:nonzero;stroke:none;stroke-width:6.00199986;stroke-linecap:square;stroke-linejoin:round;stroke-miterlimit:0;stroke-dasharray:none;stroke-dashoffset:0;stroke-opacity:1;marker:none;enable-background:accumulate"
         d="m 365.21264,424.6092 0,8.53909 -194.08787,0 0,8.67232 15.04131,16.06884 179.04656,0 0,8.53909 19.26644,-20.90967 z"
         id="path3551"
         sodipodi:nodetypes="ccccccccc" />
    </g>
    <path
       sodipodi:nodetypes="cccccccccccccc"
       inkscape:connector-curvature="0"
       id="path3555"
       d="m 177.02547,364.31613 c -2.78147,0 -5.90047,3.11882 -5.90047,5.90027 l 0,108.91531 c 0,2.78128 3.11919,5.89948 5.90047,5.89948 l 429.46284,0 c 2.78123,0 5.9003,-3.11825 5.9003,-5.89948 l 0,-108.91531 c 0,-2.78149 -3.11881,-5.90057 -5.9003,-5.90057 z m -1.11015,4.79013 431.68319,-3.3e-4 0,111.13555 -431.68341,0 z"
       style="color:#000000;font-style:normal;font-variant:normal;font-weight:normal;font-stretch:normal;font-size:medium;line-height:normal;font-family:sans-serif;text-indent:0;text-align:start;text-decoration:none;text-decoration-line:none;text-decoration-style:solid;text-decoration-color:#000000;letter-spacing:normal;word-spacing:normal;text-transform:none;direction:ltr;block-progression:tb;writing-mode:lr-tb;baseline-shift:baseline;text-anchor:start;white-space:normal;clip-rule:nonzero;display:inline;overflow:visible;visibility:visible;opacity:1;isolation:auto;mix-blend-mode:normal;color-interpolation:sRGB;color-interpolation-filters:linearRGB;solid-color:#000000;solid-opacity:1;fill:#53241c;fill-opacity:1;fill-rule:nonzero;stroke:none;stroke-width:6.00199986;stroke-linecap:square;stroke-linejoin:round;stroke-miterlimit:0;stroke-dasharray:none;stroke-dashoffset:0;stroke-opacity:1;marker:none;color-rendering:auto;image-rendering:auto;shape-rendering:auto;text-rendering:auto;enable-background:accumulate" />
    <path
       style="color:#000000;display:inline;overflow:visible;visibility:visible;opacity:1;fill:#d0ab65;fill-opacity:1;fill-rule:nonzero;stroke:none;stroke-width:6.00199986;stroke-linecap:square;stroke-linejoin:round;stroke-miterlimit:0;stroke-dasharray:none;stroke-dashoffset:0;stroke-opacity:1;marker:none;enable-background:accumulate"
       d="m 175.91563,369.10712 336.40717,0 -16.14159,17.51808 -320.26563,3.1e-4 z"
       id="rect4190"
       inkscape:connector-curvature="0"
       sodipodi:nodetypes="ccccc" />
    <path
       sodipodi:nodetypes="ccccc"
       inkscape:connector-curvature="0"
       id="path4197"
       d="m 607.59882,480.24235 -200.145,3.7e-4 18.66801,-20.16692 181.47703,0 z"
       style="color:#000000;display:inline;overflow:visible;visibility:visible;opacity:1;fill:#d0ab65;fill-opacity:1;fill-rule:nonzero;stroke:none;stroke-width:6.00199986;stroke-linecap:square;stroke-linejoin:round;stroke-miterlimit:0;stroke-dasharray:none;stroke-dashoffset:0;stroke-opacity:1;marker:none;enable-background:accumulate" />
    <path
       style="color:#000000;font-style:normal;font-variant:normal;font-weight:normal;font-stretch:normal;font-size:medium;line-height:normal;font-family:sans-serif;text-indent:0;text-align:start;text-decoration:none;text-decoration-line:none;text-decoration-style:solid;text-decoration-color:#000000;letter-spacing:normal;word-spacing:normal;text-transform:none;direction:ltr;block-progression:tb;writing-mode:lr-tb;baseline-shift:baseline;text-anchor:start;white-space:normal;clip-rule:nonzero;display:inline;overflow:visible;visibility:visible;opacity:1;isolation:auto;mix-blend-mode:normal;color-interpolation:sRGB;color-interpolation-filters:linearRGB;solid-color:#000000;solid-opacity:1;fill:#53241c;fill-opacity:1;fill-rule:nonzero;stroke:none;stroke-width:6.00199986;stroke-linecap:square;stroke-linejoin:round;stroke-miterlimit:0;stroke-dasharray:none;stroke-dashoffset:0;stroke-opacity:1;marker:none;color-rendering:auto;image-rendering:auto;shape-rendering:auto;text-rendering:auto;enable-background:accumulate"
       d="m 557.70591,315.8809 c -2.78147,0 -5.90047,3.11882 -5.90047,5.90027 l 0,30.6631 c 0,2.78128 3.11919,5.89948 5.90047,5.89948 l 49.52135,0 c 2.78123,0 5.9003,-3.11825 5.9003,-5.89948 l 0,-30.6631 c 0,-2.78149 -3.11881,-5.90057 -5.9003,-5.90057 z m -1.11015,4.79013 51.7417,-3.3e-4 0,32.88334 -51.74192,0 z"
       id="path4229"
       inkscape:connector-curvature="0"
       sodipodi:nodetypes="cccccccccccccc" />
    <path
       sodipodi:nodetypes="cccccccccccccc"
       inkscape:connector-curvature="0"
       id="path4231"
       d="m 557.70591,268.10402 c -2.78147,0 -5.90047,3.11882 -5.90047,5.90027 l 0,30.6631 c 0,2.78128 3.11919,5.89948 5.90047,5.89948 l 49.52135,0 c 2.78123,0 5.9003,-3.11825 5.9003,-5.89948 l 0,-30.6631 c 0,-2.78149 -3.11881,-5.90057 -5.9003,-5.90057 z m -1.11015,4.79013 51.7417,-3.3e-4 0,32.88334 -51.74192,0 z"
       style="color:#000000;font-style:normal;font-variant:normal;font-weight:normal;font-stretch:normal;font-size:medium;line-height:normal;font-family:sans-serif;text-indent:0;text-align:start;text-decoration:none;text-decoration-line:none;text-decoration-style:solid;text-decoration-color:#000000;letter-spacing:normal;word-spacing:normal;text-transform:none;direction:ltr;block-progression:tb;writing-mode:lr-tb;baseline-shift:baseline;text-anchor:start;white-space:normal;clip-rule:nonzero;display:inline;overflow:visible;visibility:visible;opacity:1;isolation:auto;mix-blend-mode:normal;color-interpolation:sRGB;color-interpolation-filters:linearRGB;solid-color:#000000;solid-opacity:1;fill:#53241c;fill-opacity:1;fill-rule:nonzero;stroke:none;stroke-width:6.00199986;stroke-linecap:square;stroke-linejoin:round;stroke-miterlimit:0;stroke-dasharray:none;stroke-dashoffset:0;stroke-opacity:1;marker:none;color-rendering:auto;image-rendering:auto;shape-rendering:auto;text-rendering:auto;enable-background:accumulate" />
    <path
       sodipodi:nodetypes="cccccccccccccc"
       inkscape:connector-curvature="0"
       id="path5222"
       d="m 362.10806,268.15432 c -2.78147,0 -5.90047,3.11882 -5.90047,5.90027 l 0,78.43998 c 0,2.78128 3.11919,5.89948 5.90047,5.89948 l 16.83765,0 c 2.78123,0 5.9003,-3.11825 5.9003,-5.89948 l 0,-78.43998 c 0,-2.78149 -3.11881,-5.90057 -5.9003,-5.90057 z m -1.11015,4.79013 19.058,-3.3e-4 0,80.66022 -19.05822,0 z"
       style="color:#000000;font-style:normal;font-variant:normal;font-weight:normal;font-stretch:normal;font-size:medium;line-height:normal;font-family:sans-serif;text-indent:0;text-align:start;text-decoration:none;text-decoration-line:none;text-decoration-style:solid;text-decoration-color:#000000;letter-spacing:normal;word-spacing:normal;text-transform:none;direction:ltr;block-progression:tb;writing-mode:lr-tb;baseline-shift:baseline;text-anchor:start;white-space:normal;clip-rule:nonzero;display:inline;overflow:visible;visibility:visible;opacity:1;isolation:auto;mix-blend-mode:normal;color-interpolation:sRGB;color-interpolation-filters:linearRGB;solid-color:#000000;solid-opacity:1;fill:#53241c;fill-opacity:1;fill-rule:nonzero;stroke:none;stroke-width:6.00199986;stroke-linecap:square;stroke-linejoin:round;stroke-miterlimit:0;stroke-dasharray:none;stroke-dashoffset:0;stroke-opacity:1;marker:none;color-rendering:auto;image-rendering:auto;shape-rendering:auto;text-rendering:auto;enable-background:accumulate" />
  </g>
  <g
     inkscape:groupmode="layer"
     id="layer5"
     inkscape:label="Text"
     style="display:inline">
    <flowRoot
       xml:space="preserve"
       id="flowRoot4644"
       style="font-style:normal;font-variant:normal;font-weight:100;font-stretch:normal;font-size:50px;line-height:125%;font-family:Monotone;-inkscape-font-specification:'Monotone Thin';letter-spacing:0px;word-spacing:0px;display:inline;fill:#000000;fill-opacity:1;stroke:none;stroke-width:1px;stroke-linecap:butt;stroke-linejoin:miter;stroke-opacity:1"
       transform="matrix(0.32831904,0,0,0.6416512,235.46705,306.46306)"><flowRegion
         id="flowRegion4646"><rect
           id="rect4648"
           width="272.16711"
           height="72.384865"
           x="312.70264"
           y="84.335251"
           style="font-style:normal;font-variant:normal;font-weight:100;font-stretch:normal;font-size:50px;font-family:Monotone;-inkscape-font-specification:'Monotone Thin'" /></flowRegion><flowPara
         id="flowPara4650" /></flowRoot>    <text
       xml:space="preserve"
       style="font-style:normal;font-variant:normal;font-weight:100;font-stretch:normal;font-size:19.53339195px;line-height:125%;font-family:Eurostile-Black-DTC;-inkscape-font-specification:'Eurostile-Black-DTC Thin';letter-spacing:-0.75999999px;word-spacing:-0.47px;display:inline;opacity:1;fill:#53241c;fill-opacity:1;stroke:none;stroke-width:1px;stroke-linecap:butt;stroke-linejoin:miter;stroke-opacity:1"
       x="147.89128"
       y="463.26038"
       id="text3387"
       sodipodi:linespacing="125%"
       transform="scale(1.2088019,0.82726541)"><tspan
         sodipodi:role="line"
         id="tspan3389"
         x="147.89128"
         y="463.26038">512 kB RAM + 512 kB Flash</tspan></text>
    <g
       style="display:inline"
       id="g5019"
       transform="matrix(0.79419002,0,0,0.79419002,192.28565,112.02977)">
      <text
         transform="matrix(0.91981937,-0.39234211,0.39234211,0.91981937,0,0)"
         sodipodi:linespacing="125%"
         id="text4243"
         y="582.61115"
         x="256.22217"
         style="font-style:normal;font-variant:normal;font-weight:normal;font-stretch:normal;font-size:143.75px;line-height:125%;font-family:Calibri;-inkscape-font-specification:Calibri;letter-spacing:0px;word-spacing:0px;display:inline;opacity:1;fill:#d0ab65;fill-opacity:1;stroke:none;stroke-width:1px;stroke-linecap:butt;stroke-linejoin:miter;stroke-opacity:1"
         xml:space="preserve"><tspan
           style="font-style:normal;font-variant:normal;font-weight:100;font-stretch:normal;font-size:143.75px;font-family:BaccaratUpright;-inkscape-font-specification:'BaccaratUpright Thin';fill:#d0ab65;fill-opacity:1"
           y="582.61115"
           x="256.22217"
           id="tspan4245"
           sodipodi:role="line">3</tspan></text>
      <text
         transform="matrix(0.98758789,0,-0.14762509,1.0125681,0,0)"
         sodipodi:linespacing="125%"
         id="text4652"
         y="397.69293"
         x="329.05582"
         style="font-style:normal;font-variant:normal;font-weight:100;font-stretch:normal;font-size:32.83750153px;line-height:125%;font-family:BaccaratUpright;-inkscape-font-specification:'BaccaratUpright Thin';letter-spacing:-0.04px;word-spacing:-1.63px;display:inline;opacity:1;fill:#53241c;fill-opacity:1;stroke:none;stroke-width:1px;stroke-linecap:butt;stroke-linejoin:miter;stroke-opacity:1"
         xml:space="preserve"><tspan
           dy="0 0"
           dx="0 0 0 0 1.0115129"
           y="397.69293"
           x="329.05582"
           id="tspan4654"
           sodipodi:role="line">FINAL EXPANSION</tspan></text>
    </g>
    <g
       style="display:inline"
       transform="matrix(0.13199692,-0.03536847,0.03536847,0.13199692,134.39951,268.68936)"
       id="g4146">
      <path
         inkscape:connector-curvature="0"
         id="path47793"
         d="m 387.57839,216.83073 2.31445,-2.17432 0,-42.56004 0,-42.56004 -11.23369,-11.26564 -11.23369,-11.26565 -67.95186,0 -67.95186,0 -2.31445,2.17431 -2.31445,2.17432 0,51.51123 0,51.51124 2.17431,2.31445 2.17432,2.31445 77.01123,0 77.01124,0 2.31445,-2.17431 z"
         style="fill:#53241c;fill-opacity:1" />
      <path
         inkscape:connector-curvature="0"
         id="path47791"
         d="m 235.89284,205.50504 0,-4.5 4.5,0 4.5,0 0,-12.5 0,-12.5 -4.5,0 -4.5,0 0,-4.5 0,-4.5 13,0 13,0 0,4.5 0,4.5 -4.5,0 -4.5,0 0,12.5 0,12.5 4.5,0 4.5,0 0,4.5 0,4.5 -13,0 -13,0 0,-4.5 z"
         style="fill:#f1efd6;fill-opacity:1" />
      <path
         inkscape:connector-curvature="0"
         id="path47789"
         d="m 278.89284,205.50504 0,-4.5 -4.5,0 -4.5,0 0,-12.5 0,-12.5 4.5,0 4.5,0 0,-4.5 0,-4.5 8.5,0 8.5,0 0,4.5 0,4.5 -8.5,0 -8.5,0 0,4 0,4 4,0 4,0 0,4.5 0,4.5 -4,0 -4,0 0,4 0,4 8.5,0 8.5,0 0,4.5 0,4.5 -8.5,0 -8.5,0 0,-4.5 z"
         style="fill:#f1efd6;fill-opacity:1" />
      <path
         inkscape:connector-curvature="0"
         id="path47787"
         d="m 312.89284,205.50504 0,-4.5 -4.5,0 -4.5,0 0,-12.5 0,-12.5 4.5,0 4.5,0 0,-4.5 0,-4.5 8.5,0 8.5,0 0,4.5 0,4.5 -8.5,0 -8.5,0 0,12.5 0,12.5 8.5,0 8.5,0 0,4.5 0,4.5 -8.5,0 -8.5,0 0,-4.5 z"
         style="fill:#f1efd6;fill-opacity:1" />
      <path
         inkscape:connector-curvature="0"
         id="path47785"
         d="m 346.89284,205.50504 0,-4.5 17,0 17,0 0,4.5 0,4.5 -17,0 -17,0 0,-4.5 z"
         style="fill:#d0ab65;fill-opacity:1" />
      <path
         inkscape:connector-curvature="0"
         id="path47783"
         d="m 346.89284,188.50504 0,-4.5 17,0 17,0 0,4.5 0,4.5 -17,0 -17,0 0,-4.5 z"
         style="fill:#d0ab65;fill-opacity:1" />
      <path
         inkscape:connector-curvature="0"
         id="path47781"
         d="m 346.89284,171.50504 0,-4.5 17,0 17,0 0,4.5 0,4.5 -17,0 -17,0 0,-4.5 z"
         style="fill:#d0ab65;fill-opacity:1" />
      <path
         inkscape:connector-curvature="0"
         id="path47779"
         d="m 235.89284,154.50504 0,-4.5 8.5,0 8.5,0 0,-4 0,-4 -8.5,0 -8.5,0 0,-8.5 0,-8.5 4.5,0 4.5,0 0,-4.5 0,-4.5 8.5,0 8.5,0 0,4.5 0,4.5 -8.5,0 -8.5,0 0,4 0,4 8.5,0 8.5,0 0,8.5 0,8.5 -4.5,0 -4.5,0 0,4.5 0,4.5 -8.5,0 -8.5,0 0,-4.5 z"
         style="fill:#f1efd6;fill-opacity:1" />
      <path
         inkscape:connector-curvature="0"
         id="path47777"
         d="m 269.89258,116.00586 0,21.5 0,21.5 8.5,0 8.5,0 0,-4.5 0,-4.5 -4,0 -4,0 0,-12.5 0,-12.5 4,0 4,0 0,-4.5 0,-4.5 -8.5,0 -8.5,0 z m 17,9 0,12.5 0,12.5 4.5,0 4.5,0 0,-12.5 0,-12.5 -4.5,0 -4.5,0 z"
         style="fill:#f1efd6;fill-opacity:1" />
      <path
         inkscape:connector-curvature="0"
         id="path47773"
         d="m 303.89284,146.00504 0,-13 8.5,0 8.5,0 0,-4 0,-4 -8.5,0 -8.5,0 0,-4.5 0,-4.5 8.5,0 8.5,0 0,4 0,4 4.5,0 4.5,0 0,9 0,9 -8.5,0 -8.5,0 0,4 0,4 8.5,0 8.5,0 0,4.5 0,4.5 -13,0 -13,0 0,-13 z"
         style="fill:#f1efd6;fill-opacity:1" />
      <path
         inkscape:connector-curvature="0"
         id="path47771"
         d="m 346.89284,154.50504 0,-4.5 17,0 17,0 0,4.5 0,4.5 -17,0 -17,0 0,-4.5 z"
         style="fill:#d0ab65;fill-opacity:1" />
      <path
         inkscape:connector-curvature="0"
         id="path47769"
         d="m 346.89284,137.50504 0,-4.5 17,0 17,0 0,4.5 0,4.5 -17,0 -17,0 0,-4.5 z"
         style="fill:#d0ab65;fill-opacity:1" />
      <path
         inkscape:connector-curvature="0"
         id="path47765"
         d="m 337.89284,120.50504 0,-4.5 13,0 13,0 0,4.5 0,4.5 -13,0 -13,0 0,-4.5 z"
         style="fill:#d0ab65;fill-opacity:1" />
    </g>
    <text
       xml:space="preserve"
       style="font-style:normal;font-variant:normal;font-weight:normal;font-stretch:normal;font-size:7.5px;line-height:125%;font-family:Calibri;-inkscape-font-specification:Calibri;letter-spacing:0px;word-spacing:0px;display:inline;fill:#53241c;fill-opacity:1;stroke:none;stroke-width:1px;stroke-linecap:butt;stroke-linejoin:miter;stroke-opacity:1"
       x="174.67809"
       y="304.60037"
       id="text5194"
       sodipodi:linespacing="125%"><tspan
         sodipodi:role="line"
         id="tspan5196"
         x="174.67809"
         y="304.60037"
         style="font-style:normal;font-variant:normal;font-weight:100;font-stretch:normal;font-size:8.75px;line-height:125%;font-family:Eurostile-Black-DTC;-inkscape-font-specification:'Eurostile-Black-DTC, Thin';text-align:start;writing-mode:lr-tb;text-anchor:start;fill:#53241c;fill-opacity:1">STAT</tspan></text>
    <text
       sodipodi:linespacing="125%"
       id="text5200"
       y="324.03824"
       x="176.86115"
       style="font-style:normal;font-variant:normal;font-weight:normal;font-stretch:normal;font-size:7.5px;line-height:125%;font-family:Calibri;-inkscape-font-specification:Calibri;letter-spacing:0px;word-spacing:0px;display:inline;fill:#53241c;fill-opacity:1;stroke:none;stroke-width:1px;stroke-linecap:butt;stroke-linejoin:miter;stroke-opacity:1"
       xml:space="preserve"><tspan
         style="font-style:normal;font-variant:normal;font-weight:100;font-stretch:normal;font-size:8.75px;line-height:125%;font-family:Eurostile-Black-DTC;-inkscape-font-specification:'Eurostile-Black-DTC, Thin';text-align:start;writing-mode:lr-tb;text-anchor:start;fill:#53241c;fill-opacity:1"
         y="324.03824"
         x="176.86115"
         id="tspan5202"
         sodipodi:role="line">ACT</tspan></text>
    <g
       style="display:inline"
       id="g5075"
       transform="matrix(1.0657282,0,0,1.0657282,-230.26048,61.020353)">
      <g
         id="g3395"
         transform="translate(239.31511,151.0671)"
         style="display:inline;opacity:1">
        <path
           sodipodi:nodetypes="ccccccc"
           inkscape:connector-curvature="0"
           id="path4311"
           style="font-style:normal;font-variant:normal;font-weight:100;font-stretch:normal;font-size:medium;line-height:125%;font-family:Monotone;-inkscape-font-specification:'Monotone Thin';letter-spacing:0.5px;word-spacing:-5.24000025px;fill:#53241c;fill-opacity:1;stroke:#53241c;stroke-width:1px;stroke-linecap:butt;stroke-linejoin:miter;stroke-opacity:1"
           d="m 257.64973,158.68038 0,21.70578 -4.41278,0 0,-17.64362 -2.40995,0 0,-4.06252 c 2.66985,-1.5e-4 4.15288,9e-5 6.82273,3.6e-4 z" />
        <path
           sodipodi:nodetypes="ccccccc"
           d="m 257.64973,158.68038 0,21.70578 -4.41278,0 0,-17.64362 -2.40995,0 0,-4.06251 c 2.66985,-1.5e-4 4.15288,8e-5 6.82273,3.5e-4 z"
           style="font-style:normal;font-variant:normal;font-weight:100;font-stretch:normal;font-size:medium;line-height:125%;font-family:Monotone;-inkscape-font-specification:'Monotone Thin';letter-spacing:0.5px;word-spacing:-5.24000025px;fill:none;fill-opacity:1;stroke:#f1efd6;stroke-width:0.5;stroke-linecap:butt;stroke-linejoin:miter;stroke-miterlimit:4;stroke-dasharray:none;stroke-opacity:1"
           id="path4345"
           inkscape:connector-curvature="0" />
      </g>
      <g
         id="g3421"
         transform="translate(236.36272,151.0671)"
         style="display:inline;opacity:1">
        <path
           inkscape:connector-curvature="0"
           id="path4301"
           style="font-style:normal;font-variant:normal;font-weight:100;font-stretch:normal;font-size:medium;line-height:125%;font-family:Monotone;-inkscape-font-specification:'Monotone Thin';letter-spacing:0.5px;word-spacing:-5.24000025px;fill:#53241c;fill-opacity:1;stroke:#53241c;stroke-width:1px;stroke-linecap:butt;stroke-linejoin:miter;stroke-opacity:1"
           d="m 172.66833,158.68069 5.88311,0 1.38217,12.4695 0.49616,0 1.38218,-12.4695 5.88311,0 -4.30406,21.70547 -6.383,0 z"
           sodipodi:nodetypes="ccccccccc" />
        <path
           d="m 172.66833,158.68069 5.88311,0 1.38217,12.4695 0.49616,0 1.38218,-12.4695 5.88311,0 -4.30406,21.70547 -6.383,0 z"
           style="font-style:normal;font-variant:normal;font-weight:100;font-stretch:normal;font-size:medium;line-height:125%;font-family:Monotone;-inkscape-font-specification:'Monotone Thin';letter-spacing:0.5px;word-spacing:-5.24000025px;fill:none;fill-opacity:1;stroke:#f1efd6;stroke-width:0.5;stroke-linecap:butt;stroke-linejoin:miter;stroke-miterlimit:4;stroke-dasharray:none;stroke-opacity:1"
           id="path4322"
           inkscape:connector-curvature="0"
           sodipodi:nodetypes="ccccccccc" />
      </g>
      <g
         id="g3417"
         transform="translate(237.25532,151.0671)"
         style="display:inline;opacity:1">
        <path
           inkscape:connector-curvature="0"
           id="path4303"
           style="font-style:normal;font-variant:normal;font-weight:100;font-stretch:normal;font-size:medium;line-height:125%;font-family:Monotone;-inkscape-font-specification:'Monotone Thin';letter-spacing:0.5px;word-spacing:-5.24000025px;fill:#53241c;fill-opacity:1;stroke:#53241c;stroke-width:1px;stroke-linecap:butt;stroke-linejoin:miter;stroke-opacity:1"
           d="m 189.29221,158.68069 4.88293,0 0,21.70547 -4.88293,0 z"
           sodipodi:nodetypes="ccccc" />
        <path
           sodipodi:nodetypes="ccccc"
           d="m 189.29221,158.68069 4.88293,0 0,21.70547 -4.88293,0 z"
           style="font-style:normal;font-variant:normal;font-weight:100;font-stretch:normal;font-size:medium;line-height:125%;font-family:Monotone;-inkscape-font-specification:'Monotone Thin';letter-spacing:0.5px;word-spacing:-5.24000025px;fill:none;fill-opacity:1;stroke:#f1efd6;stroke-width:0.5;stroke-linecap:butt;stroke-linejoin:miter;stroke-miterlimit:4;stroke-dasharray:none;stroke-opacity:1"
           id="path4333"
           inkscape:connector-curvature="0" />
      </g>
      <g
         transform="translate(236.21204,151.0671)"
         id="g4256"
         style="display:inline;opacity:1">
        <path
           sodipodi:nodetypes="ccccccccccccccccc"
           inkscape:connector-curvature="0"
           id="path4305"
           style="font-style:normal;font-variant:normal;font-weight:100;font-stretch:normal;font-size:medium;line-height:125%;font-family:Monotone;-inkscape-font-specification:'Monotone Thin';letter-spacing:0.5px;word-spacing:-5.24000025px;fill:#53241c;fill-opacity:1;stroke:#53241c;stroke-width:1px;stroke-linecap:butt;stroke-linejoin:miter;stroke-opacity:1"
           d="m 211.30841,171.08834 0,5.96583 -3.47317,3.33199 -6.16663,0 -4.04021,-3.07812 0,-15.26364 3.79213,-3.36371 5.88311,0 4.00477,3.10985 0,5.23597 -4.81241,0 0,-3.33831 -3.689,0 0,12.236 3.689,0 0,-4.83586 z" />
        <path
           d="m 211.30841,171.08834 0,5.96583 -3.47317,3.33199 -6.16663,0 -4.04021,-3.07812 0,-15.26364 3.79213,-3.36371 5.88311,0 4.00477,3.10985 0,5.23597 -4.81241,0 0,-3.33831 -3.689,0 0,12.236 3.689,0 0,-4.83586 z"
           style="font-style:normal;font-variant:normal;font-weight:100;font-stretch:normal;font-size:medium;line-height:125%;font-family:Monotone;-inkscape-font-specification:'Monotone Thin';letter-spacing:0.5px;word-spacing:-5.24000025px;fill:none;fill-opacity:1;stroke:#f1efd6;stroke-width:0.5;stroke-linecap:butt;stroke-linejoin:miter;stroke-miterlimit:4;stroke-dasharray:none;stroke-opacity:1"
           id="path4335"
           inkscape:connector-curvature="0"
           sodipodi:nodetypes="ccccccccccccccccc" />
      </g>
      <g
         transform="translate(236.27535,151.0671)"
         id="g4275"
         style="display:inline;opacity:1">
        <path
           inkscape:connector-curvature="0"
           id="path4307"
           style="font-style:normal;font-variant:normal;font-weight:100;font-stretch:normal;font-size:medium;line-height:125%;font-family:Monotone;-inkscape-font-specification:'Monotone Thin';letter-spacing:0.5px;word-spacing:-5.24000025px;fill:#53241c;fill-opacity:1;stroke:#53241c;stroke-width:1px;stroke-linecap:butt;stroke-linejoin:miter;stroke-opacity:1"
           d="m 235.11872,180.38616 -13.92808,0 0,-4.37196 9.81536,-9.90795 0,-3.14158 -5.2,0 0,2.88771 -4.36728,0 0,-3.80798 3.5086,-3.36371 6.13119,0 4.04021,3.10985 0,5.96583 c -2.66839,2.9527 -2.578,2.83063 -8.3285,8.56795 l 8.3285,0 z"
           sodipodi:nodetypes="cccccccccccccccc" />
        <path
           d="m 235.11872,180.38616 -13.92808,0 0,-4.37196 9.81536,-9.90795 0,-3.14158 -5.2,0 0,2.88771 -4.36728,0 0,-3.80798 3.5086,-3.36371 6.13119,0 4.04021,3.10985 0,5.96583 c -2.66839,2.9527 -2.53168,2.78159 -8.3285,8.56795 l 8.3285,0 z"
           style="font-style:normal;font-variant:normal;font-weight:100;font-stretch:normal;font-size:medium;line-height:125%;font-family:Monotone;-inkscape-font-specification:'Monotone Thin';letter-spacing:0.5px;word-spacing:-5.24000025px;fill:none;fill-opacity:1;stroke:#f1efd6;stroke-width:0.5;stroke-linecap:butt;stroke-linejoin:miter;stroke-miterlimit:4;stroke-dasharray:none;stroke-opacity:1"
           id="path4341"
           inkscape:connector-curvature="0"
           sodipodi:nodetypes="cccccccccccccccc" />
      </g>
      <g
         id="g3391"
         transform="translate(239.08016,151.0671)"
         style="display:inline;opacity:1">
        <path
           sodipodi:nodetypes="cccccccccccccc"
           inkscape:connector-curvature="0"
           id="path4309"
           style="font-style:normal;font-variant:normal;font-weight:100;font-stretch:normal;font-size:medium;line-height:125%;font-family:Monotone;-inkscape-font-specification:'Monotone Thin';letter-spacing:0.5px;word-spacing:-5.24000025px;fill:#53241c;fill-opacity:1;stroke:#53241c;stroke-width:1px;stroke-linecap:butt;stroke-linejoin:miter;stroke-opacity:1"
           d="m 234.72389,162.0444 3.75669,-3.36371 6.41471,0 3.75668,3.36371 0,15.00977 -3.75668,3.33199 -6.69824,0 -3.47316,-3.33199 z m 9.01604,14.27992 0,-13.35965 -4.104,0 0,13.35965 z" />
        <path
           sodipodi:nodetypes="cccccccccccccc"
           d="m 234.72389,162.0444 3.75704,-3.36371 6.414,-4.9e-4 3.75704,3.3642 0,15.00977 -3.75668,3.33199 -6.69824,0 -3.47316,-3.33199 z m 9.01604,14.27992 0,-13.35965 -4.104,0 0,13.35965 z"
           style="font-style:normal;font-variant:normal;font-weight:100;font-stretch:normal;font-size:medium;line-height:125%;font-family:Monotone;-inkscape-font-specification:'Monotone Thin';letter-spacing:0.5px;word-spacing:-5.24000025px;fill:none;fill-opacity:1;stroke:#f1efd6;stroke-width:0.5;stroke-linecap:butt;stroke-linejoin:miter;stroke-miterlimit:4;stroke-dasharray:none;stroke-opacity:1"
           id="path4343"
           inkscape:connector-curvature="0" />
      </g>
      <g
         id="g3399"
         transform="translate(238.36281,151.0671)"
         style="display:inline;opacity:1">
        <path
           sodipodi:nodetypes="ccccccccccccccccccccc"
           inkscape:connector-curvature="0"
           id="path4313"
           style="font-style:normal;font-variant:normal;font-weight:100;font-stretch:normal;font-size:medium;line-height:125%;font-family:Monotone;-inkscape-font-specification:'Monotone Thin';letter-spacing:0.5px;word-spacing:-5.24000025px;fill:#53241c;fill-opacity:1;stroke:#53241c;stroke-width:1px;stroke-linecap:butt;stroke-linejoin:miter;stroke-opacity:1"
           d="m 264.5206,180.38616 -3.5086,-3.33199 0,-15.26363 3.50895,-3.10985 6.166,0 3.75696,3.36371 0,3.55412 -5.23996,0 0,-2.85598 -3.2,0 0,4.7917 5.21488,0 3.22508,2.82425 0,6.69568 -3.47315,3.33199 z m 4.68335,-4.06184 0,-4.75997 -3.2,0 0,4.75997 z" />
        <path
           sodipodi:nodetypes="ccccccccccccccccccccc"
           d="m 264.5206,180.38616 -3.5086,-3.33199 0,-15.26363 3.5086,-3.10985 6.16663,0 3.75668,3.36371 0,3.55412 -5.23998,0 4e-5,-2.85598 -3.20002,0 0,4.7917 5.21488,0 3.22508,2.82425 0,6.69568 -3.47315,3.33199 z m 4.68333,-4.06184 0,-4.75997 -3.19998,0 0,4.75997 z"
           style="font-style:normal;font-variant:normal;font-weight:100;font-stretch:normal;font-size:medium;line-height:125%;font-family:Monotone;-inkscape-font-specification:'Monotone Thin';letter-spacing:0.5px;word-spacing:-5.24000025px;fill:none;fill-opacity:1;stroke:#f1efd6;stroke-width:0.5;stroke-linecap:butt;stroke-linejoin:miter;stroke-miterlimit:4;stroke-dasharray:none;stroke-opacity:1"
           id="path4347"
           inkscape:connector-curvature="0" />
      </g>
      <g
         transform="translate(236.55448,151.0671)"
         id="g4264"
         style="display:inline;opacity:1">
        <g
           transform="matrix(1.3237323,0,0,1.0944529,-69.177493,-16.305513)"
           id="g3407">
          <g
             transform="scale(0.71531697,1.3979817)"
             style="font-style:normal;font-variant:normal;font-weight:100;font-stretch:normal;font-size:29.72056198px;line-height:125%;font-family:Monotone;-inkscape-font-specification:'Monotone Thin';letter-spacing:0px;word-spacing:0px;display:inline;fill:none;fill-opacity:1;stroke:#f1efd6;stroke-width:0.5;stroke-linecap:butt;stroke-linejoin:miter;stroke-miterlimit:4;stroke-dasharray:none;stroke-opacity:1"
             id="text4337">
            <path
               d="m 298.37407,119.92738 5.46859,0 0,2.64513 -5.46859,0 0,-2.64513 z"
               id="path3441"
               inkscape:connector-curvature="0" />
          </g>
          <g
             transform="scale(0.71531697,1.3979817)"
             style="font-style:normal;font-variant:normal;font-weight:100;font-stretch:normal;font-size:29.72056198px;line-height:125%;font-family:Monotone;-inkscape-font-specification:'Monotone Thin';letter-spacing:0px;word-spacing:0px;display:inline;fill:#53241c;fill-opacity:1;stroke:#53241c;stroke-width:1px;stroke-linecap:butt;stroke-linejoin:miter;stroke-opacity:1"
             id="text3371">
            <path
               d="m 298.37407,119.92738 5.46909,-1.2e-4 -5e-4,2.64525 -5.46859,0 z"
               id="path3444"
               inkscape:connector-curvature="0"
               sodipodi:nodetypes="ccccc" />
          </g>
        </g>
        <g
           transform="matrix(0.94688818,0,0,1.5300251,-69.177493,-16.305513)"
           style="font-style:normal;font-variant:normal;font-weight:100;font-stretch:normal;font-size:29.72056198px;line-height:125%;font-family:Monotone;-inkscape-font-specification:'Monotone Thin';letter-spacing:0px;word-spacing:0px;display:inline;fill:none;fill-opacity:1;stroke:#f1efd6;stroke-width:0.41540468;stroke-linecap:butt;stroke-linejoin:miter;stroke-miterlimit:4;stroke-dasharray:none;stroke-opacity:1"
           id="g3448">
          <path
             style="stroke:#f1efd6;stroke-width:0.41540468;stroke-miterlimit:4;stroke-dasharray:none;stroke-opacity:1"
             d="m 298.37407,119.92738 5.46859,0 0,2.64513 -5.46859,0 0,-2.64513 z"
             id="path3450"
             inkscape:connector-curvature="0" />
        </g>
        <g
           transform="matrix(0.94688818,0,0,1.5300251,-69.177493,-16.305513)"
           style="font-style:normal;font-variant:normal;font-weight:100;font-stretch:normal;font-size:29.72056198px;line-height:125%;font-family:Monotone;-inkscape-font-specification:'Monotone Thin';letter-spacing:0px;word-spacing:0px;display:inline;fill:#53241c;fill-opacity:1;stroke:#f1efd6;stroke-width:0.41540468;stroke-linecap:butt;stroke-linejoin:miter;stroke-miterlimit:4;stroke-dasharray:none;stroke-opacity:1"
           id="g3452">
          <path
             style="stroke:#f1efd6;stroke-width:0.41540468;stroke-miterlimit:4;stroke-dasharray:none;stroke-opacity:1"
             d="m 298.37407,119.92738 5.46909,-1.2e-4 -5e-4,2.64525 -5.46859,0 z"
             id="path3454"
             inkscape:connector-curvature="0"
             sodipodi:nodetypes="ccccc" />
        </g>
      </g>
    </g>
    <text
       xml:space="preserve"
       style="font-style:normal;font-variant:normal;font-weight:normal;font-stretch:normal;font-size:7.5px;line-height:125%;font-family:Calibri;-inkscape-font-specification:Calibri;text-align:center;letter-spacing:0px;word-spacing:0px;text-anchor:middle;display:inline;fill:#53241c;fill-opacity:1;stroke:none;stroke-width:1px;stroke-linecap:butt;stroke-linejoin:miter;stroke-opacity:1"
       x="582.2937"
       y="286.78903"
       id="text5194-3"
       sodipodi:linespacing="125%"><tspan
         sodipodi:role="line"
         id="tspan5196-9"
         x="582.2937"
         y="286.78903"
         style="font-style:normal;font-variant:normal;font-weight:100;font-stretch:normal;font-size:8.75px;line-height:125%;font-family:Eurostile-Black-DTC;-inkscape-font-specification:'Eurostile-Black-DTC, Thin';text-align:center;writing-mode:lr-tb;text-anchor:middle;fill:#53241c;fill-opacity:1">QUICK</tspan><tspan
         sodipodi:role="line"
         x="582.2937"
         y="297.72653"
         style="font-style:normal;font-variant:normal;font-weight:100;font-stretch:normal;font-size:8.75px;line-height:125%;font-family:Eurostile-Black-DTC;-inkscape-font-specification:'Eurostile-Black-DTC, Thin';text-align:center;writing-mode:lr-tb;text-anchor:middle;fill:#53241c;fill-opacity:1"
         id="tspan4259">RESET</tspan></text>
    <text
       sodipodi:linespacing="125%"
       id="text4251"
       y="334.54404"
       x="582.26074"
       style="font-style:normal;font-variant:normal;font-weight:normal;font-stretch:normal;font-size:7.5px;line-height:125%;font-family:Calibri;-inkscape-font-specification:Calibri;text-align:center;letter-spacing:0px;word-spacing:0px;text-anchor:middle;display:inline;fill:#53241c;fill-opacity:1;stroke:none;stroke-width:1px;stroke-linecap:butt;stroke-linejoin:miter;stroke-opacity:1"
       xml:space="preserve"><tspan
         style="font-style:normal;font-variant:normal;font-weight:100;font-stretch:normal;font-size:8.75px;line-height:125%;font-family:Eurostile-Black-DTC;-inkscape-font-specification:'Eurostile-Black-DTC, Thin';text-align:center;writing-mode:lr-tb;text-anchor:middle;fill:#53241c;fill-opacity:1"
         y="334.54404"
         x="582.26074"
         id="tspan4253"
         sodipodi:role="line">FULL</tspan><tspan
         style="font-style:normal;font-variant:normal;font-weight:100;font-stretch:normal;font-size:8.75px;line-height:125%;font-family:Eurostile-Black-DTC;-inkscape-font-specification:'Eurostile-Black-DTC, Thin';text-align:center;writing-mode:lr-tb;text-anchor:middle;fill:#53241c;fill-opacity:1"
         y="345.48154"
         x="582.26074"
         sodipodi:role="line"
         id="tspan4257">RESET</tspan></text>
    <text
       xml:space="preserve"
       style="font-style:normal;font-variant:normal;font-weight:100;font-stretch:normal;font-size:26.079216px;line-height:125%;font-family:BaccaratUpright;-inkscape-font-specification:'BaccaratUpright Thin';letter-spacing:-0.0317676px;word-spacing:-1.29452968px;display:inline;opacity:1;fill:#53241c;fill-opacity:1;stroke:none;stroke-width:1px;stroke-linecap:butt;stroke-linejoin:miter;stroke-opacity:1"
       x="413.45935"
       y="295.44205"
       id="text4652-1"
       sodipodi:linespacing="125%"
       transform="matrix(0.9875879,0,-0.14762509,1.0125681,0,0)"><tspan
         sodipodi:role="line"
         x="413.45935"
         y="295.44205"
         dx="0 0"
         dy="0 0"
         id="tspan4262"><tspan
           dx="0"
           dy="0"
           id="tspan4264">F</tspan></tspan></text>
    <text
       transform="matrix(0.9875879,0,-0.14762509,1.0125681,0,0)"
       sodipodi:linespacing="125%"
       id="text4266"
       y="318.76208"
       x="416.94537"
       style="font-style:normal;font-variant:normal;font-weight:100;font-stretch:normal;font-size:26.079216px;line-height:125%;font-family:BaccaratUpright;-inkscape-font-specification:'BaccaratUpright Thin';letter-spacing:-0.0317676px;word-spacing:-1.29452968px;display:inline;opacity:1;fill:#53241c;fill-opacity:1;stroke:none;stroke-width:1px;stroke-linecap:butt;stroke-linejoin:miter;stroke-opacity:1"
       xml:space="preserve"><tspan
         id="tspan4268"
         dy="0 0"
         dx="0 0"
         y="318.76208"
         x="416.94537"
         sodipodi:role="line">E<tspan
   id="tspan4270" /></tspan></text>
    <text
       xml:space="preserve"
       style="font-style:normal;font-variant:normal;font-weight:100;font-stretch:normal;font-size:26.079216px;line-height:125%;font-family:BaccaratUpright;-inkscape-font-specification:'BaccaratUpright Thin';letter-spacing:-0.0317676px;word-spacing:-1.29452968px;display:inline;opacity:1;fill:#d0ab65;fill-opacity:1;stroke:none;stroke-width:1px;stroke-linecap:butt;stroke-linejoin:miter;stroke-opacity:1"
       x="420.27466"
       y="342.39517"
       id="text4272"
       sodipodi:linespacing="125%"
       transform="matrix(0.9875879,0,-0.14762509,1.0125681,0,0)"><tspan
         sodipodi:role="line"
         x="420.27466"
         y="342.39517"
         dx="0 0"
         dy="0 0"
         id="tspan4274">3</tspan></text>
  </g>
  <g
     inkscape:groupmode="layer"
     id="layer2"
     inkscape:label="Cut Line 2"
     style="display:none">
    <rect
       style="color:#000000;display:inline;overflow:visible;visibility:visible;opacity:1;fill:none;fill-opacity:1;fill-rule:nonzero;stroke:#000000;stroke-width:0.09947141;stroke-linecap:square;stroke-linejoin:miter;stroke-miterlimit:4;stroke-dasharray:none;stroke-dashoffset:0;stroke-opacity:1;marker:none;enable-background:accumulate"
       id="rect4225"
       width="57.7575"
       height="66.259583"
       x="232.04778"
       y="418.77335" />
  </g>
  <g
     inkscape:groupmode="layer"
     id="layer1"
     inkscape:label="Cut Line 1"
     style="display:none"
     sodipodi:insensitive="true">
    <path
       sodipodi:nodetypes="ssccccccccccsssssscssssccsssscs"
       inkscape:connector-curvature="0"
       id="path4230"
       d="m 166.87109,262.78906 c -0.554,0 -1,0.446 -1,1 l 0,30.82514 1.20535,0 c 3.88658,-2.1e-4 7.03732,3.15007 7.03711,7.03665 2.1e-4,3.88658 -3.15053,7.03756 -7.03711,7.03735 l -1.20535,0 0,5.396 1.20535,0 c 3.88658,-2.1e-4 7.03732,3.15077 7.03711,7.03735 2.1e-4,3.88658 -3.15053,7.03686 -7.03711,7.03665 l -1.20535,0 0,160.40235 c 0,0.554 0.446,1 1,1 l 449.77149,0 c 0.554,0 1,-0.446 1,-1 l 0,-224.77149 c 0,-0.554 -0.446,-1 -1,-1 l -69.70564,9.2e-4 0,92.47308 c 0,2.493 -2.12221,4.50001 -4.75781,4.5 l -148.30139,-4.2e-4 c -2.6356,-10e-6 -4.75586,-2.00702 -4.75586,-4.5 l 0,-92.47308 -37.19018,0 0,92.47308 c 0,2.493 -2.007,4.50001 -4.5,4.5 l -147.39784,-5e-4 c -2.493,-10e-6 -4.5,-2.007 -4.5,-4.5 l 0,-92.47308 z"
       style="color:#000000;display:inline;overflow:visible;visibility:visible;opacity:1;fill:none;fill-opacity:1;fill-rule:nonzero;stroke:#000000;stroke-width:0.1;stroke-linecap:square;stroke-linejoin:miter;stroke-miterlimit:4;stroke-dasharray:none;stroke-dashoffset:0;stroke-opacity:1;marker:none;enable-background:accumulate" />
  </g>
</svg>
