<?xml version="1.0" encoding="UTF-8" standalone="no"?>
<!-- Created with Inkscape (http://www.inkscape.org/) -->

<svg
   xmlns:dc="http://purl.org/dc/elements/1.1/"
   xmlns:cc="http://creativecommons.org/ns#"
   xmlns:rdf="http://www.w3.org/1999/02/22-rdf-syntax-ns#"
   xmlns:svg="http://www.w3.org/2000/svg"
   xmlns="http://www.w3.org/2000/svg"
   xmlns:sodipodi="http://sodipodi.sourceforge.net/DTD/sodipodi-0.dtd"
   xmlns:inkscape="http://www.inkscape.org/namespaces/inkscape"
   width="127.50001mm"
   height="62.93mm"
   viewBox="0 0 451.77168 222.98031"
   id="svg2"
   version="1.1"
   inkscape:version="0.91 r13725"
   sodipodi:docname="FE3 Rev 11 Standard Shell DIN.svg"
   inkscape:export-filename="C:\Users\heather\Desktop\Projects\Final Expansion 3\Label\FE3 Rev 11.png"
   inkscape:export-xdpi="600"
   inkscape:export-ydpi="600">
  <defs
     id="defs4">
    <inkscape:path-effect
       effect="spiro"
       id="path-effect4222"
       is_visible="true" />
  </defs>
  <sodipodi:namedview
     id="base"
     pagecolor="#ffffff"
     bordercolor="#666666"
     borderopacity="1.0"
     inkscape:pageopacity="0.0"
     inkscape:pageshadow="2"
     inkscape:zoom="3.3866665"
     inkscape:cx="225.88584"
     inkscape:cy="111.49016"
     inkscape:document-units="px"
     inkscape:current-layer="g4740"
     showgrid="false"
     inkscape:window-width="1920"
     inkscape:window-height="1137"
     inkscape:window-x="-8"
     inkscape:window-y="-8"
     inkscape:window-maximized="1"
     inkscape:snap-tangential="true"
     inkscape:snap-path-clip="true"
     inkscape:snap-path-mask="true"
     objecttolerance="20"
     inkscape:snap-perpendicular="true"
     inkscape:snap-bbox="false"
     inkscape:object-paths="true"
     inkscape:snap-nodes="true"
     inkscape:snap-intersection-paths="true"
     inkscape:object-nodes="true"
     inkscape:snap-smooth-nodes="true"
     inkscape:snap-midpoints="true"
     inkscape:snap-text-baseline="true"
     inkscape:snap-center="false"
     inkscape:snap-object-midpoints="false"
     inkscape:snap-others="true"
     fit-margin-top="0"
     fit-margin-left="0"
     fit-margin-right="0"
     fit-margin-bottom="0" />
  <metadata
     id="metadata7">
    <rdf:RDF>
      <cc:Work
         rdf:about="">
        <dc:format>image/svg+xml</dc:format>
        <dc:type
           rdf:resource="http://purl.org/dc/dcmitype/StillImage" />
        <dc:title />
      </cc:Work>
    </rdf:RDF>
  </metadata>
  <g
     inkscape:groupmode="layer"
     id="layer3"
     inkscape:label="Background"
     transform="translate(-24.186614,-20.538382)"
     style="display:inline">
    <path
       style="color:#000000;display:inline;overflow:visible;visibility:visible;opacity:1;fill:#f1efd6;fill-opacity:1;fill-rule:nonzero;stroke:none;stroke-width:6.00199986;stroke-linecap:square;stroke-linejoin:round;stroke-miterlimit:0;stroke-dasharray:none;stroke-dashoffset:0;stroke-opacity:1;marker:none;enable-background:accumulate"
       d="m 24.186615,20.538383 451.771675,0 0,153.512977 -3.32915,69.46734 -445.113256,0 -3.329269,-69.46734 z"
       id="rect4230"
       inkscape:connector-curvature="0"
       sodipodi:nodetypes="ccccccc" />
  </g>
  <g
     inkscape:groupmode="layer"
     id="layer5"
     inkscape:label="Graphics"
     style="display:inline"
     transform="translate(-142.22134,-71.810416)">
    <flowRoot
       xml:space="preserve"
       id="flowRoot4644"
       style="font-style:normal;font-variant:normal;font-weight:100;font-stretch:normal;font-size:50px;line-height:125%;font-family:Monotone;-inkscape-font-specification:'Monotone Thin';letter-spacing:0px;word-spacing:0px;display:inline;fill:#000000;fill-opacity:1;stroke:none;stroke-width:1px;stroke-linecap:butt;stroke-linejoin:miter;stroke-opacity:1"
       transform="matrix(0.42542495,0,0,0.83143488,86.221782,48.949568)"><flowRegion
         id="flowRegion4646"><rect
           id="rect4648"
           width="272.16711"
           height="72.384865"
           x="312.70264"
           y="84.335251"
           style="font-style:normal;font-variant:normal;font-weight:100;font-stretch:normal;font-size:50px;font-family:Monotone;-inkscape-font-specification:'Monotone Thin'" /></flowRegion><flowPara
         id="flowPara4650" /></flowRoot>    <path
       style="color:#000000;display:inline;overflow:visible;visibility:visible;opacity:1;fill:#d0ab65;fill-opacity:1;fill-rule:nonzero;stroke:none;stroke-width:6.00199986;stroke-linecap:square;stroke-linejoin:round;stroke-miterlimit:0;stroke-dasharray:none;stroke-dashoffset:0;stroke-opacity:1;marker:none;enable-background:accumulate"
       d="m 169.02697,131.02234 278.71533,10e-6 -20.23635,21.96212 -258.47903,3.8e-4 z"
       id="rect4190"
       inkscape:connector-curvature="0"
       sodipodi:nodetypes="ccccc" />
    <path
       sodipodi:nodetypes="ccccc"
       inkscape:connector-curvature="0"
       id="path4197"
       d="m 567.18766,270.35077 -250.91721,4.7e-4 23.40367,-25.28295 227.51359,0 z"
       style="color:#000000;display:inline;overflow:visible;visibility:visible;opacity:1;fill:#d0ab65;fill-opacity:1;fill-rule:nonzero;stroke:none;stroke-width:6.00199986;stroke-linecap:square;stroke-linejoin:round;stroke-miterlimit:0;stroke-dasharray:none;stroke-dashoffset:0;stroke-opacity:1;marker:none;enable-background:accumulate" />
    <path
       style="color:#000000;display:inline;overflow:visible;visibility:visible;opacity:1;fill:#53241c;fill-opacity:1;fill-rule:nonzero;stroke:none;stroke-width:6.00199986;stroke-linecap:square;stroke-linejoin:round;stroke-miterlimit:0;stroke-dasharray:none;stroke-dashoffset:0;stroke-opacity:1;marker:none;enable-background:accumulate"
       d="m 310.57672,217.00298 0,10.70512 -110.47175,0 29.03587,31.01712 81.43588,0 0,10.70709 24.15382,-26.21565 z"
       id="rect4199"
       inkscape:connector-curvature="0"
       sodipodi:nodetypes="cccccccc" />
    <path
       sodipodi:nodetypes="cccccccc"
       inkscape:connector-curvature="0"
       id="path4206"
       d="m 279.49811,183.92785 0,10.70511 -110.47113,0 29.03487,31.01712 81.43626,0 0,10.70709 24.15382,-26.21565 z"
       style="color:#000000;display:inline;overflow:visible;visibility:visible;opacity:1;fill:#53241c;fill-opacity:1;fill-rule:nonzero;stroke:none;stroke-width:6.00199986;stroke-linecap:square;stroke-linejoin:round;stroke-miterlimit:0;stroke-dasharray:none;stroke-dashoffset:0;stroke-opacity:1;marker:none;enable-background:accumulate" />
    <path
       sodipodi:nodetypes="cccccccc"
       inkscape:connector-curvature="0"
       id="path4228"
       d="m 263.31312,201.49442 0,10.70512 -110.47098,0 29.03487,31.01712 81.43611,0 0,10.70709 24.15382,-26.21565 z"
       style="color:#000000;display:inline;overflow:visible;visibility:visible;opacity:1;fill:#f1efd6;fill-opacity:1;fill-rule:nonzero;stroke:none;stroke-width:6.00199986;stroke-linecap:square;stroke-linejoin:round;stroke-miterlimit:0;stroke-dasharray:none;stroke-dashoffset:0;stroke-opacity:1;marker:none;enable-background:accumulate" />
    <path
       style="color:#000000;font-style:normal;font-variant:normal;font-weight:normal;font-stretch:normal;font-size:medium;line-height:normal;font-family:sans-serif;text-indent:0;text-align:start;text-decoration:none;text-decoration-line:none;text-decoration-style:solid;text-decoration-color:#000000;letter-spacing:normal;word-spacing:normal;text-transform:none;direction:ltr;block-progression:tb;writing-mode:lr-tb;baseline-shift:baseline;text-anchor:start;white-space:normal;clip-rule:nonzero;display:inline;overflow:visible;visibility:visible;opacity:1;isolation:auto;mix-blend-mode:normal;color-interpolation:sRGB;color-interpolation-filters:linearRGB;solid-color:#000000;solid-opacity:1;fill:#53241c;fill-opacity:1;fill-rule:nonzero;stroke:none;stroke-width:6.00199986;stroke-linecap:square;stroke-linejoin:round;stroke-miterlimit:0;stroke-dasharray:none;stroke-dashoffset:0;stroke-opacity:1;marker:none;color-rendering:auto;image-rendering:auto;shape-rendering:auto;text-rendering:auto;enable-background:accumulate"
       d="m 170.41874,125.01703 c -3.48705,0 -7.39727,3.91001 -7.39727,7.39709 l 0,136.54535 c 0,3.48684 3.91046,7.39609 7.39727,7.39609 l 395.37708,0 c 3.48676,0 7.39707,-3.9093 7.39707,-7.39609 l 0,-136.54535 c 0,-3.48712 -3.90998,-7.39746 -7.39707,-7.39746 z m -1.39176,6.00532 398.16068,-4.2e-4 0,139.32884 -398.16096,0 z"
       id="rect3373"
       inkscape:connector-curvature="0"
       sodipodi:nodetypes="cccccccccccccc" />
  </g>
  <g
     inkscape:label="Text"
     inkscape:groupmode="layer"
     id="layer1"
     style="display:inline;opacity:1"
     transform="translate(-142.22134,-71.810416)">
    <text
       xml:space="preserve"
       style="font-style:normal;font-variant:normal;font-weight:normal;font-stretch:normal;font-size:143.82899475px;line-height:125%;font-family:Calibri;-inkscape-font-specification:Calibri;letter-spacing:0px;word-spacing:0px;display:inline;opacity:1;fill:#d0ab65;fill-opacity:1;stroke:none;stroke-width:1px;stroke-linecap:butt;stroke-linejoin:miter;stroke-opacity:1"
       x="372.68369"
       y="422.17023"
       id="text4243"
       sodipodi:linespacing="125%"
       transform="matrix(0.91981689,-0.39234317,0.39234105,0.91982185,0,0)"><tspan
         sodipodi:role="line"
         id="tspan4245"
         x="372.68369"
         y="422.17023"
         style="font-style:normal;font-variant:normal;font-weight:100;font-stretch:normal;font-size:143.82899475px;font-family:BaccaratUpright;-inkscape-font-specification:'BaccaratUpright Thin';fill:#d0ab65;fill-opacity:1">3</tspan></text>
    <text
       xml:space="preserve"
       style="font-style:normal;font-variant:normal;font-weight:100;font-stretch:normal;font-size:32.85554504px;line-height:125%;font-family:BaccaratUpright;-inkscape-font-specification:'BaccaratUpright Thin';letter-spacing:-0.04002198px;word-spacing:-1.63089561px;display:inline;fill:#53241c;fill-opacity:1;stroke:none;stroke-width:1px;stroke-linecap:butt;stroke-linejoin:miter;stroke-opacity:1"
       x="345.14261"
       y="206.80461"
       id="text4652"
       sodipodi:linespacing="125%"
       transform="matrix(0.98758525,0,-0.14762469,1.0125708,0,0)"><tspan
         sodipodi:role="line"
         id="tspan4654"
         x="345.14261"
         y="206.80461"
         dx="0 0 0 0 1.0120686"
         dy="0 0">FINAL EXPANSION</tspan></text>
    <text
       xml:space="preserve"
       style="font-style:normal;font-variant:normal;font-weight:100;font-stretch:normal;font-size:17.06959915px;line-height:125%;font-family:Eurostile-Black-DTC;-inkscape-font-specification:'Eurostile-Black-DTC Thin';letter-spacing:-0.66413939px;word-spacing:-0.41071779px;display:inline;fill:#53241c;fill-opacity:1;stroke:none;stroke-width:1px;stroke-linecap:butt;stroke-linejoin:miter;stroke-opacity:1"
       x="144.56764"
       y="177.32941"
       id="text3387"
       sodipodi:linespacing="125%"
       transform="scale(1.2087987,0.82726761)"><tspan
         sodipodi:role="line"
         id="tspan3389"
         x="144.56764"
         y="177.32941">512 kB RAM + 512 kB Flash</tspan></text>
    <g
       transform="matrix(1.0005468,0,0,1.0005522,2.7515028,-0.101219)"
       id="g3395">
      <path
         d="m 257.64973,158.68038 0,21.70578 -4.41278,0 0,-17.64362 -2.40995,0 0,-4.06252 c 2.66985,-1.5e-4 4.15288,9e-5 6.82273,3.6e-4 z"
         style="font-style:normal;font-variant:normal;font-weight:100;font-stretch:normal;font-size:medium;line-height:125%;font-family:Monotone;-inkscape-font-specification:'Monotone Thin';letter-spacing:0.5px;word-spacing:-5.24000025px;fill:#53241c;fill-opacity:1;stroke:#53241c;stroke-width:1px;stroke-linecap:butt;stroke-linejoin:miter;stroke-opacity:1"
         id="path4311"
         inkscape:connector-curvature="0"
         sodipodi:nodetypes="ccccccc" />
      <path
         inkscape:connector-curvature="0"
         id="path4345"
         style="font-style:normal;font-variant:normal;font-weight:100;font-stretch:normal;font-size:medium;line-height:125%;font-family:Monotone;-inkscape-font-specification:'Monotone Thin';letter-spacing:0.5px;word-spacing:-5.24000025px;fill:none;fill-opacity:1;stroke:#f1efd6;stroke-width:0.5;stroke-linecap:butt;stroke-linejoin:miter;stroke-miterlimit:4;stroke-dasharray:none;stroke-opacity:1"
         d="m 257.64973,158.68038 0,21.70578 -4.41278,0 0,-17.64362 -2.40995,0 0,-4.06251 c 2.66985,-1.5e-4 4.15288,8e-5 6.82273,3.5e-4 z"
         sodipodi:nodetypes="ccccccc" />
    </g>
    <g
       transform="matrix(1.0005468,0,0,1.0005522,-0.20249626,-0.101219)"
       id="g3421">
      <path
         sodipodi:nodetypes="ccccccccc"
         d="m 172.66833,158.68069 5.88311,0 1.38217,12.4695 0.49616,0 1.38218,-12.4695 5.88311,0 -4.30406,21.70547 -6.383,0 z"
         style="font-style:normal;font-variant:normal;font-weight:100;font-stretch:normal;font-size:medium;line-height:125%;font-family:Monotone;-inkscape-font-specification:'Monotone Thin';letter-spacing:0.5px;word-spacing:-5.24000025px;fill:#53241c;fill-opacity:1;stroke:#53241c;stroke-width:1px;stroke-linecap:butt;stroke-linejoin:miter;stroke-opacity:1"
         id="path4301"
         inkscape:connector-curvature="0" />
      <path
         sodipodi:nodetypes="ccccccccc"
         inkscape:connector-curvature="0"
         id="path4322"
         style="font-style:normal;font-variant:normal;font-weight:100;font-stretch:normal;font-size:medium;line-height:125%;font-family:Monotone;-inkscape-font-specification:'Monotone Thin';letter-spacing:0.5px;word-spacing:-5.24000025px;fill:none;fill-opacity:1;stroke:#f1efd6;stroke-width:0.5;stroke-linecap:butt;stroke-linejoin:miter;stroke-miterlimit:4;stroke-dasharray:none;stroke-opacity:1"
         d="m 172.66833,158.68069 5.88311,0 1.38217,12.4695 0.49616,0 1.38218,-12.4695 5.88311,0 -4.30406,21.70547 -6.383,0 z" />
    </g>
    <g
       transform="matrix(1.0005468,0,0,1.0005522,0.69059253,-0.101219)"
       id="g3417">
      <path
         sodipodi:nodetypes="ccccc"
         d="m 189.29221,158.68069 4.88293,0 0,21.70547 -4.88293,0 z"
         style="font-style:normal;font-variant:normal;font-weight:100;font-stretch:normal;font-size:medium;line-height:125%;font-family:Monotone;-inkscape-font-specification:'Monotone Thin';letter-spacing:0.5px;word-spacing:-5.24000025px;fill:#53241c;fill-opacity:1;stroke:#53241c;stroke-width:1px;stroke-linecap:butt;stroke-linejoin:miter;stroke-opacity:1"
         id="path4303"
         inkscape:connector-curvature="0" />
      <path
         inkscape:connector-curvature="0"
         id="path4333"
         style="font-style:normal;font-variant:normal;font-weight:100;font-stretch:normal;font-size:medium;line-height:125%;font-family:Monotone;-inkscape-font-specification:'Monotone Thin';letter-spacing:0.5px;word-spacing:-5.24000025px;fill:none;fill-opacity:1;stroke:#f1efd6;stroke-width:0.5;stroke-linecap:butt;stroke-linejoin:miter;stroke-miterlimit:4;stroke-dasharray:none;stroke-opacity:1"
         d="m 189.29221,158.68069 4.88293,0 0,21.70547 -4.88293,0 z"
         sodipodi:nodetypes="ccccc" />
    </g>
    <g
       id="g4256"
       transform="matrix(1.0005468,0,0,1.0005522,-0.35326022,-0.101219)">
      <path
         d="m 211.30841,171.08834 0,5.96583 -3.47317,3.33199 -6.16663,0 -4.04021,-3.07812 0,-15.26364 3.79213,-3.36371 5.88311,0 4.00477,3.10985 0,5.23597 -4.81241,0 0,-3.33831 -3.689,0 0,12.236 3.689,0 0,-4.83586 z"
         style="font-style:normal;font-variant:normal;font-weight:100;font-stretch:normal;font-size:medium;line-height:125%;font-family:Monotone;-inkscape-font-specification:'Monotone Thin';letter-spacing:0.5px;word-spacing:-5.24000025px;fill:#53241c;fill-opacity:1;stroke:#53241c;stroke-width:1px;stroke-linecap:butt;stroke-linejoin:miter;stroke-opacity:1"
         id="path4305"
         inkscape:connector-curvature="0"
         sodipodi:nodetypes="ccccccccccccccccc" />
      <path
         sodipodi:nodetypes="ccccccccccccccccc"
         inkscape:connector-curvature="0"
         id="path4335"
         style="font-style:normal;font-variant:normal;font-weight:100;font-stretch:normal;font-size:medium;line-height:125%;font-family:Monotone;-inkscape-font-specification:'Monotone Thin';letter-spacing:0.5px;word-spacing:-5.24000025px;fill:none;fill-opacity:1;stroke:#f1efd6;stroke-width:0.5;stroke-linecap:butt;stroke-linejoin:miter;stroke-miterlimit:4;stroke-dasharray:none;stroke-opacity:1"
         d="m 211.30841,171.08834 0,5.96583 -3.47317,3.33199 -6.16663,0 -4.04021,-3.07812 0,-15.26364 3.79213,-3.36371 5.88311,0 4.00477,3.10985 0,5.23597 -4.81241,0 0,-3.33831 -3.689,0 0,12.236 3.689,0 0,-4.83586 z" />
    </g>
    <g
       id="g4275"
       transform="matrix(1.0005468,0,0,1.0005522,-0.28991629,-0.101219)">
      <path
         sodipodi:nodetypes="cccccccccccccccc"
         d="m 235.11872,180.38616 -13.92808,0 0,-4.37196 9.81536,-9.90795 0,-3.14158 -5.2,0 0,2.88771 -4.36728,0 0,-3.80798 3.5086,-3.36371 6.13119,0 4.04021,3.10985 0,5.96583 c -2.66839,2.9527 -2.578,2.83063 -8.3285,8.56795 l 8.3285,0 z"
         style="font-style:normal;font-variant:normal;font-weight:100;font-stretch:normal;font-size:medium;line-height:125%;font-family:Monotone;-inkscape-font-specification:'Monotone Thin';letter-spacing:0.5px;word-spacing:-5.24000025px;fill:#53241c;fill-opacity:1;stroke:#53241c;stroke-width:1px;stroke-linecap:butt;stroke-linejoin:miter;stroke-opacity:1"
         id="path4307"
         inkscape:connector-curvature="0" />
      <path
         sodipodi:nodetypes="cccccccccccccccc"
         inkscape:connector-curvature="0"
         id="path4341"
         style="font-style:normal;font-variant:normal;font-weight:100;font-stretch:normal;font-size:medium;line-height:125%;font-family:Monotone;-inkscape-font-specification:'Monotone Thin';letter-spacing:0.5px;word-spacing:-5.24000025px;fill:none;fill-opacity:1;stroke:#f1efd6;stroke-width:0.5;stroke-linecap:butt;stroke-linejoin:miter;stroke-miterlimit:4;stroke-dasharray:none;stroke-opacity:1"
         d="m 235.11872,180.38616 -13.92808,0 0,-4.37196 9.81536,-9.90795 0,-3.14158 -5.2,0 0,2.88771 -4.36728,0 0,-3.80798 3.5086,-3.36371 6.13119,0 4.04021,3.10985 0,5.96583 c -2.66839,2.9527 -2.53168,2.78159 -8.3285,8.56795 l 8.3285,0 z" />
    </g>
    <g
       transform="matrix(1.0005468,0,0,1.0005522,2.5164259,-0.101219)"
       id="g3391">
      <path
         d="m 234.72389,162.0444 3.75669,-3.36371 6.41471,0 3.75668,3.36371 0,15.00977 -3.75668,3.33199 -6.69824,0 -3.47316,-3.33199 z m 9.01604,14.27992 0,-13.35965 -4.104,0 0,13.35965 z"
         style="font-style:normal;font-variant:normal;font-weight:100;font-stretch:normal;font-size:medium;line-height:125%;font-family:Monotone;-inkscape-font-specification:'Monotone Thin';letter-spacing:0.5px;word-spacing:-5.24000025px;fill:#53241c;fill-opacity:1;stroke:#53241c;stroke-width:1px;stroke-linecap:butt;stroke-linejoin:miter;stroke-opacity:1"
         id="path4309"
         inkscape:connector-curvature="0"
         sodipodi:nodetypes="cccccccccccccc" />
      <path
         inkscape:connector-curvature="0"
         id="path4343"
         style="font-style:normal;font-variant:normal;font-weight:100;font-stretch:normal;font-size:medium;line-height:125%;font-family:Monotone;-inkscape-font-specification:'Monotone Thin';letter-spacing:0.5px;word-spacing:-5.24000025px;fill:none;fill-opacity:1;stroke:#f1efd6;stroke-width:0.5;stroke-linecap:butt;stroke-linejoin:miter;stroke-miterlimit:4;stroke-dasharray:none;stroke-opacity:1"
         d="m 234.72389,162.0444 3.75704,-3.36371 6.414,-4.9e-4 3.75704,3.3642 0,15.00977 -3.75668,3.33199 -6.69824,0 -3.47316,-3.33199 z m 9.01604,14.27992 0,-13.35965 -4.104,0 0,13.35965 z"
         sodipodi:nodetypes="cccccccccccccc" />
    </g>
    <g
       transform="matrix(1.0005468,0,0,1.0005522,1.7986786,-0.101219)"
       id="g3399">
      <path
         d="m 264.5206,180.38616 -3.5086,-3.33199 0,-15.26363 3.50895,-3.10985 6.166,0 3.75696,3.36371 0,3.55412 -5.23996,0 0,-2.85598 -3.2,0 0,4.7917 5.21488,0 3.22508,2.82425 0,6.69568 -3.47315,3.33199 z m 4.68335,-4.06184 0,-4.75997 -3.2,0 0,4.75997 z"
         style="font-style:normal;font-variant:normal;font-weight:100;font-stretch:normal;font-size:medium;line-height:125%;font-family:Monotone;-inkscape-font-specification:'Monotone Thin';letter-spacing:0.5px;word-spacing:-5.24000025px;fill:#53241c;fill-opacity:1;stroke:#53241c;stroke-width:1px;stroke-linecap:butt;stroke-linejoin:miter;stroke-opacity:1"
         id="path4313"
         inkscape:connector-curvature="0"
         sodipodi:nodetypes="ccccccccccccccccccccc" />
      <path
         inkscape:connector-curvature="0"
         id="path4347"
         style="font-style:normal;font-variant:normal;font-weight:100;font-stretch:normal;font-size:medium;line-height:125%;font-family:Monotone;-inkscape-font-specification:'Monotone Thin';letter-spacing:0.5px;word-spacing:-5.24000025px;fill:none;fill-opacity:1;stroke:#f1efd6;stroke-width:0.5;stroke-linecap:butt;stroke-linejoin:miter;stroke-miterlimit:4;stroke-dasharray:none;stroke-opacity:1"
         d="m 264.5206,180.38616 -3.5086,-3.33199 0,-15.26363 3.5086,-3.10985 6.16663,0 3.75668,3.36371 0,3.55412 -5.23998,0 4e-5,-2.85598 -3.20002,0 0,4.7917 5.21488,0 3.22508,2.82425 0,6.69568 -3.47315,3.33199 z m 4.68333,-4.06184 0,-4.75997 -3.19998,0 0,4.75997 z"
         sodipodi:nodetypes="ccccccccccccccccccccc" />
    </g>
    <g
       id="g4264"
       transform="matrix(1.0005468,0,0,1.0005522,-0.0106343,-0.101219)">
      <g
         id="g3407"
         transform="matrix(1.3237323,0,0,1.0944529,-69.177493,-16.305513)">
        <g
           id="text4337"
           style="font-style:normal;font-variant:normal;font-weight:100;font-stretch:normal;font-size:29.72056198px;line-height:125%;font-family:Monotone;-inkscape-font-specification:'Monotone Thin';letter-spacing:0px;word-spacing:0px;display:inline;fill:none;fill-opacity:1;stroke:#f1efd6;stroke-width:0.5;stroke-linecap:butt;stroke-linejoin:miter;stroke-miterlimit:4;stroke-dasharray:none;stroke-opacity:1"
           transform="scale(0.71531697,1.3979817)">
          <path
             inkscape:connector-curvature="0"
             id="path3441"
             d="m 298.37407,119.92738 5.46859,0 0,2.64513 -5.46859,0 0,-2.64513 z" />
        </g>
        <g
           id="text3371"
           style="font-style:normal;font-variant:normal;font-weight:100;font-stretch:normal;font-size:29.72056198px;line-height:125%;font-family:Monotone;-inkscape-font-specification:'Monotone Thin';letter-spacing:0px;word-spacing:0px;display:inline;fill:#53241c;fill-opacity:1;stroke:#53241c;stroke-width:1px;stroke-linecap:butt;stroke-linejoin:miter;stroke-opacity:1"
           transform="scale(0.71531697,1.3979817)">
          <path
             sodipodi:nodetypes="ccccc"
             inkscape:connector-curvature="0"
             id="path3444"
             d="m 298.37407,119.92738 5.46909,-1.2e-4 -5e-4,2.64525 -5.46859,0 z" />
        </g>
      </g>
      <g
         id="g3448"
         style="font-style:normal;font-variant:normal;font-weight:100;font-stretch:normal;font-size:29.72056198px;line-height:125%;font-family:Monotone;-inkscape-font-specification:'Monotone Thin';letter-spacing:0px;word-spacing:0px;display:inline;fill:none;fill-opacity:1;stroke:#f1efd6;stroke-width:0.41540468;stroke-linecap:butt;stroke-linejoin:miter;stroke-miterlimit:4;stroke-dasharray:none;stroke-opacity:1"
         transform="matrix(0.94688818,0,0,1.5300251,-69.177493,-16.305513)">
        <path
           inkscape:connector-curvature="0"
           id="path3450"
           d="m 298.37407,119.92738 5.46859,0 0,2.64513 -5.46859,0 0,-2.64513 z"
           style="stroke:#f1efd6;stroke-width:0.41540468;stroke-miterlimit:4;stroke-dasharray:none;stroke-opacity:1" />
      </g>
      <g
         id="g3452"
         style="font-style:normal;font-variant:normal;font-weight:100;font-stretch:normal;font-size:29.72056198px;line-height:125%;font-family:Monotone;-inkscape-font-specification:'Monotone Thin';letter-spacing:0px;word-spacing:0px;display:inline;fill:#53241c;fill-opacity:1;stroke:#f1efd6;stroke-width:0.41540468;stroke-linecap:butt;stroke-linejoin:miter;stroke-miterlimit:4;stroke-dasharray:none;stroke-opacity:1"
         transform="matrix(0.94688818,0,0,1.5300251,-69.177493,-16.305513)">
        <path
           sodipodi:nodetypes="ccccc"
           inkscape:connector-curvature="0"
           id="path3454"
           d="m 298.37407,119.92738 5.46909,-1.2e-4 -5e-4,2.64525 -5.46859,0 z"
           style="stroke:#f1efd6;stroke-width:0.41540468;stroke-miterlimit:4;stroke-dasharray:none;stroke-opacity:1" />
      </g>
    </g>
  </g>
  <g
     inkscape:groupmode="layer"
     id="layer2"
     inkscape:label="SD2IEC"
     style="display:inline"
     transform="translate(-142.22134,-71.810416)"
     sodipodi:insensitive="true">
    <g
       style="display:inline"
       transform="matrix(0.15479123,-0.04147641,0.04147619,0.15479207,492.89266,93.227066)"
       id="g4146">
      <path
         inkscape:connector-curvature="0"
         id="path47793"
         d="m 387.57839,216.83073 2.31445,-2.17432 0,-42.56004 0,-42.56004 -11.23369,-11.26564 -11.23369,-11.26565 -67.95186,0 -67.95186,0 -2.31445,2.17431 -2.31445,2.17432 0,51.51123 0,51.51124 2.17431,2.31445 2.17432,2.31445 77.01123,0 77.01124,0 2.31445,-2.17431 z"
         style="fill:#53241c;fill-opacity:1" />
      <path
         inkscape:connector-curvature="0"
         id="path47791"
         d="m 235.89284,205.50504 0,-4.5 4.5,0 4.5,0 0,-12.5 0,-12.5 -4.5,0 -4.5,0 0,-4.5 0,-4.5 13,0 13,0 0,4.5 0,4.5 -4.5,0 -4.5,0 0,12.5 0,12.5 4.5,0 4.5,0 0,4.5 0,4.5 -13,0 -13,0 0,-4.5 z"
         style="fill:#f1efd6;fill-opacity:1" />
      <path
         inkscape:connector-curvature="0"
         id="path47789"
         d="m 278.89284,205.50504 0,-4.5 -4.5,0 -4.5,0 0,-12.5 0,-12.5 4.5,0 4.5,0 0,-4.5 0,-4.5 8.5,0 8.5,0 0,4.5 0,4.5 -8.5,0 -8.5,0 0,4 0,4 4,0 4,0 0,4.5 0,4.5 -4,0 -4,0 0,4 0,4 8.5,0 8.5,0 0,4.5 0,4.5 -8.5,0 -8.5,0 0,-4.5 z"
         style="fill:#f1efd6;fill-opacity:1" />
      <path
         inkscape:connector-curvature="0"
         id="path47787"
         d="m 312.89284,205.50504 0,-4.5 -4.5,0 -4.5,0 0,-12.5 0,-12.5 4.5,0 4.5,0 0,-4.5 0,-4.5 8.5,0 8.5,0 0,4.5 0,4.5 -8.5,0 -8.5,0 0,12.5 0,12.5 8.5,0 8.5,0 0,4.5 0,4.5 -8.5,0 -8.5,0 0,-4.5 z"
         style="fill:#f1efd6;fill-opacity:1" />
      <path
         inkscape:connector-curvature="0"
         id="path47785"
         d="m 346.89284,205.50504 0,-4.5 17,0 17,0 0,4.5 0,4.5 -17,0 -17,0 0,-4.5 z"
         style="fill:#d0ab65;fill-opacity:1" />
      <path
         inkscape:connector-curvature="0"
         id="path47783"
         d="m 346.89284,188.50504 0,-4.5 17,0 17,0 0,4.5 0,4.5 -17,0 -17,0 0,-4.5 z"
         style="fill:#d0ab65;fill-opacity:1" />
      <path
         inkscape:connector-curvature="0"
         id="path47781"
         d="m 346.89284,171.50504 0,-4.5 17,0 17,0 0,4.5 0,4.5 -17,0 -17,0 0,-4.5 z"
         style="fill:#d0ab65;fill-opacity:1" />
      <path
         inkscape:connector-curvature="0"
         id="path47779"
         d="m 235.89284,154.50504 0,-4.5 8.5,0 8.5,0 0,-4 0,-4 -8.5,0 -8.5,0 0,-8.5 0,-8.5 4.5,0 4.5,0 0,-4.5 0,-4.5 8.5,0 8.5,0 0,4.5 0,4.5 -8.5,0 -8.5,0 0,4 0,4 8.5,0 8.5,0 0,8.5 0,8.5 -4.5,0 -4.5,0 0,4.5 0,4.5 -8.5,0 -8.5,0 0,-4.5 z"
         style="fill:#f1efd6;fill-opacity:1" />
      <path
         inkscape:connector-curvature="0"
         id="path47777"
         d="m 269.89258,116.00586 0,21.5 0,21.5 8.5,0 8.5,0 0,-4.5 0,-4.5 -4,0 -4,0 0,-12.5 0,-12.5 4,0 4,0 0,-4.5 0,-4.5 -8.5,0 -8.5,0 z m 17,9 0,12.5 0,12.5 4.5,0 4.5,0 0,-12.5 0,-12.5 -4.5,0 -4.5,0 z"
         style="fill:#f1efd6;fill-opacity:1" />
      <path
         inkscape:connector-curvature="0"
         id="path47773"
         d="m 303.89284,146.00504 0,-13 8.5,0 8.5,0 0,-4 0,-4 -8.5,0 -8.5,0 0,-4.5 0,-4.5 8.5,0 8.5,0 0,4 0,4 4.5,0 4.5,0 0,9 0,9 -8.5,0 -8.5,0 0,4 0,4 8.5,0 8.5,0 0,4.5 0,4.5 -13,0 -13,0 0,-13 z"
         style="fill:#f1efd6;fill-opacity:1" />
      <path
         inkscape:connector-curvature="0"
         id="path47771"
         d="m 346.89284,154.50504 0,-4.5 17,0 17,0 0,4.5 0,4.5 -17,0 -17,0 0,-4.5 z"
         style="fill:#d0ab65;fill-opacity:1" />
      <path
         inkscape:connector-curvature="0"
         id="path47769"
         d="m 346.89284,137.50504 0,-4.5 17,0 17,0 0,4.5 0,4.5 -17,0 -17,0 0,-4.5 z"
         style="fill:#d0ab65;fill-opacity:1" />
      <path
         inkscape:connector-curvature="0"
         id="path47765"
         d="m 337.89284,120.50504 0,-4.5 13,0 13,0 0,4.5 0,4.5 -13,0 -13,0 0,-4.5 z"
         style="fill:#d0ab65;fill-opacity:1" />
    </g>
  </g>
  <g
     transform="translate(-24.186614,-20.538382)"
     inkscape:label="Cutouts"
     id="g4740"
     inkscape:groupmode="layer"
     style="display:inline">
    <path
       style="color:#000000;display:inline;overflow:visible;visibility:visible;opacity:1;fill:#000000;fill-opacity:1;fill-rule:nonzero;stroke:none;stroke-width:0.1;stroke-linecap:square;stroke-linejoin:miter;stroke-miterlimit:4;stroke-dasharray:none;stroke-dashoffset:0;stroke-opacity:1;marker:none;enable-background:accumulate"
       d="m 95.052756,20.538382 0,37.205078 28.167644,0 0,9.212891 15.94531,0 0,-9.212891 28.17051,0 0,-37.205078 -28.17051,0 -15.94531,0 z"
       id="rect4748"
       inkscape:connector-curvature="0"
       sodipodi:nodetypes="ccccccccccc" />
    <path
       style="color:#000000;display:inline;overflow:visible;visibility:visible;opacity:1;fill:#000000;fill-opacity:1;fill-rule:nonzero;stroke:none;stroke-width:0.1;stroke-linecap:square;stroke-linejoin:miter;stroke-miterlimit:4;stroke-dasharray:none;stroke-dashoffset:0;stroke-opacity:1;marker:none;enable-background:accumulate"
       d="m 288.34016,20.539028 0,37.20456 28.1696,0 0,9.212763 15.94531,0 0,-9.212763 28.16855,0 0,-37.20456 -28.16855,0 -15.94531,0 z"
       id="rect4769"
       inkscape:connector-curvature="0"
       sodipodi:nodetypes="ccccccccccc" />
    <g
       id="g4924">
      <path
         id="path4777"
         transform="translate(24.186614,20.538382)"
         d="M 4.4296875 29.232422 A 5.3149605 5.3149605 0 0 0 0 31.617188 L 0 37.478516 A 5.3149605 5.3149605 0 0 0 4.4296875 39.861328 A 5.3149605 5.3149605 0 0 0 9.7441406 34.546875 A 5.3149605 5.3149605 0 0 0 4.4296875 29.232422 z "
         style="color:#000000;display:inline;overflow:visible;visibility:visible;opacity:1;fill:#000000;fill-opacity:1;fill-rule:nonzero;stroke:none;stroke-width:0.1;stroke-linecap:square;stroke-linejoin:miter;stroke-miterlimit:0;stroke-dasharray:none;stroke-dashoffset:0;stroke-opacity:1;marker:none;enable-background:accumulate" />
      <path
         id="circle4782"
         transform="translate(24.186614,20.538382)"
         d="M 4.4296875 46.949219 A 5.3149605 5.3149605 0 0 0 0 49.333984 L 0 55.195312 A 5.3149605 5.3149605 0 0 0 4.4296875 57.578125 A 5.3149605 5.3149605 0 0 0 9.7441406 52.263672 A 5.3149605 5.3149605 0 0 0 4.4296875 46.949219 z "
         style="color:#000000;display:inline;overflow:visible;visibility:visible;opacity:1;fill:#000000;fill-opacity:1;fill-rule:nonzero;stroke:none;stroke-width:0.1;stroke-linecap:square;stroke-linejoin:miter;stroke-miterlimit:0;stroke-dasharray:none;stroke-dashoffset:0;stroke-opacity:1;marker:none;enable-background:accumulate" />
    </g>
    <rect
       style="color:#000000;display:inline;overflow:visible;visibility:visible;opacity:1;fill:#000000;fill-opacity:1;fill-rule:nonzero;stroke:none;stroke-width:0.1;stroke-linecap:square;stroke-linejoin:miter;stroke-miterlimit:0;stroke-dasharray:none;stroke-dashoffset:0;stroke-opacity:1;marker:none;enable-background:accumulate"
       id="rect4786"
       width="28.346457"
       height="37.204723"
       x="104.79685"
       y="185.30215" />
  </g>
</svg>
