<?xml version="1.0" encoding="UTF-8" standalone="no"?>
<!-- Created with Inkscape (http://www.inkscape.org/) -->

<svg
   xmlns:dc="http://purl.org/dc/elements/1.1/"
   xmlns:cc="http://creativecommons.org/ns#"
   xmlns:rdf="http://www.w3.org/1999/02/22-rdf-syntax-ns#"
   xmlns:svg="http://www.w3.org/2000/svg"
   xmlns="http://www.w3.org/2000/svg"
   xmlns:sodipodi="http://sodipodi.sourceforge.net/DTD/sodipodi-0.dtd"
   xmlns:inkscape="http://www.inkscape.org/namespaces/inkscape"
   width="127.50001mm"
   height="62.93mm"
   viewBox="0 0 451.77168 222.98031"
   id="svg2"
   version="1.1"
   inkscape:version="0.91 r13725"
   sodipodi:docname="Test.svg"
   inkscape:export-filename="C:\Users\heather\Desktop\Projects\Final Expansion 3\Label\FE3 Rev 11.png"
   inkscape:export-xdpi="600"
   inkscape:export-ydpi="600">
  <defs
     id="defs4">
    <inkscape:path-effect
       effect="spiro"
       id="path-effect4222"
       is_visible="true" />
  </defs>
  <sodipodi:namedview
     id="base"
     pagecolor="#ffffff"
     bordercolor="#666666"
     borderopacity="1.0"
     inkscape:pageopacity="0.0"
     inkscape:pageshadow="2"
     inkscape:zoom="3.3866665"
     inkscape:cx="225.88584"
     inkscape:cy="111.49016"
     inkscape:document-units="px"
     inkscape:current-layer="layer3"
     showgrid="false"
     inkscape:window-width="1920"
     inkscape:window-height="1137"
     inkscape:window-x="-8"
     inkscape:window-y="-8"
     inkscape:window-maximized="1"
     inkscape:snap-tangential="true"
     inkscape:snap-path-clip="true"
     inkscape:snap-path-mask="true"
     objecttolerance="20"
     inkscape:snap-perpendicular="true"
     inkscape:snap-bbox="false"
     inkscape:object-paths="true"
     inkscape:snap-nodes="true"
     inkscape:snap-intersection-paths="true"
     inkscape:object-nodes="true"
     inkscape:snap-smooth-nodes="true"
     inkscape:snap-midpoints="true"
     inkscape:snap-text-baseline="true"
     inkscape:snap-center="false"
     inkscape:snap-object-midpoints="false"
     inkscape:snap-others="true"
     fit-margin-top="0"
     fit-margin-left="0"
     fit-margin-right="0"
     fit-margin-bottom="0" />
  <metadata
     id="metadata7">
    <rdf:RDF>
      <cc:Work
         rdf:about="">
        <dc:format>image/svg+xml</dc:format>
        <dc:type
           rdf:resource="http://purl.org/dc/dcmitype/StillImage" />
        <dc:title></dc:title>
      </cc:Work>
    </rdf:RDF>
  </metadata>
  <g
     inkscape:groupmode="layer"
     id="layer3"
     inkscape:label="Label"
     transform="translate(-24.186614,-20.538382)"
     style="display:inline">
    <path
       style="color:#000000;display:inline;overflow:visible;visibility:visible;opacity:1;fill:#f1efd6;fill-opacity:1;fill-rule:nonzero;stroke:none;stroke-width:6.00199986;stroke-linecap:square;stroke-linejoin:round;stroke-miterlimit:0;stroke-dasharray:none;stroke-dashoffset:0;stroke-opacity:1;marker:none;enable-background:accumulate"
       d="M 0 0 L 0 31.617188 A 5.3149605 5.3149605 0 0 1 4.4296875 29.232422 A 5.3149605 5.3149605 0 0 1 9.7441406 34.546875 A 5.3149605 5.3149605 0 0 1 4.4296875 39.861328 A 5.3149605 5.3149605 0 0 1 0 37.478516 L 0 49.333984 A 5.3149605 5.3149605 0 0 1 4.4296875 46.949219 A 5.3149605 5.3149605 0 0 1 9.7441406 52.263672 A 5.3149605 5.3149605 0 0 1 4.4296875 57.578125 A 5.3149605 5.3149605 0 0 1 0 55.195312 L 0 153.51367 L 3.3300781 222.98047 L 448.44336 222.98047 L 451.77148 153.51367 L 451.77148 0 L 336.4375 0 L 336.4375 37.205078 L 308.26758 37.205078 L 308.26758 46.417969 L 292.32227 46.417969 L 292.32227 37.205078 L 264.1543 37.205078 L 264.1543 0 L 143.15039 0 L 143.15039 37.205078 L 114.97852 37.205078 L 114.97852 46.417969 L 99.033203 46.417969 L 99.033203 37.205078 L 70.865234 37.205078 L 70.865234 0 L 0 0 z "
       transform="translate(24.186614,20.538382)"
       id="rect4230" />
    <flowRoot
       xml:space="preserve"
       id="flowRoot4644"
       style="display:inline;font-style:normal;font-variant:normal;font-weight:100;font-stretch:normal;font-size:50px;line-height:125%;font-family:Monotone;-inkscape-font-specification:'Monotone Thin';letter-spacing:0px;word-spacing:0px;fill:#000000;fill-opacity:1;stroke:none;stroke-width:1px;stroke-linecap:butt;stroke-linejoin:miter;stroke-opacity:1"
       transform="matrix(0.42542495,0,0,0.83143488,-31.812944,-2.322466)"><flowRegion
         id="flowRegion4646"><rect
           id="rect4648"
           width="272.16711"
           height="72.384865"
           x="312.70264"
           y="84.335251"
           style="font-style:normal;font-variant:normal;font-weight:100;font-stretch:normal;font-size:50px;font-family:Monotone;-inkscape-font-specification:'Monotone Thin'" /></flowRegion><flowPara
         id="flowPara4650" /></flowRoot>    <path
       transform="translate(-118.03473,-51.272034)"
       style="display:inline;color:#000000;overflow:visible;visibility:visible;opacity:1;fill:#d0ab65;fill-opacity:1;fill-rule:nonzero;stroke:none;stroke-width:6.00199986;stroke-linecap:square;stroke-linejoin:round;stroke-miterlimit:0;stroke-dasharray:none;stroke-dashoffset:0;stroke-opacity:1;marker:none;enable-background:accumulate"
       d="m 169.02697,131.02234 278.71533,10e-6 -20.23635,21.96212 -258.47903,3.8e-4 z"
       id="rect4190"
       inkscape:connector-curvature="0"
       sodipodi:nodetypes="ccccc" />
    <path
       transform="translate(-118.03473,-51.272034)"
       sodipodi:nodetypes="ccccc"
       inkscape:connector-curvature="0"
       id="path4197"
       d="m 567.18766,270.35077 -250.91721,4.7e-4 23.40367,-25.28295 227.51359,0 z"
       style="display:inline;color:#000000;overflow:visible;visibility:visible;opacity:1;fill:#d0ab65;fill-opacity:1;fill-rule:nonzero;stroke:none;stroke-width:6.00199986;stroke-linecap:square;stroke-linejoin:round;stroke-miterlimit:0;stroke-dasharray:none;stroke-dashoffset:0;stroke-opacity:1;marker:none;enable-background:accumulate" />
    <path
       transform="translate(-118.03473,-51.272034)"
       style="display:inline;color:#000000;overflow:visible;visibility:visible;opacity:1;fill:#53241c;fill-opacity:1;fill-rule:nonzero;stroke:none;stroke-width:6.00199986;stroke-linecap:square;stroke-linejoin:round;stroke-miterlimit:0;stroke-dasharray:none;stroke-dashoffset:0;stroke-opacity:1;marker:none;enable-background:accumulate"
       d="m 310.57672,217.00298 0,10.70512 -110.47175,0 29.03587,31.01712 81.43588,0 0,10.70709 24.15382,-26.21565 z"
       id="rect4199"
       inkscape:connector-curvature="0"
       sodipodi:nodetypes="cccccccc" />
    <path
       transform="translate(-118.03473,-51.272034)"
       sodipodi:nodetypes="cccccccc"
       inkscape:connector-curvature="0"
       id="path4206"
       d="m 279.49811,183.92785 0,10.70511 -110.47113,0 29.03487,31.01712 81.43626,0 0,10.70709 24.15382,-26.21565 z"
       style="display:inline;color:#000000;overflow:visible;visibility:visible;opacity:1;fill:#53241c;fill-opacity:1;fill-rule:nonzero;stroke:none;stroke-width:6.00199986;stroke-linecap:square;stroke-linejoin:round;stroke-miterlimit:0;stroke-dasharray:none;stroke-dashoffset:0;stroke-opacity:1;marker:none;enable-background:accumulate" />
    <path
       transform="translate(-118.03473,-51.272034)"
       sodipodi:nodetypes="cccccccc"
       inkscape:connector-curvature="0"
       id="path4228"
       d="m 263.31312,201.49442 0,10.70512 -110.47098,0 29.03487,31.01712 81.43611,0 0,10.70709 24.15382,-26.21565 z"
       style="display:inline;color:#000000;overflow:visible;visibility:visible;opacity:1;fill:#f1efd6;fill-opacity:1;fill-rule:nonzero;stroke:none;stroke-width:6.00199986;stroke-linecap:square;stroke-linejoin:round;stroke-miterlimit:0;stroke-dasharray:none;stroke-dashoffset:0;stroke-opacity:1;marker:none;enable-background:accumulate" />
    <path
       transform="translate(-118.03473,-51.272034)"
       style="display:inline;color:#000000;font-style:normal;font-variant:normal;font-weight:normal;font-stretch:normal;font-size:medium;line-height:normal;font-family:sans-serif;text-indent:0;text-align:start;text-decoration:none;text-decoration-line:none;text-decoration-style:solid;text-decoration-color:#000000;letter-spacing:normal;word-spacing:normal;text-transform:none;direction:ltr;block-progression:tb;writing-mode:lr-tb;baseline-shift:baseline;text-anchor:start;white-space:normal;clip-rule:nonzero;overflow:visible;visibility:visible;opacity:1;isolation:auto;mix-blend-mode:normal;color-interpolation:sRGB;color-interpolation-filters:linearRGB;solid-color:#000000;solid-opacity:1;fill:#53241c;fill-opacity:1;fill-rule:nonzero;stroke:none;stroke-width:6.00199986;stroke-linecap:square;stroke-linejoin:round;stroke-miterlimit:0;stroke-dasharray:none;stroke-dashoffset:0;stroke-opacity:1;marker:none;color-rendering:auto;image-rendering:auto;shape-rendering:auto;text-rendering:auto;enable-background:accumulate"
       d="m 170.41874,125.01703 c -3.48705,0 -7.39727,3.91001 -7.39727,7.39709 l 0,136.54535 c 0,3.48684 3.91046,7.39609 7.39727,7.39609 l 395.37708,0 c 3.48676,0 7.39707,-3.9093 7.39707,-7.39609 l 0,-136.54535 c 0,-3.48712 -3.90998,-7.39746 -7.39707,-7.39746 z m -1.39176,6.00532 398.16068,-4.2e-4 0,139.32884 -398.16096,0 z"
       id="rect3373"
       inkscape:connector-curvature="0"
       sodipodi:nodetypes="cccccccccccccc" />
    <g
       transform="matrix(0.91981689,-0.39234317,0.39234105,0.91982185,-118.03473,-51.272034)"
       style="display:inline;opacity:1;font-style:normal;font-variant:normal;font-weight:normal;font-stretch:normal;font-size:143.82899475px;line-height:125%;font-family:Calibri;-inkscape-font-specification:Calibri;letter-spacing:0px;word-spacing:0px;fill:#d0ab65;fill-opacity:1;stroke:none;stroke-width:1px;stroke-linecap:butt;stroke-linejoin:miter;stroke-opacity:1"
       id="text4243">
      <path
         d="m 430.7906,347.37915 q 0.28766,2.01361 0.28766,3.16424 0,6.4723 -4.60253,12.51312 -4.4587,5.89699 -14.09524,11.07483 14.95821,6.47231 16.54033,17.40331 0.14383,1.0068 0.14383,2.73275 0,6.47231 -5.17784,13.23227 -3.4519,4.60253 -14.52673,14.67056 l -40.84744,0 q 29.05346,-24.88242 27.90283,-32.79301 -0.71915,-4.60253 -5.17784,-8.19826 -4.4587,-3.59572 -15.38971,-8.48591 14.81439,-8.77357 20.42372,-14.23907 5.60933,-5.4655 5.60933,-10.78717 0,-1.29446 -0.14383,-2.01361 -0.86297,-7.04762 -9.34888,-20.8552 l -1.15063,27.90282 -25.31391,0 -0.43148,-37.39554 27.03985,0 -0.28766,6.9038 26.3207,0 q 2.30127,2.87658 6.18465,9.78037 5.17785,9.49271 6.04082,15.3897 z"
         style="font-style:normal;font-variant:normal;font-weight:100;font-stretch:normal;font-size:143.82899475px;font-family:BaccaratUpright;-inkscape-font-specification:'BaccaratUpright Thin';fill:#d0ab65;fill-opacity:1"
         id="path4229" />
    </g>
    <g
       transform="matrix(0.98758525,0,-0.14762469,1.0125708,-118.03473,-51.272034)"
       style="display:inline;opacity:1;font-style:normal;font-variant:normal;font-weight:100;font-stretch:normal;font-size:32.85554504px;line-height:125%;font-family:BaccaratUpright;-inkscape-font-specification:'BaccaratUpright Thin';letter-spacing:-0.04002198px;word-spacing:-1.63089561px;fill:#53241c;fill-opacity:1;stroke:none;stroke-width:1px;stroke-linecap:butt;stroke-linejoin:miter;stroke-opacity:1"
       id="text4652">
      <path
         d="m 357.39773,183.18147 -0.0329,4.86262 -5.42116,0.19714 -0.26285,6.24255 5.51973,0 -0.0657,3.8441 -5.55258,0.42712 -0.19714,8.04961 -5.914,0 -0.36141,-17.11774 5.05976,-1.31422 -5.97971,0.13142 0.45998,-5.3226 12.74795,0 z"
         style=""
         id="path4232" />
      <path
         d="m 367.4269,183.6086 -0.36141,23.19601 -5.84829,0 -0.91995,-23.19601 7.12965,0 z"
         style=""
         id="path4234" />
      <path
         d="m 388.74247,183.18147 -0.26284,23.59029 -6.99823,0.62425 -4.04124,-16.52634 0.0986,15.93494 -5.0269,0 -1.57706,-22.2432 8.9367,0 3.94267,17.18345 -1.05138,-19.35192 5.97971,0.78853 z"
         style=""
         id="path4236" />
      <path
         d="m 406.9188,182.39294 1.54421,24.41167 -6.11113,0 -0.49284,-5.28974 -3.61411,0.5914 -0.49283,4.69834 -5.35545,0 0.8871,-22.2432 6.80109,0 -1.51135,14.09503 2.957,0 -1.67564,-16.2635 7.06395,0 z"
         style=""
         id="path4238" />
      <path
         d="m 425.69033,202.82909 -0.0986,3.97552 -11.53229,0 -0.85425,-23.62314 6.96538,0 -0.26284,19.5162 5.78257,0.13142 z"
         style=""
         id="path4240" />
      <path
         d="m 448.55997,183.18147 -0.0329,4.86262 -5.42116,0.19714 -0.0986,5.25689 5.48687,0 -0.0986,3.84409 -5.55259,0.26285 -0.0657,5.0269 5.58544,0.26284 -0.0657,3.90981 -11.23659,0 q -0.0657,-0.16428 -0.0986,-0.2957 -0.0657,-0.26284 -0.0657,-0.49283 -0.32856,-1.93848 -0.55855,-4.7312 -0.19713,-2.79272 -0.19713,-5.6183 0,-3.51554 0.36141,-5.94685 l 4.92833,-1.34708 -6.07827,0.13142 0.45997,-5.3226 12.74796,0 z"
         style=""
         id="path4242" />
      <path
         d="m 468.03614,182.39294 -5.51974,12.51796 5.88115,11.89371 -6.34112,0 -2.89129,-5.6183 -2.52988,5.6183 -4.79691,0 4.53407,-11.07232 -5.81543,-11.17088 6.76824,0 2.33274,4.63263 2.56273,-6.8011 5.81544,0 z"
         style=""
         id="path4244" />
      <path
         d="m 486.84339,187.94553 q 0.0986,0.65711 0.0986,1.31422 0,1.57707 -0.49284,3.58125 -0.36141,1.44565 -1.21565,3.77839 -0.52569,1.41279 -1.41279,3.58126 l -6.5054,0 q 1.37994,-3.08842 2.00419,-4.96119 0.85425,-2.59559 0.85425,-4.56692 0,-0.72282 -0.0986,-1.4785 -0.2957,-1.90562 -2.00419,-3.21984 -1.34708,-1.05138 -5.09261,-2.79273 l 7.88533,-1.64277 q 3.05557,1.7742 4.23837,2.98985 1.44564,1.44565 1.74134,3.41698 z m -9.52811,-2.16847 -0.36141,21.02755 -5.68401,0 -0.75568,-21.02755 6.8011,0 z"
         style=""
         id="path4246" />
      <path
         d="m 504.24144,182.39294 1.54421,24.41167 -6.11113,0 -0.49283,-5.28974 -3.61411,0.5914 -0.49284,4.69834 -5.35545,0 0.8871,-22.2432 6.8011,0 -1.51136,14.09503 2.957,0 -1.67563,-16.2635 7.06394,0 z"
         style=""
         id="path4248" />
      <path
         d="m 526.79783,183.18147 -0.26284,23.59029 -6.99823,0.62425 -4.04123,-16.52634 0.0986,15.93494 -5.0269,0 -1.57706,-22.2432 8.93671,0 3.94266,17.18345 -1.05138,-19.35192 5.97971,0.78853 z"
         style=""
         id="path4250" />
      <path
         d="m 544.80987,182.39294 -0.36141,8.67387 -5.55258,0 0,-8.67387 5.91399,0 z m -1.24851,16.62491 q 0.0329,0.22999 0.0329,0.65711 0,1.57706 -0.98567,3.5484 -1.1828,2.33274 -2.43131,3.58125 l -9.16669,0 1.80705,-1.93848 q 1.57707,-1.67563 2.33274,-2.82557 0.78854,-1.1828 0.78854,-2.23418 0,-0.22999 -0.0657,-0.52569 -0.0657,-0.32855 -3.8441,-4.1398 -1.70849,-1.74134 -2.00419,-3.64696 -0.0986,-0.55855 -0.0986,-1.05138 0,-0.95281 0.2957,-2.00419 0.2957,-1.05138 1.44565,-3.87695 l 6.99823,0 q -0.52569,1.11709 -0.91996,2.26703 -0.5914,1.70849 -0.5914,2.85843 0,0.22999 0.0657,0.68997 0.19714,1.37993 4.20551,5.12546 1.87277,1.74135 2.13561,3.51555 z"
         style=""
         id="path4252" />
      <path
         d="m 554.70969,183.6086 -0.36142,23.19601 -5.84828,0 -0.91996,-23.19601 7.12966,0 z"
         style=""
         id="path4254" />
      <path
         d="m 575.66384,191.16537 q 0.0986,0.55855 0.13142,1.41279 0.0329,0.85424 0.0329,0.98567 0,3.21984 -1.08424,6.63682 -1.08423,3.38412 -3.05556,6.60396 l -9.29812,0 q -2.13561,-2.957 -3.08842,-4.96119 -0.91996,-2.00418 -1.14995,-3.41697 -0.22998,-1.44565 -0.22998,-2.6613 0,-2.29989 0.62425,-4.7312 0.52569,-2.00419 1.54421,-4.33693 l 5.78258,0 q -1.21566,-1.05138 -2.33275,-1.90562 -1.08423,-0.8871 -2.20132,-1.60993 l 8.2796,-1.1828 q 2.59559,2.10276 4.04123,4.23837 1.57707,2.33274 2.00419,4.92833 z m -6.99823,0.8871 q -0.2957,-1.74134 -0.95281,-3.02271 -0.45998,-0.91995 -1.54421,-2.16846 -0.62426,2.62844 -0.85425,4.13979 -0.39426,2.59559 -0.39426,4.4355 0,1.34708 0.0329,1.90562 0.0657,0.55855 0.22999,1.7742 0.19713,1.1828 0.5914,2.56274 0.52569,1.83991 1.28137,3.5484 0.91995,-2.56274 1.37993,-5.05976 0.49283,-2.52988 0.49283,-4.86262 0,-1.51135 -0.26284,-3.2527 z"
         style=""
         id="path4256" />
      <path
         d="m 596.71246,183.18147 -0.26284,23.59029 -6.99823,0.62425 -4.04124,-16.52634 0.0986,15.93494 -5.0269,0 -1.57706,-22.2432 8.9367,0 3.94267,17.18345 -1.05138,-19.35192 5.97971,0.78853 z"
         style=""
         id="path4258" />
    </g>
    <g
       transform="matrix(1.2087987,0,0,0.82726761,-118.03473,-51.272034)"
       style="display:inline;opacity:1;font-style:normal;font-variant:normal;font-weight:100;font-stretch:normal;font-size:17.06959915px;line-height:125%;font-family:Eurostile-Black-DTC;-inkscape-font-specification:'Eurostile-Black-DTC Thin';letter-spacing:-0.66413939px;word-spacing:-0.41071779px;fill:#53241c;fill-opacity:1;stroke:none;stroke-width:1px;stroke-linecap:butt;stroke-linejoin:miter;stroke-opacity:1"
       id="text3387">
      <path
         d="m 154.04127,165.96105 0,2.18491 -5.59883,0 0,2.18491 q 0.49502,-0.5633 1.04125,-0.68278 0.54622,-0.11949 1.26315,-0.11949 2.04835,0 2.9189,0.81934 0.88762,0.80227 0.88762,2.90183 l 0,0.35846 q 0,0.1707 0,0.32433 0,0.15362 -0.0171,0.30725 -0.0171,0.59744 -0.1707,1.16073 -0.13655,0.54623 -0.56329,0.99004 -0.52916,0.52916 -1.24609,0.73399 -0.71692,0.20484 -1.46798,0.25605 -0.29018,0.0171 -0.58037,0.0171 -0.29018,0.0171 -0.58036,0.0171 -0.25605,0 -0.51209,0 -0.25605,0 -0.51209,-0.0171 -0.81934,-0.0512 -1.5704,-0.27312 -0.75107,-0.23897 -1.26315,-0.90469 -0.27312,-0.34139 -0.37553,-0.75106 -0.0854,-0.42674 -0.11949,-0.87055 -0.0171,-0.11949 -0.0171,-0.23897 0,-0.11949 -0.0171,-0.23898 0,-0.0171 0,-0.0341 0,-0.0341 0,-0.0512 l 2.90183,-0.0171 q 0.0854,0.63158 0.35846,0.83641 0.29019,0.18777 0.87055,0.18777 1.33143,0 1.65575,-0.27311 0.32433,-0.27312 0.32433,-1.5192 0,-1.05831 -0.35847,-1.26315 -0.34139,-0.20483 -1.33142,-0.20483 -0.0853,0 -0.18777,0 -0.0853,0 -0.1707,0 -0.18776,0 -0.37553,0.0171 -0.17069,0.0171 -0.34139,0.0512 -0.2219,0.0512 -0.32432,0.18776 -0.0853,0.11949 -0.11949,0.30725 l -2.64579,-0.0171 0,-6.36696 8.24462,0 0,0 z"
         style=""
         id="path4261" />
      <path
         d="m 163.06626,165.94398 0,11.38543 -2.93597,0 0,-8.68843 -2.98718,2.67993 -1.70696,-1.92887 4.14791,-3.44806 3.4822,0 0,0 z"
         style=""
         id="path4263" />
      <path
         d="m 175.0955,174.95673 0,2.37268 -8.96154,0 0,-2.57751 q 0,-2.01422 1.00711,-2.61165 1.02418,-0.61451 2.59458,-0.92176 0.29018,-0.0683 0.59743,-0.11949 0.30726,-0.0683 0.61451,-0.13655 0.0512,-0.0171 0.0854,-0.0171 0.0341,-0.0171 0.0854,-0.0171 0.64864,-0.1707 0.85348,-0.42674 0.20483,-0.27312 0.20483,-1.02418 0,-0.87055 -0.37553,-1.02417 -0.35846,-0.1707 -1.10952,-0.1707 l -0.1707,-0.0171 q -1.00711,0.0171 -1.26315,0.30725 -0.23897,0.29019 -0.23897,1.28022 -0.0171,0.0683 -0.0171,0.13656 0,0.0512 0,0.10242 l -2.8677,-0.0171 q 0,-2.5263 1.00711,-3.34564 1.00711,-0.83641 3.41392,-0.83641 2.06542,0 3.29443,0.6145 1.22901,0.59744 1.22901,2.98718 0,0.99004 -0.2219,1.82645 -0.22191,0.83641 -1.22901,1.29729 -0.47795,0.2219 -1.02418,0.3926 -0.52916,0.15362 -1.09245,0.29018 -0.3414,0.0853 -0.69986,0.1707 -0.34139,0.0683 -0.68278,0.13655 -0.68278,0.15363 -0.90469,0.42674 -0.2219,0.25605 -0.2219,0.93883 l 6.09384,-0.0171 0,0 z"
         style=""
         id="path4265" />
      <path
         d="m 182.50528,165.94398 0,6.41817 0.46088,0 1.5704,-3.00425 2.86769,0 -2.25318,3.82359 2.76527,4.14792 -3.03839,0 -1.91179,-3.2603 -0.46088,0 0,3.2603 -2.59458,0 0,-11.38543 2.59458,0 0,0 z"
         style=""
         id="path4267" />
      <path
         d="m 188.29931,177.32941 0,-11.38543 6.19627,0 q 1.55333,0.0171 2.47509,0.59744 0.92176,0.5633 0.92176,2.32147 0,0.99003 -0.27311,1.72403 -0.25605,0.71692 -1.50213,0.92175 l 0,0.0854 q 1.16073,0.11949 1.55333,0.73399 0.40967,0.61451 0.40967,1.7411 0,1.9118 -0.76813,2.59458 -0.75106,0.66572 -2.76527,0.66572 l -6.24748,0 0,0 z m 3.05546,-2.50923 2.03128,0 q 0.71693,0.0171 1.17781,-0.11949 0.47795,-0.15363 0.47795,-0.99004 0,-0.80227 -0.37554,-0.93883 -0.35846,-0.15362 -1.07538,-0.15362 l -2.23612,-0.0171 0,2.21905 0,0 z m 0,-4.31861 1.94594,0 q 0.0683,0.0171 0.13655,0.0171 0.0683,0 0.11949,0 0.54623,-0.0171 0.92176,-0.13656 0.3926,-0.13656 0.3926,-0.83641 0,-0.61451 -0.2219,-0.83641 -0.20484,-0.23898 -0.81935,-0.23898 l -2.47509,-0.0171 0,2.04835 0,0 z"
         style=""
         id="path4269" />
      <path
         d="m 202.46305,177.32941 0,-11.38543 5.73539,0 q 2.18491,0.0171 3.12373,0.75107 0.93883,0.71692 0.93883,3.00425 0,1.28022 -0.29018,2.08249 -0.27311,0.7852 -1.86059,1.12659 l 0,0.10242 q 1.05832,0.0683 1.55334,0.64864 0.51208,0.5633 0.51208,1.60455 l 0,2.06542 -3.10666,0 0,-1.5192 q 0,-0.68278 -0.27312,-1.07538 -0.25604,-0.40967 -1.0071,-0.40967 l -2.27026,-0.0171 0,3.02132 -3.05546,0 0,0 z m 3.05546,-5.6159 2.42388,0 q 0.83641,0.0171 1.00711,-0.37553 0.18777,-0.3926 0.18777,-1.1266 0,-0.83641 -0.18777,-1.22901 -0.18777,-0.3926 -1.16073,-0.3926 l -2.27026,-0.0171 0,3.14081 0,0 z"
         style=""
         id="path4271" />
      <path
         d="m 220.1438,175.3664 -4.07964,0 -0.54622,1.96301 -3.17495,0 3.41392,-11.38543 4.62586,0 3.46513,11.38543 -3.10667,0 -0.59743,-1.96301 0,0 z m -0.59744,-2.20198 -1.43384,-4.95018 -1.39971,4.95018 2.83355,0 0,0 z"
         style=""
         id="path4273" />
      <path
         d="m 238.08779,165.94398 0,11.38543 -3.00425,0 0.2219,-8.72257 -0.0853,0 -2.83356,8.72257 -2.62872,0 -2.90183,-8.72257 -0.10242,0 0.25605,8.72257 -3.00425,0 0,-11.38543 4.81363,0 2.16783,7.15217 0.11949,0 2.04835,-7.15217 4.93312,0 0,0 z"
         style=""
         id="path4275" />
      <path
         d="m 242.13432,170.50157 3.44806,0 0,-3.43099 1.36557,0 0,3.43099 3.46512,0 0,1.31436 -3.46512,0 0,3.43099 -1.36557,0 0,-3.43099 -3.44806,0 0,-1.31436 0,0 z"
         style=""
         id="path4277" />
      <path
         d="m 263.0184,165.96105 0,2.18491 -5.59882,0 0,2.18491 q 0.49501,-0.5633 1.04124,-0.68278 0.54623,-0.11949 1.26315,-0.11949 2.04835,0 2.9189,0.81934 0.88762,0.80227 0.88762,2.90183 l 0,0.35846 q 0,0.1707 0,0.32433 0,0.15362 -0.0171,0.30725 -0.0171,0.59744 -0.17069,1.16073 -0.13656,0.54623 -0.5633,0.99004 -0.52916,0.52916 -1.24608,0.73399 -0.71692,0.20484 -1.46799,0.25605 -0.29018,0.0171 -0.58036,0.0171 -0.29019,0.0171 -0.58037,0.0171 -0.25604,0 -0.51209,0 -0.25604,0 -0.51208,-0.0171 -0.81935,-0.0512 -1.57041,-0.27312 -0.75106,-0.23897 -1.26315,-0.90469 -0.27311,-0.34139 -0.37553,-0.75106 -0.0854,-0.42674 -0.11949,-0.87055 -0.0171,-0.11949 -0.0171,-0.23897 0,-0.11949 -0.0171,-0.23898 0,-0.0171 0,-0.0341 0,-0.0341 0,-0.0512 l 2.90184,-0.0171 q 0.0853,0.63158 0.35846,0.83641 0.29018,0.18777 0.87055,0.18777 1.33143,0 1.65575,-0.27311 0.32432,-0.27312 0.32432,-1.5192 0,-1.05831 -0.35846,-1.26315 -0.34139,-0.20483 -1.33143,-0.20483 -0.0853,0 -0.18777,0 -0.0853,0 -0.17069,0 -0.18777,0 -0.37553,0.0171 -0.1707,0.0171 -0.34139,0.0512 -0.22191,0.0512 -0.32433,0.18776 -0.0853,0.11949 -0.11948,0.30725 l -2.64579,-0.0171 0,-6.36696 8.24461,0 0,0 z"
         style=""
         id="path4279" />
      <path
         d="m 272.0434,165.94398 0,11.38543 -2.93597,0 0,-8.68843 -2.98718,2.67993 -1.70696,-1.92887 4.14792,-3.44806 3.48219,0 0,0 z"
         style=""
         id="path4281" />
      <path
         d="m 284.07264,174.95673 0,2.37268 -8.96153,0 0,-2.57751 q 0,-2.01422 1.0071,-2.61165 1.02418,-0.61451 2.59458,-0.92176 0.29018,-0.0683 0.59744,-0.11949 0.30725,-0.0683 0.6145,-0.13655 0.0512,-0.0171 0.0854,-0.0171 0.0341,-0.0171 0.0854,-0.0171 0.64864,-0.1707 0.85348,-0.42674 0.20483,-0.27312 0.20483,-1.02418 0,-0.87055 -0.37553,-1.02417 -0.35846,-0.1707 -1.10952,-0.1707 l -0.1707,-0.0171 q -1.0071,0.0171 -1.26315,0.30725 -0.23897,0.29019 -0.23897,1.28022 -0.0171,0.0683 -0.0171,0.13656 0,0.0512 0,0.10242 l -2.86769,-0.0171 q 0,-2.5263 1.0071,-3.34564 1.00711,-0.83641 3.41392,-0.83641 2.06542,0 3.29443,0.6145 1.22902,0.59744 1.22902,2.98718 0,0.99004 -0.22191,1.82645 -0.2219,0.83641 -1.22901,1.29729 -0.47795,0.2219 -1.02418,0.3926 -0.52915,0.15362 -1.09245,0.29018 -0.34139,0.0853 -0.69985,0.1707 -0.3414,0.0683 -0.68279,0.13655 -0.68278,0.15363 -0.90469,0.42674 -0.2219,0.25605 -0.2219,0.93883 l 6.09384,-0.0171 0,0 z"
         style=""
         id="path4283" />
      <path
         d="m 291.48242,165.94398 0,6.41817 0.46088,0 1.5704,-3.00425 2.86769,0 -2.25319,3.82359 2.76528,4.14792 -3.03839,0 -1.91179,-3.2603 -0.46088,0 0,3.2603 -2.59458,0 0,-11.38543 2.59458,0 0,0 z"
         style=""
         id="path4285" />
      <path
         d="m 297.27645,177.32941 0,-11.38543 6.19626,0 q 1.55334,0.0171 2.4751,0.59744 0.92175,0.5633 0.92175,2.32147 0,0.99003 -0.27311,1.72403 -0.25604,0.71692 -1.50212,0.92175 l 0,0.0854 q 1.16073,0.11949 1.55333,0.73399 0.40967,0.61451 0.40967,1.7411 0,1.9118 -0.76813,2.59458 -0.75107,0.66572 -2.76528,0.66572 l -6.24747,0 0,0 z m 3.05546,-2.50923 2.03128,0 q 0.71692,0.0171 1.1778,-0.11949 0.47795,-0.15363 0.47795,-0.99004 0,-0.80227 -0.37553,-0.93883 -0.35846,-0.15362 -1.07539,-0.15362 l -2.23611,-0.0171 0,2.21905 0,0 z m 0,-4.31861 1.94593,0 q 0.0683,0.0171 0.13656,0.0171 0.0683,0 0.11949,0 0.54622,-0.0171 0.92175,-0.13656 0.3926,-0.13656 0.3926,-0.83641 0,-0.61451 -0.2219,-0.83641 -0.20484,-0.23898 -0.81934,-0.23898 l -2.47509,-0.0171 0,2.04835 0,0 z"
         style=""
         id="path4287" />
      <path
         d="m 314.49565,168.45322 0,2.21904 4.62586,0 0,2.50923 -4.62586,0 0,4.14792 -3.05546,0 0,-11.38543 8.07392,0 0,2.50924 -5.01846,0 0,0 z"
         style=""
         id="path4289" />
      <path
         d="m 322.63728,165.94398 0,11.38543 -2.59458,0 0,-11.38543 2.59458,0 0,0 z"
         style=""
         id="path4291" />
      <path
         d="m 326.42671,171.73058 -2.62872,0 q 0,-1.75817 1.02418,-2.08249 1.04124,-0.34139 2.47509,-0.34139 1.67282,0 2.79941,0.42674 1.14366,0.42674 1.14366,2.45802 l 0,5.13795 -2.59457,0 0.10241,-1.17781 -0.10241,0 q -0.10242,0.63158 -0.59744,0.90469 -0.47795,0.25605 -1.05832,0.30726 -0.20483,0.0341 -0.42674,0.0341 -0.20483,0.0171 -0.3926,0.0171 -1.19487,0 -1.94593,-0.51208 -0.75106,-0.51209 -0.75106,-1.80938 0,-1.58747 0.81934,-2.08249 0.81934,-0.51209 2.21905,-0.51209 0.0683,0 0.13655,0 0.0854,0 0.15363,0 0.52916,0.0171 1.00711,0.1707 0.49501,0.15362 0.73399,0.69985 l 0.10242,-0.0171 0,-1.45092 q 0,-0.58036 -0.27312,-0.7852 -0.25604,-0.2219 -0.85348,-0.2219 -0.56329,0 -0.81934,0.15362 -0.23897,0.15363 -0.27311,0.69986 l 0,-0.0171 z m -0.34139,3.1408 q 0,0.64865 0.3926,0.76814 0.3926,0.10241 0.88762,0.10241 0.49501,0 0.88761,-0.13655 0.39261,-0.15363 0.39261,-0.734 0,-0.0341 0,-0.0512 0,-0.0341 0,-0.0512 0,-0.13656 -0.0341,-0.25605 -0.0341,-0.11948 -0.13656,-0.20483 -0.13656,-0.10242 -0.32432,-0.15363 -0.1707,-0.0512 -0.37553,-0.0683 -0.13656,-0.0171 -0.29019,-0.0171 -0.13655,0 -0.25604,0 -0.47795,0 -0.81934,0.13656 -0.32432,0.13656 -0.32432,0.68278 l 0,-0.0171 z"
         style=""
         id="path4293" />
      <path
         d="m 339.25022,171.64523 -2.45802,0 q 0,0 -0.0171,0 0,-0.0171 0,-0.0341 0,-0.0171 -0.0171,-0.0341 0,-0.0171 0,-0.0341 -0.0854,-0.3926 -0.34139,-0.47795 -0.25605,-0.0853 -0.58037,-0.0853 l -0.47795,-0.0171 q -0.35846,0.0171 -0.64864,0.10241 -0.29019,0.0683 -0.3414,0.51209 0,0.5633 0.5633,0.68279 0.58037,0.10241 1.36557,0.11948 0.17069,0.0171 0.34139,0.0171 0.1707,0 0.35846,0.0171 0.97297,0.0512 1.79231,0.44381 0.81934,0.3926 0.81934,1.79231 0,1.84352 -1.21194,2.3044 -1.19487,0.46087 -2.71407,0.46087 -1.55333,0 -2.71406,-0.34139 -1.14367,-0.35846 -1.14367,-2.21905 l 2.64579,-0.0171 q 0,0.58036 0.23898,0.75106 0.23897,0.15362 0.75106,0.15362 l 0.54623,-0.0171 q 0.40967,0.0171 0.73399,-0.0853 0.34139,-0.10242 0.34139,-0.59744 0,-0.54623 -0.34139,-0.64864 -0.32432,-0.11949 -0.76813,-0.13656 l -0.52916,-0.0171 q -1.46799,0.0171 -2.5263,-0.34139 -1.05832,-0.37553 -1.05832,-2.15077 0,-1.75817 1.14367,-2.09956 1.14366,-0.34139 2.54337,-0.34139 0.29018,0 0.63157,0.0171 0.34139,0 0.68279,0.0341 0.90468,0.0854 1.65575,0.49502 0.75106,0.3926 0.75106,1.45092 0,0.0512 0,0.10242 0,0.0341 0,0.0683 -0.0171,0.0512 -0.0171,0.10242 0,0.0341 0,0.0853 l 0,-0.0171 z"
         style=""
         id="path4295" />
      <path
         d="m 342.89909,165.94398 0,4.89898 0.10242,0 q 0.32432,-0.87055 0.83641,-1.19487 0.52915,-0.34139 1.46798,-0.34139 1.19487,0 1.9118,0.54622 0.73399,0.52916 0.73399,1.80938 l 0,5.66711 -2.59458,0 0,-4.72828 q 0,-0.59744 -0.18776,-0.93883 -0.1707,-0.34139 -0.90469,-0.34139 -0.71693,0 -1.04125,0.3926 -0.32432,0.37553 -0.32432,1.07538 l 0,4.54052 -2.59458,0 0,-11.38543 2.59458,0 0,0 z"
         style=""
         id="path4297" />
    </g>
    <g
       style="display:inline;opacity:1"
       transform="matrix(1.0005468,0,0,1.0005522,-115.28323,-51.373253)"
       id="g3395">
      <path
         d="m 257.64973,158.68038 0,21.70578 -4.41278,0 0,-17.64362 -2.40995,0 0,-4.06252 c 2.66985,-1.5e-4 4.15288,9e-5 6.82273,3.6e-4 z"
         style="font-style:normal;font-variant:normal;font-weight:100;font-stretch:normal;font-size:medium;line-height:125%;font-family:Monotone;-inkscape-font-specification:'Monotone Thin';letter-spacing:0.5px;word-spacing:-5.24000025px;fill:#53241c;fill-opacity:1;stroke:#53241c;stroke-width:1px;stroke-linecap:butt;stroke-linejoin:miter;stroke-opacity:1"
         id="path4311"
         inkscape:connector-curvature="0"
         sodipodi:nodetypes="ccccccc" />
      <path
         inkscape:connector-curvature="0"
         id="path4345"
         style="font-style:normal;font-variant:normal;font-weight:100;font-stretch:normal;font-size:medium;line-height:125%;font-family:Monotone;-inkscape-font-specification:'Monotone Thin';letter-spacing:0.5px;word-spacing:-5.24000025px;fill:none;fill-opacity:1;stroke:#f1efd6;stroke-width:0.5;stroke-linecap:butt;stroke-linejoin:miter;stroke-miterlimit:4;stroke-dasharray:none;stroke-opacity:1"
         d="m 257.64973,158.68038 0,21.70578 -4.41278,0 0,-17.64362 -2.40995,0 0,-4.06251 c 2.66985,-1.5e-4 4.15288,8e-5 6.82273,3.5e-4 z"
         sodipodi:nodetypes="ccccccc" />
    </g>
    <g
       style="display:inline;opacity:1"
       transform="matrix(1.0005468,0,0,1.0005522,-118.23723,-51.373253)"
       id="g3421">
      <path
         sodipodi:nodetypes="ccccccccc"
         d="m 172.66833,158.68069 5.88311,0 1.38217,12.4695 0.49616,0 1.38218,-12.4695 5.88311,0 -4.30406,21.70547 -6.383,0 z"
         style="font-style:normal;font-variant:normal;font-weight:100;font-stretch:normal;font-size:medium;line-height:125%;font-family:Monotone;-inkscape-font-specification:'Monotone Thin';letter-spacing:0.5px;word-spacing:-5.24000025px;fill:#53241c;fill-opacity:1;stroke:#53241c;stroke-width:1px;stroke-linecap:butt;stroke-linejoin:miter;stroke-opacity:1"
         id="path4301"
         inkscape:connector-curvature="0" />
      <path
         sodipodi:nodetypes="ccccccccc"
         inkscape:connector-curvature="0"
         id="path4322"
         style="font-style:normal;font-variant:normal;font-weight:100;font-stretch:normal;font-size:medium;line-height:125%;font-family:Monotone;-inkscape-font-specification:'Monotone Thin';letter-spacing:0.5px;word-spacing:-5.24000025px;fill:none;fill-opacity:1;stroke:#f1efd6;stroke-width:0.5;stroke-linecap:butt;stroke-linejoin:miter;stroke-miterlimit:4;stroke-dasharray:none;stroke-opacity:1"
         d="m 172.66833,158.68069 5.88311,0 1.38217,12.4695 0.49616,0 1.38218,-12.4695 5.88311,0 -4.30406,21.70547 -6.383,0 z" />
    </g>
    <g
       style="display:inline;opacity:1"
       transform="matrix(1.0005468,0,0,1.0005522,-117.34414,-51.373253)"
       id="g3417">
      <path
         sodipodi:nodetypes="ccccc"
         d="m 189.29221,158.68069 4.88293,0 0,21.70547 -4.88293,0 z"
         style="font-style:normal;font-variant:normal;font-weight:100;font-stretch:normal;font-size:medium;line-height:125%;font-family:Monotone;-inkscape-font-specification:'Monotone Thin';letter-spacing:0.5px;word-spacing:-5.24000025px;fill:#53241c;fill-opacity:1;stroke:#53241c;stroke-width:1px;stroke-linecap:butt;stroke-linejoin:miter;stroke-opacity:1"
         id="path4303"
         inkscape:connector-curvature="0" />
      <path
         inkscape:connector-curvature="0"
         id="path4333"
         style="font-style:normal;font-variant:normal;font-weight:100;font-stretch:normal;font-size:medium;line-height:125%;font-family:Monotone;-inkscape-font-specification:'Monotone Thin';letter-spacing:0.5px;word-spacing:-5.24000025px;fill:none;fill-opacity:1;stroke:#f1efd6;stroke-width:0.5;stroke-linecap:butt;stroke-linejoin:miter;stroke-miterlimit:4;stroke-dasharray:none;stroke-opacity:1"
         d="m 189.29221,158.68069 4.88293,0 0,21.70547 -4.88293,0 z"
         sodipodi:nodetypes="ccccc" />
    </g>
    <g
       style="display:inline;opacity:1"
       id="g4256"
       transform="matrix(1.0005468,0,0,1.0005522,-118.38799,-51.373253)">
      <path
         d="m 211.30841,171.08834 0,5.96583 -3.47317,3.33199 -6.16663,0 -4.04021,-3.07812 0,-15.26364 3.79213,-3.36371 5.88311,0 4.00477,3.10985 0,5.23597 -4.81241,0 0,-3.33831 -3.689,0 0,12.236 3.689,0 0,-4.83586 z"
         style="font-style:normal;font-variant:normal;font-weight:100;font-stretch:normal;font-size:medium;line-height:125%;font-family:Monotone;-inkscape-font-specification:'Monotone Thin';letter-spacing:0.5px;word-spacing:-5.24000025px;fill:#53241c;fill-opacity:1;stroke:#53241c;stroke-width:1px;stroke-linecap:butt;stroke-linejoin:miter;stroke-opacity:1"
         id="path4305"
         inkscape:connector-curvature="0"
         sodipodi:nodetypes="ccccccccccccccccc" />
      <path
         sodipodi:nodetypes="ccccccccccccccccc"
         inkscape:connector-curvature="0"
         id="path4335"
         style="font-style:normal;font-variant:normal;font-weight:100;font-stretch:normal;font-size:medium;line-height:125%;font-family:Monotone;-inkscape-font-specification:'Monotone Thin';letter-spacing:0.5px;word-spacing:-5.24000025px;fill:none;fill-opacity:1;stroke:#f1efd6;stroke-width:0.5;stroke-linecap:butt;stroke-linejoin:miter;stroke-miterlimit:4;stroke-dasharray:none;stroke-opacity:1"
         d="m 211.30841,171.08834 0,5.96583 -3.47317,3.33199 -6.16663,0 -4.04021,-3.07812 0,-15.26364 3.79213,-3.36371 5.88311,0 4.00477,3.10985 0,5.23597 -4.81241,0 0,-3.33831 -3.689,0 0,12.236 3.689,0 0,-4.83586 z" />
    </g>
    <g
       style="display:inline;opacity:1"
       id="g4275"
       transform="matrix(1.0005468,0,0,1.0005522,-118.32465,-51.373253)">
      <path
         sodipodi:nodetypes="cccccccccccccccc"
         d="m 235.11872,180.38616 -13.92808,0 0,-4.37196 9.81536,-9.90795 0,-3.14158 -5.2,0 0,2.88771 -4.36728,0 0,-3.80798 3.5086,-3.36371 6.13119,0 4.04021,3.10985 0,5.96583 c -2.66839,2.9527 -2.578,2.83063 -8.3285,8.56795 l 8.3285,0 z"
         style="font-style:normal;font-variant:normal;font-weight:100;font-stretch:normal;font-size:medium;line-height:125%;font-family:Monotone;-inkscape-font-specification:'Monotone Thin';letter-spacing:0.5px;word-spacing:-5.24000025px;fill:#53241c;fill-opacity:1;stroke:#53241c;stroke-width:1px;stroke-linecap:butt;stroke-linejoin:miter;stroke-opacity:1"
         id="path4307"
         inkscape:connector-curvature="0" />
      <path
         sodipodi:nodetypes="cccccccccccccccc"
         inkscape:connector-curvature="0"
         id="path4341"
         style="font-style:normal;font-variant:normal;font-weight:100;font-stretch:normal;font-size:medium;line-height:125%;font-family:Monotone;-inkscape-font-specification:'Monotone Thin';letter-spacing:0.5px;word-spacing:-5.24000025px;fill:none;fill-opacity:1;stroke:#f1efd6;stroke-width:0.5;stroke-linecap:butt;stroke-linejoin:miter;stroke-miterlimit:4;stroke-dasharray:none;stroke-opacity:1"
         d="m 235.11872,180.38616 -13.92808,0 0,-4.37196 9.81536,-9.90795 0,-3.14158 -5.2,0 0,2.88771 -4.36728,0 0,-3.80798 3.5086,-3.36371 6.13119,0 4.04021,3.10985 0,5.96583 c -2.66839,2.9527 -2.53168,2.78159 -8.3285,8.56795 l 8.3285,0 z" />
    </g>
    <g
       style="display:inline;opacity:1"
       transform="matrix(1.0005468,0,0,1.0005522,-115.5183,-51.373253)"
       id="g3391">
      <path
         d="m 234.72389,162.0444 3.75669,-3.36371 6.41471,0 3.75668,3.36371 0,15.00977 -3.75668,3.33199 -6.69824,0 -3.47316,-3.33199 z m 9.01604,14.27992 0,-13.35965 -4.104,0 0,13.35965 z"
         style="font-style:normal;font-variant:normal;font-weight:100;font-stretch:normal;font-size:medium;line-height:125%;font-family:Monotone;-inkscape-font-specification:'Monotone Thin';letter-spacing:0.5px;word-spacing:-5.24000025px;fill:#53241c;fill-opacity:1;stroke:#53241c;stroke-width:1px;stroke-linecap:butt;stroke-linejoin:miter;stroke-opacity:1"
         id="path4309"
         inkscape:connector-curvature="0"
         sodipodi:nodetypes="cccccccccccccc" />
      <path
         inkscape:connector-curvature="0"
         id="path4343"
         style="font-style:normal;font-variant:normal;font-weight:100;font-stretch:normal;font-size:medium;line-height:125%;font-family:Monotone;-inkscape-font-specification:'Monotone Thin';letter-spacing:0.5px;word-spacing:-5.24000025px;fill:none;fill-opacity:1;stroke:#f1efd6;stroke-width:0.5;stroke-linecap:butt;stroke-linejoin:miter;stroke-miterlimit:4;stroke-dasharray:none;stroke-opacity:1"
         d="m 234.72389,162.0444 3.75704,-3.36371 6.414,-4.9e-4 3.75704,3.3642 0,15.00977 -3.75668,3.33199 -6.69824,0 -3.47316,-3.33199 z m 9.01604,14.27992 0,-13.35965 -4.104,0 0,13.35965 z"
         sodipodi:nodetypes="cccccccccccccc" />
    </g>
    <g
       style="display:inline;opacity:1"
       transform="matrix(1.0005468,0,0,1.0005522,-116.23605,-51.373253)"
       id="g3399">
      <path
         d="m 264.5206,180.38616 -3.5086,-3.33199 0,-15.26363 3.50895,-3.10985 6.166,0 3.75696,3.36371 0,3.55412 -5.23996,0 0,-2.85598 -3.2,0 0,4.7917 5.21488,0 3.22508,2.82425 0,6.69568 -3.47315,3.33199 z m 4.68335,-4.06184 0,-4.75997 -3.2,0 0,4.75997 z"
         style="font-style:normal;font-variant:normal;font-weight:100;font-stretch:normal;font-size:medium;line-height:125%;font-family:Monotone;-inkscape-font-specification:'Monotone Thin';letter-spacing:0.5px;word-spacing:-5.24000025px;fill:#53241c;fill-opacity:1;stroke:#53241c;stroke-width:1px;stroke-linecap:butt;stroke-linejoin:miter;stroke-opacity:1"
         id="path4313"
         inkscape:connector-curvature="0"
         sodipodi:nodetypes="ccccccccccccccccccccc" />
      <path
         inkscape:connector-curvature="0"
         id="path4347"
         style="font-style:normal;font-variant:normal;font-weight:100;font-stretch:normal;font-size:medium;line-height:125%;font-family:Monotone;-inkscape-font-specification:'Monotone Thin';letter-spacing:0.5px;word-spacing:-5.24000025px;fill:none;fill-opacity:1;stroke:#f1efd6;stroke-width:0.5;stroke-linecap:butt;stroke-linejoin:miter;stroke-miterlimit:4;stroke-dasharray:none;stroke-opacity:1"
         d="m 264.5206,180.38616 -3.5086,-3.33199 0,-15.26363 3.5086,-3.10985 6.16663,0 3.75668,3.36371 0,3.55412 -5.23998,0 4e-5,-2.85598 -3.20002,0 0,4.7917 5.21488,0 3.22508,2.82425 0,6.69568 -3.47315,3.33199 z m 4.68333,-4.06184 0,-4.75997 -3.19998,0 0,4.75997 z"
         sodipodi:nodetypes="ccccccccccccccccccccc" />
    </g>
    <g
       style="display:inline;opacity:1"
       id="g4264"
       transform="matrix(1.0005468,0,0,1.0005522,-118.04536,-51.373253)">
      <g
         id="g3407"
         transform="matrix(1.3237323,0,0,1.0944529,-69.177493,-16.305513)">
        <g
           id="text4337"
           style="font-style:normal;font-variant:normal;font-weight:100;font-stretch:normal;font-size:29.72056198px;line-height:125%;font-family:Monotone;-inkscape-font-specification:'Monotone Thin';letter-spacing:0px;word-spacing:0px;display:inline;fill:none;fill-opacity:1;stroke:#f1efd6;stroke-width:0.5;stroke-linecap:butt;stroke-linejoin:miter;stroke-miterlimit:4;stroke-dasharray:none;stroke-opacity:1"
           transform="scale(0.71531697,1.3979817)">
          <path
             inkscape:connector-curvature="0"
             id="path3441"
             d="m 298.37407,119.92738 5.46859,0 0,2.64513 -5.46859,0 0,-2.64513 z" />
        </g>
        <g
           id="text3371"
           style="font-style:normal;font-variant:normal;font-weight:100;font-stretch:normal;font-size:29.72056198px;line-height:125%;font-family:Monotone;-inkscape-font-specification:'Monotone Thin';letter-spacing:0px;word-spacing:0px;display:inline;fill:#53241c;fill-opacity:1;stroke:#53241c;stroke-width:1px;stroke-linecap:butt;stroke-linejoin:miter;stroke-opacity:1"
           transform="scale(0.71531697,1.3979817)">
          <path
             sodipodi:nodetypes="ccccc"
             inkscape:connector-curvature="0"
             id="path3444"
             d="m 298.37407,119.92738 5.46909,-1.2e-4 -5e-4,2.64525 -5.46859,0 z" />
        </g>
      </g>
      <g
         id="g3448"
         style="font-style:normal;font-variant:normal;font-weight:100;font-stretch:normal;font-size:29.72056198px;line-height:125%;font-family:Monotone;-inkscape-font-specification:'Monotone Thin';letter-spacing:0px;word-spacing:0px;display:inline;fill:none;fill-opacity:1;stroke:#f1efd6;stroke-width:0.41540468;stroke-linecap:butt;stroke-linejoin:miter;stroke-miterlimit:4;stroke-dasharray:none;stroke-opacity:1"
         transform="matrix(0.94688818,0,0,1.5300251,-69.177493,-16.305513)">
        <path
           inkscape:connector-curvature="0"
           id="path3450"
           d="m 298.37407,119.92738 5.46859,0 0,2.64513 -5.46859,0 0,-2.64513 z"
           style="stroke:#f1efd6;stroke-width:0.41540468;stroke-miterlimit:4;stroke-dasharray:none;stroke-opacity:1" />
      </g>
      <g
         id="g3452"
         style="font-style:normal;font-variant:normal;font-weight:100;font-stretch:normal;font-size:29.72056198px;line-height:125%;font-family:Monotone;-inkscape-font-specification:'Monotone Thin';letter-spacing:0px;word-spacing:0px;display:inline;fill:#53241c;fill-opacity:1;stroke:#f1efd6;stroke-width:0.41540468;stroke-linecap:butt;stroke-linejoin:miter;stroke-miterlimit:4;stroke-dasharray:none;stroke-opacity:1"
         transform="matrix(0.94688818,0,0,1.5300251,-69.177493,-16.305513)">
        <path
           sodipodi:nodetypes="ccccc"
           inkscape:connector-curvature="0"
           id="path3454"
           d="m 298.37407,119.92738 5.46909,-1.2e-4 -5e-4,2.64525 -5.46859,0 z"
           style="stroke:#f1efd6;stroke-width:0.41540468;stroke-miterlimit:4;stroke-dasharray:none;stroke-opacity:1" />
      </g>
    </g>
    <g
       style="display:inline"
       transform="matrix(0.15479123,-0.04147641,0.04147619,0.15479207,374.85793,41.955032)"
       id="g4146">
      <path
         inkscape:connector-curvature="0"
         id="path47793"
         d="m 387.57839,216.83073 2.31445,-2.17432 0,-42.56004 0,-42.56004 -11.23369,-11.26564 -11.23369,-11.26565 -67.95186,0 -67.95186,0 -2.31445,2.17431 -2.31445,2.17432 0,51.51123 0,51.51124 2.17431,2.31445 2.17432,2.31445 77.01123,0 77.01124,0 2.31445,-2.17431 z"
         style="fill:#53241c;fill-opacity:1" />
      <path
         inkscape:connector-curvature="0"
         id="path47791"
         d="m 235.89284,205.50504 0,-4.5 4.5,0 4.5,0 0,-12.5 0,-12.5 -4.5,0 -4.5,0 0,-4.5 0,-4.5 13,0 13,0 0,4.5 0,4.5 -4.5,0 -4.5,0 0,12.5 0,12.5 4.5,0 4.5,0 0,4.5 0,4.5 -13,0 -13,0 0,-4.5 z"
         style="fill:#f1efd6;fill-opacity:1" />
      <path
         inkscape:connector-curvature="0"
         id="path47789"
         d="m 278.89284,205.50504 0,-4.5 -4.5,0 -4.5,0 0,-12.5 0,-12.5 4.5,0 4.5,0 0,-4.5 0,-4.5 8.5,0 8.5,0 0,4.5 0,4.5 -8.5,0 -8.5,0 0,4 0,4 4,0 4,0 0,4.5 0,4.5 -4,0 -4,0 0,4 0,4 8.5,0 8.5,0 0,4.5 0,4.5 -8.5,0 -8.5,0 0,-4.5 z"
         style="fill:#f1efd6;fill-opacity:1" />
      <path
         inkscape:connector-curvature="0"
         id="path47787"
         d="m 312.89284,205.50504 0,-4.5 -4.5,0 -4.5,0 0,-12.5 0,-12.5 4.5,0 4.5,0 0,-4.5 0,-4.5 8.5,0 8.5,0 0,4.5 0,4.5 -8.5,0 -8.5,0 0,12.5 0,12.5 8.5,0 8.5,0 0,4.5 0,4.5 -8.5,0 -8.5,0 0,-4.5 z"
         style="fill:#f1efd6;fill-opacity:1" />
      <path
         inkscape:connector-curvature="0"
         id="path47785"
         d="m 346.89284,205.50504 0,-4.5 17,0 17,0 0,4.5 0,4.5 -17,0 -17,0 0,-4.5 z"
         style="fill:#d0ab65;fill-opacity:1" />
      <path
         inkscape:connector-curvature="0"
         id="path47783"
         d="m 346.89284,188.50504 0,-4.5 17,0 17,0 0,4.5 0,4.5 -17,0 -17,0 0,-4.5 z"
         style="fill:#d0ab65;fill-opacity:1" />
      <path
         inkscape:connector-curvature="0"
         id="path47781"
         d="m 346.89284,171.50504 0,-4.5 17,0 17,0 0,4.5 0,4.5 -17,0 -17,0 0,-4.5 z"
         style="fill:#d0ab65;fill-opacity:1" />
      <path
         inkscape:connector-curvature="0"
         id="path47779"
         d="m 235.89284,154.50504 0,-4.5 8.5,0 8.5,0 0,-4 0,-4 -8.5,0 -8.5,0 0,-8.5 0,-8.5 4.5,0 4.5,0 0,-4.5 0,-4.5 8.5,0 8.5,0 0,4.5 0,4.5 -8.5,0 -8.5,0 0,4 0,4 8.5,0 8.5,0 0,8.5 0,8.5 -4.5,0 -4.5,0 0,4.5 0,4.5 -8.5,0 -8.5,0 0,-4.5 z"
         style="fill:#f1efd6;fill-opacity:1" />
      <path
         inkscape:connector-curvature="0"
         id="path47777"
         d="m 269.89258,116.00586 0,21.5 0,21.5 8.5,0 8.5,0 0,-4.5 0,-4.5 -4,0 -4,0 0,-12.5 0,-12.5 4,0 4,0 0,-4.5 0,-4.5 -8.5,0 -8.5,0 z m 17,9 0,12.5 0,12.5 4.5,0 4.5,0 0,-12.5 0,-12.5 -4.5,0 -4.5,0 z"
         style="fill:#f1efd6;fill-opacity:1" />
      <path
         inkscape:connector-curvature="0"
         id="path47773"
         d="m 303.89284,146.00504 0,-13 8.5,0 8.5,0 0,-4 0,-4 -8.5,0 -8.5,0 0,-4.5 0,-4.5 8.5,0 8.5,0 0,4 0,4 4.5,0 4.5,0 0,9 0,9 -8.5,0 -8.5,0 0,4 0,4 8.5,0 8.5,0 0,4.5 0,4.5 -13,0 -13,0 0,-13 z"
         style="fill:#f1efd6;fill-opacity:1" />
      <path
         inkscape:connector-curvature="0"
         id="path47771"
         d="m 346.89284,154.50504 0,-4.5 17,0 17,0 0,4.5 0,4.5 -17,0 -17,0 0,-4.5 z"
         style="fill:#d0ab65;fill-opacity:1" />
      <path
         inkscape:connector-curvature="0"
         id="path47769"
         d="m 346.89284,137.50504 0,-4.5 17,0 17,0 0,4.5 0,4.5 -17,0 -17,0 0,-4.5 z"
         style="fill:#d0ab65;fill-opacity:1" />
      <path
         inkscape:connector-curvature="0"
         id="path47765"
         d="m 337.89284,120.50504 0,-4.5 13,0 13,0 0,4.5 0,4.5 -13,0 -13,0 0,-4.5 z"
         style="fill:#d0ab65;fill-opacity:1" />
    </g>
  </g>
</svg>
