<?xml version="1.0" encoding="UTF-8" standalone="no"?>
<!-- Created with Inkscape (http://www.inkscape.org/) -->

<svg
   xmlns:dc="http://purl.org/dc/elements/1.1/"
   xmlns:cc="http://creativecommons.org/ns#"
   xmlns:rdf="http://www.w3.org/1999/02/22-rdf-syntax-ns#"
   xmlns:svg="http://www.w3.org/2000/svg"
   xmlns="http://www.w3.org/2000/svg"
   xmlns:sodipodi="http://sodipodi.sourceforge.net/DTD/sodipodi-0.dtd"
   xmlns:inkscape="http://www.inkscape.org/namespaces/inkscape"
   width="127.43033mm"
   height="62.895267mm"
   viewBox="0 0 451.52479 222.85724"
   id="svg2"
   version="1.1"
   inkscape:version="0.91 r13725"
   sodipodi:docname="Silhouette FE3 Rev 11.svg"
   inkscape:export-filename="C:\Users\heather\Desktop\Projects\Final Expansion 3\Label\FE3 Rev 11.png"
   inkscape:export-xdpi="600"
   inkscape:export-ydpi="600">
  <defs
     id="defs4">
    <inkscape:path-effect
       effect="spiro"
       id="path-effect4222"
       is_visible="true" />
  </defs>
  <sodipodi:namedview
     id="base"
     pagecolor="#ffffff"
     bordercolor="#666666"
     borderopacity="1.0"
     inkscape:pageopacity="0.0"
     inkscape:pageshadow="2"
     inkscape:zoom="2.0722563"
     inkscape:cx="118.36538"
     inkscape:cy="96.757173"
     inkscape:document-units="px"
     inkscape:current-layer="layer5"
     showgrid="false"
     inkscape:window-width="1920"
     inkscape:window-height="1137"
     inkscape:window-x="-8"
     inkscape:window-y="-8"
     inkscape:window-maximized="1"
     inkscape:snap-tangential="true"
     inkscape:snap-path-clip="true"
     inkscape:snap-path-mask="true"
     objecttolerance="20"
     inkscape:snap-perpendicular="true"
     inkscape:snap-bbox="false"
     inkscape:object-paths="false"
     inkscape:snap-nodes="true"
     inkscape:snap-intersection-paths="false"
     inkscape:object-nodes="false"
     inkscape:snap-smooth-nodes="false"
     inkscape:snap-midpoints="false"
     inkscape:snap-text-baseline="true"
     inkscape:snap-center="false"
     inkscape:snap-object-midpoints="false"
     inkscape:snap-others="true"
     fit-margin-top="0"
     fit-margin-left="0"
     fit-margin-right="0"
     fit-margin-bottom="0" />
  <metadata
     id="metadata7">
    <rdf:RDF>
      <cc:Work
         rdf:about="">
        <dc:format>image/svg+xml</dc:format>
        <dc:type
           rdf:resource="http://purl.org/dc/dcmitype/StillImage" />
        <dc:title />
      </cc:Work>
    </rdf:RDF>
  </metadata>
  <g
     inkscape:groupmode="layer"
     id="layer5"
     inkscape:label="Graphics"
     style="display:inline"
     transform="translate(-142.34601,-71.871948)">
    <path
       style="color:#000000;display:inline;overflow:visible;visibility:visible;opacity:1;fill:#f1efd6;fill-opacity:1;fill-rule:nonzero;stroke:#000000;stroke-width:0.1;stroke-linecap:square;stroke-linejoin:round;stroke-miterlimit:0;stroke-dasharray:none;stroke-dashoffset:0;stroke-opacity:1;marker:none;enable-background:accumulate"
       d="m 142.34601,71.871948 451.52478,0 0,153.428252 -3.32733,69.429 -444.87,0 -3.32745,-69.429 z"
       id="rect4230"
       inkscape:connector-curvature="0"
       sodipodi:nodetypes="ccccccc" />
    <flowRoot
       xml:space="preserve"
       id="flowRoot4644"
       style="font-style:normal;font-variant:normal;font-weight:100;font-stretch:normal;font-size:50px;line-height:125%;font-family:Monotone;-inkscape-font-specification:'Monotone Thin';letter-spacing:0px;word-spacing:0px;display:inline;fill:#000000;fill-opacity:1;stroke:none;stroke-width:1px;stroke-linecap:butt;stroke-linejoin:miter;stroke-opacity:1"
       transform="matrix(0.42519245,0,0,0.83097602,86.377051,49.023716)"><flowRegion
         id="flowRegion4646"><rect
           id="rect4648"
           width="272.16711"
           height="72.384865"
           x="312.70264"
           y="84.335251"
           style="font-style:normal;font-variant:normal;font-weight:100;font-stretch:normal;font-size:50px;font-family:Monotone;-inkscape-font-specification:'Monotone Thin'" /></flowRegion><flowPara
         id="flowPara4650" /></flowRoot>    <path
       style="color:#000000;display:inline;overflow:visible;visibility:visible;opacity:1;fill:#d0ab65;fill-opacity:1;fill-rule:nonzero;stroke:none;stroke-width:6.00199986;stroke-linecap:square;stroke-linejoin:round;stroke-miterlimit:0;stroke-dasharray:none;stroke-dashoffset:0;stroke-opacity:1;marker:none;enable-background:accumulate"
       d="m 169.13699,131.05119 278.56301,1e-5 -20.22529,21.95 -258.33777,3.8e-4 z"
       id="rect4190"
       inkscape:connector-curvature="0"
       sodipodi:nodetypes="ccccc" />
    <path
       sodipodi:nodetypes="ccccc"
       inkscape:connector-curvature="0"
       id="path4197"
       d="M 567.08008,270.30273 316.3,270.3032 l 23.39088,-25.269 227.38925,0 z"
       style="color:#000000;display:inline;overflow:visible;visibility:visible;opacity:1;fill:#d0ab65;fill-opacity:1;fill-rule:nonzero;stroke:none;stroke-width:6.00199986;stroke-linecap:square;stroke-linejoin:round;stroke-miterlimit:0;stroke-dasharray:none;stroke-dashoffset:0;stroke-opacity:1;marker:none;enable-background:accumulate" />
    <path
       style="color:#000000;display:inline;overflow:visible;visibility:visible;opacity:1;fill:#53241c;fill-opacity:1;fill-rule:nonzero;stroke:none;stroke-width:6.00199986;stroke-linecap:square;stroke-linejoin:round;stroke-miterlimit:0;stroke-dasharray:none;stroke-dashoffset:0;stroke-opacity:1;marker:none;enable-background:accumulate"
       d="m 310.60938,216.98438 0,10.69921 -110.41138,0 29.02,31 81.39138,0 0,10.70118 24.14062,-26.20118 z"
       id="rect4199"
       inkscape:connector-curvature="0"
       sodipodi:nodetypes="cccccccc" />
    <path
       sodipodi:nodetypes="cccccccc"
       inkscape:connector-curvature="0"
       id="path4206"
       d="m 279.54775,183.9275 0,10.69921 -110.41075,0 29.019,31 81.39175,0 0,10.70118 24.14062,-26.20118 z"
       style="color:#000000;display:inline;overflow:visible;visibility:visible;opacity:1;fill:#53241c;fill-opacity:1;fill-rule:nonzero;stroke:none;stroke-width:6.00199986;stroke-linecap:square;stroke-linejoin:round;stroke-miterlimit:0;stroke-dasharray:none;stroke-dashoffset:0;stroke-opacity:1;marker:none;enable-background:accumulate" />
    <path
       sodipodi:nodetypes="cccccccc"
       inkscape:connector-curvature="0"
       id="path4228"
       d="m 263.37161,201.48438 0,10.69921 -110.41061,0 29.019,31 81.39161,0 0,10.70118 24.14062,-26.20118 z"
       style="color:#000000;display:inline;overflow:visible;visibility:visible;opacity:1;fill:#f1efd6;fill-opacity:1;fill-rule:nonzero;stroke:none;stroke-width:6.00199986;stroke-linecap:square;stroke-linejoin:round;stroke-miterlimit:0;stroke-dasharray:none;stroke-dashoffset:0;stroke-opacity:1;marker:none;enable-background:accumulate" />
    <path
       style="color:#000000;font-style:normal;font-variant:normal;font-weight:normal;font-stretch:normal;font-size:medium;line-height:normal;font-family:sans-serif;text-indent:0;text-align:start;text-decoration:none;text-decoration-line:none;text-decoration-style:solid;text-decoration-color:#000000;letter-spacing:normal;word-spacing:normal;text-transform:none;direction:ltr;block-progression:tb;writing-mode:lr-tb;baseline-shift:baseline;text-anchor:start;white-space:normal;clip-rule:nonzero;display:inline;overflow:visible;visibility:visible;opacity:1;isolation:auto;mix-blend-mode:normal;color-interpolation:sRGB;color-interpolation-filters:linearRGB;solid-color:#000000;solid-opacity:1;fill:#53241c;fill-opacity:1;fill-rule:nonzero;stroke:none;stroke-width:6.00199986;stroke-linecap:square;stroke-linejoin:round;stroke-miterlimit:0;stroke-dasharray:none;stroke-dashoffset:0;stroke-opacity:1;marker:none;color-rendering:auto;image-rendering:auto;shape-rendering:auto;text-rendering:auto;enable-background:accumulate"
       d="m 170.528,125.0492 c -3.48515,0 -7.39323,3.90785 -7.39323,7.393 l 0,136.47 c 0,3.48491 3.90832,7.392 7.39323,7.392 l 395.161,0 c 3.48486,0 7.39303,-3.90714 7.39303,-7.392 l 0,-136.47 c 0,-3.48519 -3.90784,-7.39337 -7.39303,-7.39337 z m -1.391,6.002 397.94308,-4.2e-4 0,139.25195 -397.94336,0 z"
       id="rect3373"
       inkscape:connector-curvature="0"
       sodipodi:nodetypes="cccccccccccccc" />
    <g
       style="display:inline"
       transform="matrix(0.15470664,-0.04145352,0.04145352,0.15470664,492.82568,93.276778)"
       id="g4146">
      <path
         inkscape:connector-curvature="0"
         id="path47793"
         d="m 387.57839,216.83073 2.31445,-2.17432 0,-42.56004 0,-42.56004 -11.23369,-11.26564 -11.23369,-11.26565 -67.95186,0 -67.95186,0 -2.31445,2.17431 -2.31445,2.17432 0,51.51123 0,51.51124 2.17431,2.31445 2.17432,2.31445 77.01123,0 77.01124,0 2.31445,-2.17431 z"
         style="fill:#53241c;fill-opacity:1" />
      <path
         inkscape:connector-curvature="0"
         id="path47791"
         d="m 235.89284,205.50504 0,-4.5 4.5,0 4.5,0 0,-12.5 0,-12.5 -4.5,0 -4.5,0 0,-4.5 0,-4.5 13,0 13,0 0,4.5 0,4.5 -4.5,0 -4.5,0 0,12.5 0,12.5 4.5,0 4.5,0 0,4.5 0,4.5 -13,0 -13,0 0,-4.5 z"
         style="fill:#f1efd6;fill-opacity:1" />
      <path
         inkscape:connector-curvature="0"
         id="path47789"
         d="m 278.89284,205.50504 0,-4.5 -4.5,0 -4.5,0 0,-12.5 0,-12.5 4.5,0 4.5,0 0,-4.5 0,-4.5 8.5,0 8.5,0 0,4.5 0,4.5 -8.5,0 -8.5,0 0,4 0,4 4,0 4,0 0,4.5 0,4.5 -4,0 -4,0 0,4 0,4 8.5,0 8.5,0 0,4.5 0,4.5 -8.5,0 -8.5,0 0,-4.5 z"
         style="fill:#f1efd6;fill-opacity:1" />
      <path
         inkscape:connector-curvature="0"
         id="path47787"
         d="m 312.89284,205.50504 0,-4.5 -4.5,0 -4.5,0 0,-12.5 0,-12.5 4.5,0 4.5,0 0,-4.5 0,-4.5 8.5,0 8.5,0 0,4.5 0,4.5 -8.5,0 -8.5,0 0,12.5 0,12.5 8.5,0 8.5,0 0,4.5 0,4.5 -8.5,0 -8.5,0 0,-4.5 z"
         style="fill:#f1efd6;fill-opacity:1" />
      <path
         inkscape:connector-curvature="0"
         id="path47785"
         d="m 346.89284,205.50504 0,-4.5 17,0 17,0 0,4.5 0,4.5 -17,0 -17,0 0,-4.5 z"
         style="fill:#d0ab65;fill-opacity:1" />
      <path
         inkscape:connector-curvature="0"
         id="path47783"
         d="m 346.89284,188.50504 0,-4.5 17,0 17,0 0,4.5 0,4.5 -17,0 -17,0 0,-4.5 z"
         style="fill:#d0ab65;fill-opacity:1" />
      <path
         inkscape:connector-curvature="0"
         id="path47781"
         d="m 346.89284,171.50504 0,-4.5 17,0 17,0 0,4.5 0,4.5 -17,0 -17,0 0,-4.5 z"
         style="fill:#d0ab65;fill-opacity:1" />
      <path
         inkscape:connector-curvature="0"
         id="path47779"
         d="m 235.89284,154.50504 0,-4.5 8.5,0 8.5,0 0,-4 0,-4 -8.5,0 -8.5,0 0,-8.5 0,-8.5 4.5,0 4.5,0 0,-4.5 0,-4.5 8.5,0 8.5,0 0,4.5 0,4.5 -8.5,0 -8.5,0 0,4 0,4 8.5,0 8.5,0 0,8.5 0,8.5 -4.5,0 -4.5,0 0,4.5 0,4.5 -8.5,0 -8.5,0 0,-4.5 z"
         style="fill:#f1efd6;fill-opacity:1" />
      <path
         inkscape:connector-curvature="0"
         id="path47777"
         d="m 269.89258,116.00586 0,21.5 0,21.5 8.5,0 8.5,0 0,-4.5 0,-4.5 -4,0 -4,0 0,-12.5 0,-12.5 4,0 4,0 0,-4.5 0,-4.5 -8.5,0 -8.5,0 z m 17,9 0,12.5 0,12.5 4.5,0 4.5,0 0,-12.5 0,-12.5 -4.5,0 -4.5,0 z"
         style="fill:#f1efd6;fill-opacity:1" />
      <path
         inkscape:connector-curvature="0"
         id="path47773"
         d="m 303.89284,146.00504 0,-13 8.5,0 8.5,0 0,-4 0,-4 -8.5,0 -8.5,0 0,-4.5 0,-4.5 8.5,0 8.5,0 0,4 0,4 4.5,0 4.5,0 0,9 0,9 -8.5,0 -8.5,0 0,4 0,4 8.5,0 8.5,0 0,4.5 0,4.5 -13,0 -13,0 0,-13 z"
         style="fill:#f1efd6;fill-opacity:1" />
      <path
         inkscape:connector-curvature="0"
         id="path47771"
         d="m 346.89284,154.50504 0,-4.5 17,0 17,0 0,4.5 0,4.5 -17,0 -17,0 0,-4.5 z"
         style="fill:#d0ab65;fill-opacity:1" />
      <path
         inkscape:connector-curvature="0"
         id="path47769"
         d="m 346.89284,137.50504 0,-4.5 17,0 17,0 0,4.5 0,4.5 -17,0 -17,0 0,-4.5 z"
         style="fill:#d0ab65;fill-opacity:1" />
      <path
         inkscape:connector-curvature="0"
         id="path47765"
         d="m 337.89284,120.50504 0,-4.5 13,0 13,0 0,4.5 0,4.5 -13,0 -13,0 0,-4.5 z"
         style="fill:#d0ab65;fill-opacity:1" />
    </g>
    <g
       transform="matrix(0.91981937,-0.39234211,0.39234211,0.91981937,0,0)"
       style="font-style:normal;font-variant:normal;font-weight:normal;font-stretch:normal;font-size:143.75px;line-height:125%;font-family:Calibri;-inkscape-font-specification:Calibri;letter-spacing:0px;word-spacing:0px;display:inline;opacity:1;fill:#d0ab65;fill-opacity:1;stroke:none;stroke-width:1px;stroke-linecap:butt;stroke-linejoin:miter;stroke-opacity:1"
       id="text4243">
      <path
         d="m 430.70049,347.36084 q 0.2875,2.0125 0.2875,3.1625 0,6.46875 -4.6,12.50625 -4.45625,5.89375 -14.0875,11.06875 14.95,6.46875 16.53125,17.39375 0.14375,1.00625 0.14375,2.73125 0,6.46875 -5.175,13.225 -3.45,4.6 -14.51875,14.6625 l -40.825,0 q 29.0375,-24.86875 27.8875,-32.775 -0.71875,-4.6 -5.175,-8.19375 -4.45625,-3.59375 -15.38125,-8.48125 14.80625,-8.76875 20.4125,-14.23125 5.60625,-5.4625 5.60625,-10.78125 0,-1.29375 -0.14375,-2.0125 -0.8625,-7.04375 -9.34375,-20.84375 l -1.15,27.8875 -25.3,0 -0.43125,-37.375 27.025,0 -0.2875,6.9 26.30625,0 q 2.3,2.875 6.18125,9.775 5.175,9.4875 6.0375,15.38125 z"
         style="font-style:normal;font-variant:normal;font-weight:100;font-stretch:normal;font-size:143.75px;font-family:BaccaratUpright;-inkscape-font-specification:'BaccaratUpright Thin';fill:#d0ab65;fill-opacity:1"
         id="path3654" />
    </g>
    <g
       transform="matrix(0.98758789,0,-0.14762509,1.0125681,0,0)"
       style="font-style:normal;font-variant:normal;font-weight:100;font-stretch:normal;font-size:32.83750153px;line-height:125%;font-family:BaccaratUpright;-inkscape-font-specification:'BaccaratUpright Thin';letter-spacing:-0.04px;word-spacing:-1.63px;display:inline;opacity:1;fill:#53241c;fill-opacity:1;stroke:none;stroke-width:1px;stroke-linecap:butt;stroke-linejoin:miter;stroke-opacity:1"
       id="text4652">
      <path
         d="m 357.42133,183.18079 -0.0328,4.85995 -5.41818,0.19703 -0.2627,6.23912 5.5167,0 -0.0657,3.84199 -5.54954,0.42689 -0.19702,8.04518 -5.91075,0 -0.36121,-17.10833 5.05697,-1.3135 -5.97642,0.13135 0.45972,-5.31968 12.74095,0 z"
         style=""
         id="path3625" />
      <path
         d="m 367.445,183.60768 -0.36121,23.18327 -5.84508,0 -0.91945,-23.18327 7.12574,0 z"
         style=""
         id="path3627" />
      <path
         d="m 388.74886,183.18079 -0.2627,23.57733 -6.99439,0.62391 -4.03901,-16.51726 0.0985,15.92618 -5.02413,0 -1.5762,-22.23098 8.9318,0 3.9405,17.17401 -1.0508,-19.34129 5.97642,0.7881 z"
         style=""
         id="path3629" />
      <path
         d="m 406.91521,182.39269 1.54336,24.39826 -6.10778,0 -0.49256,-5.28683 -3.61212,0.59107 -0.49257,4.69576 -5.35251,0 0.88661,-22.23098 6.79737,0 -1.51053,14.08728 2.95538,0 -1.67472,-16.25456 7.06007,0 z"
         style=""
         id="path3631" />
      <path
         d="m 425.67643,202.81762 -0.0985,3.97333 -11.52596,0 -0.85378,-23.61016 6.96155,0 -0.2627,19.50548 5.7794,0.13135 z"
         style=""
         id="path3633" />
      <path
         d="m 448.53351,183.18079 -0.0328,4.85995 -5.41819,0.19703 -0.0985,5.254 5.48386,0 -0.0985,3.84198 -5.54954,0.2627 -0.0657,5.02414 5.58237,0.2627 -0.0657,3.90766 -11.23043,0 q -0.0657,-0.16418 -0.0985,-0.29553 -0.0657,-0.2627 -0.0657,-0.49257 -0.32837,-1.93741 -0.55823,-4.7286 -0.19703,-2.79118 -0.19703,-5.61521 0,-3.51361 0.36121,-5.94359 l 4.92563,-1.34633 -6.07494,0.13135 0.45973,-5.31968 12.74095,0 z"
         style=""
         id="path3635" />
      <path
         d="m 467.99898,182.39269 -5.5167,12.51109 5.87791,11.88717 -6.33764,0 -2.8897,-5.61521 -2.52849,5.61521 -4.79427,0 4.53157,-11.06623 -5.81223,-11.16475 6.76452,0 2.33146,4.63008 2.56133,-6.79736 5.81224,0 z"
         style=""
         id="path3637" />
      <path
         d="m 486.7959,187.94223 q 0.0985,0.65675 0.0985,1.3135 0,1.5762 -0.49256,3.57929 -0.36121,1.44485 -1.21499,3.77631 -0.5254,1.41201 -1.41201,3.57929 l -6.50182,0 q 1.37917,-3.08673 2.00308,-4.95847 0.85378,-2.59416 0.85378,-4.56441 0,-0.72242 -0.0985,-1.47769 -0.29554,-1.90457 -2.00309,-3.21807 -1.34634,-1.0508 -5.08982,-2.79119 l 7.88101,-1.64187 q 3.05388,1.77322 4.23603,2.98821 1.44485,1.44485 1.74039,3.4151 z m -9.52287,-2.16728 -0.36122,21.016 -5.68089,0 -0.75526,-21.016 6.79737,0 z"
         style=""
         id="path3639" />
      <path
         d="m 504.18441,182.39269 1.54336,24.39826 -6.10778,0 -0.49256,-5.28683 -3.61212,0.59107 -0.49257,4.69576 -5.35251,0 0.88661,-22.23098 6.79737,0 -1.51053,14.08728 2.95538,0 -1.67472,-16.25456 7.06007,0 z"
         style=""
         id="path3641" />
      <path
         d="m 526.72841,183.18079 -0.2627,23.57733 -6.99439,0.62391 -4.03901,-16.51726 0.0985,15.92618 -5.02414,0 -1.5762,-22.23098 8.9318,0 3.9405,17.17401 -1.0508,-19.34129 5.97643,0.7881 z"
         style=""
         id="path3643" />
      <path
         d="m 544.73056,182.39269 -0.36121,8.6691 -5.54954,0 0,-8.6691 5.91075,0 z m -1.24782,16.61578 q 0.0328,0.22986 0.0328,0.65675 0,1.5762 -0.98512,3.54645 -1.18215,2.33146 -2.42998,3.57928 l -9.16166,0 1.80606,-1.93741 q 1.5762,-1.67471 2.33147,-2.82402 0.7881,-1.18215 0.7881,-2.23295 0,-0.22987 -0.0657,-0.5254 -0.0657,-0.32838 -3.84199,-4.13753 -1.70755,-1.74039 -2.00309,-3.64496 -0.0985,-0.55824 -0.0985,-1.0508 0,-0.95229 0.29554,-2.00309 0.29554,-1.0508 1.44485,-3.87482 l 6.99439,0 q -0.5254,1.11647 -0.91945,2.26578 -0.59108,1.70755 -0.59108,2.85687 0,0.22986 0.0657,0.68958 0.19702,1.37918 4.2032,5.12265 1.87174,1.74039 2.13444,3.51362 z"
         style=""
         id="path3645" />
      <path
         d="m 554.62492,183.60768 -0.36121,23.18327 -5.84508,0 -0.91945,-23.18327 7.12574,0 z"
         style=""
         id="path3647" />
      <path
         d="m 575.56757,191.1603 q 0.0985,0.55824 0.13135,1.41202 0.0328,0.85377 0.0328,0.98512 0,3.21808 -1.08364,6.63318 -1.08364,3.38226 -3.05389,6.60033 l -9.29301,0 q -2.13444,-2.95537 -3.08672,-4.95846 -0.91945,-2.00309 -1.14932,-3.4151 -0.22986,-1.44485 -0.22986,-2.65984 0,-2.29862 0.62391,-4.7286 0.5254,-2.00308 1.54337,-4.33455 l 5.7794,0 q -1.21499,-1.0508 -2.33147,-1.90457 -1.08363,-0.88661 -2.20011,-1.60904 l 8.27505,-1.18215 q 2.59416,2.1016 4.03901,4.23604 1.5762,2.33146 2.00309,4.92562 z m -6.99439,0.88662 q -0.29553,-1.74039 -0.95228,-3.02105 -0.45973,-0.91945 -1.54337,-2.16728 -0.62391,2.627 -0.85377,4.13753 -0.39405,2.59416 -0.39405,4.43306 0,1.34634 0.0328,1.90457 0.0657,0.55824 0.22986,1.77323 0.19702,1.18215 0.59107,2.56132 0.5254,1.8389 1.28067,3.54645 0.91945,-2.56132 1.37917,-5.05697 0.49256,-2.52849 0.49256,-4.85995 0,-1.51053 -0.2627,-3.25091 z"
         style=""
         id="path3649" />
      <path
         d="m 596.60463,183.18079 -0.2627,23.57733 -6.99439,0.62391 -4.03901,-16.51726 0.0985,15.92618 -5.02414,0 -1.5762,-22.23098 8.9318,0 3.9405,17.17401 -1.0508,-19.34129 5.97643,0.7881 z"
         style=""
         id="path3651" />
    </g>
    <g
       transform="scale(1.2088019,0.8272654)"
       style="font-style:normal;font-variant:normal;font-weight:100;font-stretch:normal;font-size:19.53339195px;line-height:125%;font-family:Eurostile-Black-DTC;-inkscape-font-specification:'Eurostile-Black-DTC Thin';letter-spacing:-0.75999999px;word-spacing:-0.47px;display:inline;opacity:1;fill:#53241c;fill-opacity:1;stroke:none;stroke-width:1px;stroke-linecap:butt;stroke-linejoin:miter;stroke-opacity:1"
       id="text3387">
      <path
         d="m 148.5571,121.72295 0,2.50028 -6.40696,0 0,2.50027 q 0.56647,-0.6446 1.19154,-0.78133 0.62507,-0.13674 1.44547,-0.13674 2.34401,0 3.34021,0.93761 1.01574,0.91807 1.01574,3.32067 l 0,0.4102 q 0,0.19534 0,0.37114 0,0.1758 -0.0195,0.3516 -0.0195,0.68367 -0.19534,1.32827 -0.15627,0.62507 -0.6446,1.13294 -0.60554,0.60553 -1.42594,0.83993 -0.8204,0.2344 -1.67987,0.293 -0.33207,0.0195 -0.66414,0.0195 -0.33206,0.0195 -0.66413,0.0195 -0.293,0 -0.586,0 -0.293,0 -0.586,-0.0195 -0.93761,-0.0586 -1.79708,-0.31254 -0.85947,-0.27347 -1.44547,-1.03527 -0.31253,-0.39067 -0.42973,-0.85947 -0.0977,-0.48833 -0.13674,-0.9962 -0.0195,-0.13673 -0.0195,-0.27347 0,-0.13673 -0.0195,-0.27346 0,-0.0195 0,-0.0391 0,-0.0391 0,-0.0586 l 3.32067,-0.0195 q 0.0977,0.72274 0.41021,0.95714 0.33206,0.21487 0.9962,0.21487 1.5236,0 1.89474,-0.31254 0.37113,-0.31253 0.37113,-1.73847 0,-1.21107 -0.4102,-1.44547 -0.39067,-0.2344 -1.5236,-0.2344 -0.0977,0 -0.21487,0 -0.0977,0 -0.19533,0 -0.21487,0 -0.42974,0.0195 -0.19533,0.0195 -0.39067,0.0586 -0.25393,0.0586 -0.37113,0.21487 -0.0977,0.13674 -0.13674,0.3516 l -3.02767,-0.0195 0,-7.28596 9.43463,0 0,0 z"
         style=""
         id="path3586" />
      <path
         d="m 158.88474,121.70342 0,13.02877 -3.35974,0 0,-9.94249 -3.41835,3.06674 -1.95334,-2.20727 4.74662,-3.94575 3.98481,0 0,0 z"
         style=""
         id="path3588" />
      <path
         d="m 172.65026,132.01705 0,2.71514 -10.25503,0 0,-2.94954 q 0,-2.30494 1.15247,-2.98861 1.172,-0.7032 2.96907,-1.0548 0.33207,-0.0781 0.68367,-0.13674 0.3516,-0.0781 0.7032,-0.15626 0.0586,-0.0195 0.0977,-0.0195 0.0391,-0.0195 0.0977,-0.0195 0.74227,-0.19533 0.97667,-0.48833 0.2344,-0.31254 0.2344,-1.17201 0,-0.9962 -0.42974,-1.172 -0.4102,-0.19533 -1.26967,-0.19533 l -0.19533,-0.0195 q -1.15247,0.0195 -1.44547,0.3516 -0.27347,0.33207 -0.27347,1.46501 -0.0195,0.0781 -0.0195,0.15626 0,0.0586 0,0.1172 l -3.28161,-0.0195 q 0,-2.89094 1.15247,-3.82854 1.15247,-0.95714 3.90667,-0.95714 2.36355,0 3.76995,0.7032 1.4064,0.68367 1.4064,3.41835 0,1.13293 -0.25393,2.09007 -0.25393,0.95714 -1.4064,1.48454 -0.54694,0.25393 -1.17201,0.44926 -0.60553,0.17581 -1.25014,0.33207 -0.39066,0.0977 -0.80086,0.19534 -0.39067,0.0781 -0.78134,0.15626 -0.78134,0.1758 -1.03527,0.48834 -0.25393,0.293 -0.25393,1.07433 l 6.97342,-0.0195 0,0 z"
         style=""
         id="path3590" />
      <path
         d="m 181.12955,121.70342 0,7.34456 0.5274,0 1.79707,-3.43788 3.28161,0 -2.57841,4.37548 3.16441,4.74661 -3.47694,0 -2.18774,-3.73087 -0.5274,0 0,3.73087 -2.96908,0 0,-13.02877 2.96908,0 0,0 z"
         style=""
         id="path3592" />
      <path
         d="m 187.75988,134.73219 0,-13.02877 7.09062,0 q 1.77754,0.0195 2.83234,0.68367 1.05481,0.6446 1.05481,2.65654 0,1.13294 -0.31254,1.97287 -0.293,0.82041 -1.71894,1.05481 l 0,0.0977 q 1.32828,0.13674 1.77754,0.83994 0.4688,0.7032 0.4688,1.99241 0,2.18774 -0.879,2.96907 -0.85947,0.7618 -3.16441,0.7618 l -7.14922,0 0,0 z m 3.49648,-2.87141 2.32447,0 q 0.8204,0.0195 1.34781,-0.13673 0.54693,-0.1758 0.54693,-1.13294 0,-0.91807 -0.42973,-1.07433 -0.4102,-0.1758 -1.23061,-0.1758 l -2.55887,-0.0195 0,2.53934 0,0 z m 0,-4.94194 2.22681,0 q 0.0781,0.0195 0.15626,0.0195 0.0781,0 0.13674,0 0.62506,-0.0195 1.0548,-0.15627 0.44927,-0.15626 0.44927,-0.95713 0,-0.70321 -0.25394,-0.95714 -0.2344,-0.27347 -0.9376,-0.27347 l -2.83234,-0.0195 0,2.34401 0,0 z"
         style=""
         id="path3594" />
      <path
         d="m 203.96798,134.73219 0,-13.02877 6.56322,0 q 2.50027,0.0195 3.57461,0.85947 1.07434,0.8204 1.07434,3.43788 0,1.465 -0.33207,2.38307 -0.31253,0.89854 -2.12914,1.2892 l 0,0.1172 q 1.21107,0.0781 1.77754,0.74227 0.586,0.64461 0.586,1.83614 l 0,2.36354 -3.55508,0 0,-1.73847 q 0,-0.78133 -0.31253,-1.2306 -0.293,-0.4688 -1.15247,-0.4688 l -2.59794,-0.0195 0,3.45741 -3.49648,0 0,0 z m 3.49648,-6.42648 2.77374,0 q 0.95714,0.0195 1.15247,-0.42974 0.21487,-0.44927 0.21487,-1.2892 0,-0.95714 -0.21487,-1.40641 -0.21487,-0.44926 -1.32827,-0.44926 l -2.59794,-0.0195 0,3.59415 0,0 z"
         style=""
         id="path3596" />
      <path
         d="m 224.20073,132.48585 -4.66848,0 -0.62507,2.24634 -3.63321,0 3.90668,-13.02877 5.29355,0 3.96528,13.02877 -3.55508,0 -0.68367,-2.24634 0,0 z m -0.68367,-2.5198 -1.6408,-5.66469 -1.60174,5.66469 3.24254,0 0,0 z"
         style=""
         id="path3598" />
      <path
         d="m 244.73472,121.70342 0,13.02877 -3.43787,0 0.25393,-9.98156 -0.0977,0 -3.24254,9.98156 -3.00814,0 -3.32068,-9.98156 -0.1172,0 0.293,9.98156 -3.43787,0 0,-13.02877 5.50841,0 2.48074,8.18449 0.13674,0 2.344,-8.18449 5.64515,0 0,0 z"
         style=""
         id="path3600" />
      <path
         d="m 249.36533,126.91884 3.94574,0 0,-3.92622 1.56267,0 0,3.92622 3.96528,0 0,1.50407 -3.96528,0 0,3.92621 -1.56267,0 0,-3.92621 -3.94574,0 0,-1.50407 0,0 z"
         style=""
         id="path3602" />
      <path
         d="m 273.26378,121.72295 0,2.50028 -6.40695,0 0,2.50027 q 0.56647,-0.6446 1.19154,-0.78133 0.62507,-0.13674 1.44547,-0.13674 2.34401,0 3.34021,0.93761 1.01574,0.91807 1.01574,3.32067 l 0,0.4102 q 0,0.19534 0,0.37114 0,0.1758 -0.0195,0.3516 -0.0195,0.68367 -0.19533,1.32827 -0.15627,0.62507 -0.6446,1.13294 -0.60554,0.60553 -1.42594,0.83993 -0.8204,0.2344 -1.67987,0.293 -0.33207,0.0195 -0.66414,0.0195 -0.33206,0.0195 -0.66413,0.0195 -0.293,0 -0.586,0 -0.29301,0 -0.58601,-0.0195 -0.9376,-0.0586 -1.79707,-0.31254 -0.85947,-0.27347 -1.44547,-1.03527 -0.31253,-0.39067 -0.42973,-0.85947 -0.0977,-0.48833 -0.13674,-0.9962 -0.0195,-0.13673 -0.0195,-0.27347 0,-0.13673 -0.0195,-0.27346 0,-0.0195 0,-0.0391 0,-0.0391 0,-0.0586 l 3.32067,-0.0195 q 0.0977,0.72274 0.4102,0.95714 0.33207,0.21487 0.99621,0.21487 1.5236,0 1.89474,-0.31254 0.37113,-0.31253 0.37113,-1.73847 0,-1.21107 -0.4102,-1.44547 -0.39067,-0.2344 -1.52361,-0.2344 -0.0977,0 -0.21486,0 -0.0977,0 -0.19534,0 -0.21486,0 -0.42973,0.0195 -0.19534,0.0195 -0.39067,0.0586 -0.25393,0.0586 -0.37113,0.21487 -0.0977,0.13674 -0.13674,0.3516 l -3.02767,-0.0195 0,-7.28596 9.43462,0 0,0 z"
         style=""
         id="path3604" />
      <path
         d="m 283.59143,121.70342 0,13.02877 -3.35975,0 0,-9.94249 -3.41834,3.06674 -1.95334,-2.20727 4.74661,-3.94575 3.98482,0 0,0 z"
         style=""
         id="path3606" />
      <path
         d="m 297.35694,132.01705 0,2.71514 -10.25504,0 0,-2.94954 q 0,-2.30494 1.15247,-2.98861 1.17201,-0.7032 2.96908,-1.0548 0.33207,-0.0781 0.68367,-0.13674 0.3516,-0.0781 0.7032,-0.15626 0.0586,-0.0195 0.0977,-0.0195 0.0391,-0.0195 0.0977,-0.0195 0.74226,-0.19533 0.97666,-0.48833 0.23441,-0.31254 0.23441,-1.17201 0,-0.9962 -0.42974,-1.172 -0.4102,-0.19533 -1.26967,-0.19533 l -0.19533,-0.0195 q -1.15247,0.0195 -1.44547,0.3516 -0.27347,0.33207 -0.27347,1.46501 -0.0195,0.0781 -0.0195,0.15626 0,0.0586 0,0.1172 l -3.28161,-0.0195 q 0,-2.89094 1.15247,-3.82854 1.15247,-0.95714 3.90668,-0.95714 2.36354,0 3.76995,0.7032 1.4064,0.68367 1.4064,3.41835 0,1.13293 -0.25393,2.09007 -0.25394,0.95714 -1.40641,1.48454 -0.54693,0.25393 -1.172,0.44926 -0.60553,0.17581 -1.25014,0.33207 -0.39066,0.0977 -0.80087,0.19534 -0.39066,0.0781 -0.78133,0.15626 -0.78134,0.1758 -1.03527,0.48834 -0.25394,0.293 -0.25394,1.07433 l 6.97343,-0.0195 0,0 z"
         style=""
         id="path3608" />
      <path
         d="m 305.83623,121.70342 0,7.34456 0.52741,0 1.79707,-3.43788 3.28161,0 -2.57841,4.37548 3.16441,4.74661 -3.47694,0 -2.18774,-3.73087 -0.52741,0 0,3.73087 -2.96907,0 0,-13.02877 2.96907,0 0,0 z"
         style=""
         id="path3610" />
      <path
         d="m 312.46656,134.73219 0,-13.02877 7.09062,0 q 1.77754,0.0195 2.83234,0.68367 1.05481,0.6446 1.05481,2.65654 0,1.13294 -0.31254,1.97287 -0.293,0.82041 -1.71893,1.05481 l 0,0.0977 q 1.32827,0.13674 1.77753,0.83994 0.46881,0.7032 0.46881,1.99241 0,2.18774 -0.87901,2.96907 -0.85947,0.7618 -3.16441,0.7618 l -7.14922,0 0,0 z m 3.49648,-2.87141 2.32447,0 q 0.8204,0.0195 1.34781,-0.13673 0.54693,-0.1758 0.54693,-1.13294 0,-0.91807 -0.42973,-1.07433 -0.4102,-0.1758 -1.23061,-0.1758 l -2.55887,-0.0195 0,2.53934 0,0 z m 0,-4.94194 2.22681,0 q 0.0781,0.0195 0.15626,0.0195 0.0781,0 0.13674,0 0.62506,-0.0195 1.0548,-0.15627 0.44927,-0.15626 0.44927,-0.95713 0,-0.70321 -0.25394,-0.95714 -0.2344,-0.27347 -0.9376,-0.27347 l -2.83234,-0.0195 0,2.34401 0,0 z"
         style=""
         id="path3612" />
      <path
         d="m 332.17115,124.57483 0,2.53934 5.29355,0 0,2.87141 -5.29355,0 0,4.74661 -3.49647,0 0,-13.02877 9.23929,0 0,2.87141 -5.74282,0 0,0 z"
         style=""
         id="path3614" />
      <path
         d="m 341.48794,121.70342 0,13.02877 -2.96908,0 0,-13.02877 2.96908,0 0,0 z"
         style=""
         id="path3616" />
      <path
         d="m 345.82432,128.32524 -3.00815,0 q 0,-2.01194 1.17201,-2.38307 1.19153,-0.39067 2.83234,-0.39067 1.91427,0 3.20347,0.48833 1.30874,0.48834 1.30874,2.81281 l 0,5.87955 -2.96907,0 0.1172,-1.3478 -0.1172,0 q -0.1172,0.72273 -0.68367,1.03527 -0.54694,0.293 -1.21107,0.3516 -0.2344,0.0391 -0.48834,0.0391 -0.2344,0.0195 -0.44927,0.0195 -1.36733,0 -2.2268,-0.586 -0.85947,-0.586 -0.85947,-2.07054 0,-1.81661 0.9376,-2.38308 0.9376,-0.586 2.53934,-0.586 0.0781,0 0.15627,0 0.0977,0 0.1758,0 0.60554,0.0195 1.15247,0.19534 0.56647,0.1758 0.83994,0.80087 l 0.1172,-0.0195 0,-1.66034 q 0,-0.66413 -0.31254,-0.89853 -0.293,-0.25394 -0.97667,-0.25394 -0.6446,0 -0.9376,0.1758 -0.27347,0.17581 -0.31253,0.80087 l 0,-0.0195 z m -0.39067,3.59414 q 0,0.74227 0.44927,0.87901 0.44926,0.1172 1.01573,0.1172 0.56647,0 1.01574,-0.15627 0.44927,-0.1758 0.44927,-0.83994 0,-0.0391 0,-0.0586 0,-0.0391 0,-0.0586 0,-0.15626 -0.0391,-0.293 -0.0391,-0.13673 -0.15627,-0.2344 -0.15626,-0.1172 -0.37113,-0.1758 -0.19534,-0.0586 -0.42974,-0.0781 -0.15626,-0.0195 -0.33206,-0.0195 -0.15627,0 -0.29301,0 -0.54693,0 -0.9376,0.15626 -0.37113,0.15627 -0.37113,0.78134 l 0,-0.0195 z"
         style=""
         id="path3618" />
      <path
         d="m 360.49875,128.22757 -2.81281,0 q 0,0 -0.0195,0 0,-0.0195 0,-0.0391 0,-0.0195 -0.0195,-0.0391 0,-0.0195 0,-0.0391 -0.0977,-0.44926 -0.39067,-0.54693 -0.293,-0.0977 -0.66414,-0.0977 l -0.54693,-0.0195 q -0.4102,0.0195 -0.74227,0.1172 -0.33207,0.0781 -0.39067,0.586 0,0.6446 0.6446,0.78134 0.66414,0.1172 1.56267,0.13673 0.19534,0.0195 0.39067,0.0195 0.19534,0 0.4102,0.0195 1.11341,0.0586 2.05101,0.50786 0.9376,0.44927 0.9376,2.05101 0,2.10961 -1.38687,2.63701 -1.36734,0.5274 -3.10581,0.5274 -1.77754,0 -3.10581,-0.39067 -1.30873,-0.4102 -1.30873,-2.53934 l 3.02767,-0.0195 q 0,0.66413 0.27347,0.85947 0.27347,0.1758 0.85947,0.1758 l 0.62507,-0.0195 q 0.4688,0.0195 0.83993,-0.0977 0.39067,-0.1172 0.39067,-0.68367 0,-0.62507 -0.39067,-0.74227 -0.37113,-0.13673 -0.879,-0.15627 l -0.60554,-0.0195 q -1.67987,0.0195 -2.89094,-0.39067 -1.21107,-0.42973 -1.21107,-2.46121 0,-2.01194 1.30874,-2.4026 1.30874,-0.39067 2.91047,-0.39067 0.33207,0 0.72274,0.0195 0.39067,0 0.78134,0.0391 1.03527,0.0977 1.89473,0.56647 0.85947,0.44927 0.85947,1.66034 0,0.0586 0,0.1172 0,0.0391 0,0.0781 -0.0195,0.0586 -0.0195,0.1172 0,0.0391 0,0.0977 l 0,-0.0195 z"
         style=""
         id="path3620" />
      <path
         d="m 364.67429,121.70342 0,5.60608 0.1172,0 q 0.37114,-0.9962 0.95714,-1.36733 0.60554,-0.39067 1.67987,-0.39067 1.36734,0 2.18774,0.62507 0.83994,0.60553 0.83994,2.07054 l 0,6.48508 -2.96908,0 0,-5.41075 q 0,-0.68367 -0.21487,-1.07433 -0.19533,-0.39067 -1.03527,-0.39067 -0.8204,0 -1.19153,0.44927 -0.37114,0.42973 -0.37114,1.2306 l 0,5.19588 -2.96907,0 0,-13.02877 2.96907,0 0,0 z"
         style=""
         id="path3622" />
    </g>
    <g
       style="display:inline;opacity:1"
       transform="translate(2.95239,0)"
       id="g3395">
      <path
         d="m 257.64973,158.68038 0,21.70578 -4.41278,0 0,-17.64362 -2.40995,0 0,-4.06252 c 2.66985,-1.5e-4 4.15288,9e-5 6.82273,3.6e-4 z"
         style="font-style:normal;font-variant:normal;font-weight:100;font-stretch:normal;font-size:medium;line-height:125%;font-family:Monotone;-inkscape-font-specification:'Monotone Thin';letter-spacing:0.5px;word-spacing:-5.24000025px;fill:#53241c;fill-opacity:1;stroke:#53241c;stroke-width:1px;stroke-linecap:butt;stroke-linejoin:miter;stroke-opacity:1"
         id="path4311"
         inkscape:connector-curvature="0"
         sodipodi:nodetypes="ccccccc" />
      <path
         inkscape:connector-curvature="0"
         id="path4345"
         style="font-style:normal;font-variant:normal;font-weight:100;font-stretch:normal;font-size:medium;line-height:125%;font-family:Monotone;-inkscape-font-specification:'Monotone Thin';letter-spacing:0.5px;word-spacing:-5.24000025px;fill:none;fill-opacity:1;stroke:#f1efd6;stroke-width:0.5;stroke-linecap:butt;stroke-linejoin:miter;stroke-miterlimit:4;stroke-dasharray:none;stroke-opacity:1"
         d="m 257.64973,158.68038 0,21.70578 -4.41278,0 0,-17.64362 -2.40995,0 0,-4.06251 c 2.66985,-1.5e-4 4.15288,8e-5 6.82273,3.5e-4 z"
         sodipodi:nodetypes="ccccccc" />
    </g>
    <g
       style="display:inline;opacity:1"
       id="g3421">
      <path
         sodipodi:nodetypes="ccccccccc"
         d="m 172.66833,158.68069 5.88311,0 1.38217,12.4695 0.49616,0 1.38218,-12.4695 5.88311,0 -4.30406,21.70547 -6.383,0 z"
         style="font-style:normal;font-variant:normal;font-weight:100;font-stretch:normal;font-size:medium;line-height:125%;font-family:Monotone;-inkscape-font-specification:'Monotone Thin';letter-spacing:0.5px;word-spacing:-5.24000025px;fill:#53241c;fill-opacity:1;stroke:#53241c;stroke-width:1px;stroke-linecap:butt;stroke-linejoin:miter;stroke-opacity:1"
         id="path4301"
         inkscape:connector-curvature="0" />
      <path
         sodipodi:nodetypes="ccccccccc"
         inkscape:connector-curvature="0"
         id="path4322"
         style="font-style:normal;font-variant:normal;font-weight:100;font-stretch:normal;font-size:medium;line-height:125%;font-family:Monotone;-inkscape-font-specification:'Monotone Thin';letter-spacing:0.5px;word-spacing:-5.24000025px;fill:none;fill-opacity:1;stroke:#f1efd6;stroke-width:0.5;stroke-linecap:butt;stroke-linejoin:miter;stroke-miterlimit:4;stroke-dasharray:none;stroke-opacity:1"
         d="m 172.66833,158.68069 5.88311,0 1.38217,12.4695 0.49616,0 1.38218,-12.4695 5.88311,0 -4.30406,21.70547 -6.383,0 z" />
    </g>
    <g
       style="display:inline;opacity:1"
       transform="translate(0.8926,0)"
       id="g3417">
      <path
         sodipodi:nodetypes="ccccc"
         d="m 189.29221,158.68069 4.88293,0 0,21.70547 -4.88293,0 z"
         style="font-style:normal;font-variant:normal;font-weight:100;font-stretch:normal;font-size:medium;line-height:125%;font-family:Monotone;-inkscape-font-specification:'Monotone Thin';letter-spacing:0.5px;word-spacing:-5.24000025px;fill:#53241c;fill-opacity:1;stroke:#53241c;stroke-width:1px;stroke-linecap:butt;stroke-linejoin:miter;stroke-opacity:1"
         id="path4303"
         inkscape:connector-curvature="0" />
      <path
         inkscape:connector-curvature="0"
         id="path4333"
         style="font-style:normal;font-variant:normal;font-weight:100;font-stretch:normal;font-size:medium;line-height:125%;font-family:Monotone;-inkscape-font-specification:'Monotone Thin';letter-spacing:0.5px;word-spacing:-5.24000025px;fill:none;fill-opacity:1;stroke:#f1efd6;stroke-width:0.5;stroke-linecap:butt;stroke-linejoin:miter;stroke-miterlimit:4;stroke-dasharray:none;stroke-opacity:1"
         d="m 189.29221,158.68069 4.88293,0 0,21.70547 -4.88293,0 z"
         sodipodi:nodetypes="ccccc" />
    </g>
    <g
       style="display:inline;opacity:1"
       id="g4256"
       transform="translate(-0.15068,0)">
      <path
         d="m 211.30841,171.08834 0,5.96583 -3.47317,3.33199 -6.16663,0 -4.04021,-3.07812 0,-15.26364 3.79213,-3.36371 5.88311,0 4.00477,3.10985 0,5.23597 -4.81241,0 0,-3.33831 -3.689,0 0,12.236 3.689,0 0,-4.83586 z"
         style="font-style:normal;font-variant:normal;font-weight:100;font-stretch:normal;font-size:medium;line-height:125%;font-family:Monotone;-inkscape-font-specification:'Monotone Thin';letter-spacing:0.5px;word-spacing:-5.24000025px;fill:#53241c;fill-opacity:1;stroke:#53241c;stroke-width:1px;stroke-linecap:butt;stroke-linejoin:miter;stroke-opacity:1"
         id="path4305"
         inkscape:connector-curvature="0"
         sodipodi:nodetypes="ccccccccccccccccc" />
      <path
         sodipodi:nodetypes="ccccccccccccccccc"
         inkscape:connector-curvature="0"
         id="path4335"
         style="font-style:normal;font-variant:normal;font-weight:100;font-stretch:normal;font-size:medium;line-height:125%;font-family:Monotone;-inkscape-font-specification:'Monotone Thin';letter-spacing:0.5px;word-spacing:-5.24000025px;fill:none;fill-opacity:1;stroke:#f1efd6;stroke-width:0.5;stroke-linecap:butt;stroke-linejoin:miter;stroke-miterlimit:4;stroke-dasharray:none;stroke-opacity:1"
         d="m 211.30841,171.08834 0,5.96583 -3.47317,3.33199 -6.16663,0 -4.04021,-3.07812 0,-15.26364 3.79213,-3.36371 5.88311,0 4.00477,3.10985 0,5.23597 -4.81241,0 0,-3.33831 -3.689,0 0,12.236 3.689,0 0,-4.83586 z" />
    </g>
    <g
       style="display:inline;opacity:1"
       id="g4275"
       transform="translate(-0.08737,0)">
      <path
         sodipodi:nodetypes="cccccccccccccccc"
         d="m 235.11872,180.38616 -13.92808,0 0,-4.37196 9.81536,-9.90795 0,-3.14158 -5.2,0 0,2.88771 -4.36728,0 0,-3.80798 3.5086,-3.36371 6.13119,0 4.04021,3.10985 0,5.96583 c -2.66839,2.9527 -2.578,2.83063 -8.3285,8.56795 l 8.3285,0 z"
         style="font-style:normal;font-variant:normal;font-weight:100;font-stretch:normal;font-size:medium;line-height:125%;font-family:Monotone;-inkscape-font-specification:'Monotone Thin';letter-spacing:0.5px;word-spacing:-5.24000025px;fill:#53241c;fill-opacity:1;stroke:#53241c;stroke-width:1px;stroke-linecap:butt;stroke-linejoin:miter;stroke-opacity:1"
         id="path4307"
         inkscape:connector-curvature="0" />
      <path
         sodipodi:nodetypes="cccccccccccccccc"
         inkscape:connector-curvature="0"
         id="path4341"
         style="font-style:normal;font-variant:normal;font-weight:100;font-stretch:normal;font-size:medium;line-height:125%;font-family:Monotone;-inkscape-font-specification:'Monotone Thin';letter-spacing:0.5px;word-spacing:-5.24000025px;fill:none;fill-opacity:1;stroke:#f1efd6;stroke-width:0.5;stroke-linecap:butt;stroke-linejoin:miter;stroke-miterlimit:4;stroke-dasharray:none;stroke-opacity:1"
         d="m 235.11872,180.38616 -13.92808,0 0,-4.37196 9.81536,-9.90795 0,-3.14158 -5.2,0 0,2.88771 -4.36728,0 0,-3.80798 3.5086,-3.36371 6.13119,0 4.04021,3.10985 0,5.96583 c -2.66839,2.9527 -2.53168,2.78159 -8.3285,8.56795 l 8.3285,0 z" />
    </g>
    <g
       style="display:inline;opacity:1"
       transform="translate(2.71744,0)"
       id="g3391">
      <path
         d="m 234.72389,162.0444 3.75669,-3.36371 6.41471,0 3.75668,3.36371 0,15.00977 -3.75668,3.33199 -6.69824,0 -3.47316,-3.33199 z m 9.01604,14.27992 0,-13.35965 -4.104,0 0,13.35965 z"
         style="font-style:normal;font-variant:normal;font-weight:100;font-stretch:normal;font-size:medium;line-height:125%;font-family:Monotone;-inkscape-font-specification:'Monotone Thin';letter-spacing:0.5px;word-spacing:-5.24000025px;fill:#53241c;fill-opacity:1;stroke:#53241c;stroke-width:1px;stroke-linecap:butt;stroke-linejoin:miter;stroke-opacity:1"
         id="path4309"
         inkscape:connector-curvature="0"
         sodipodi:nodetypes="cccccccccccccc" />
      <path
         inkscape:connector-curvature="0"
         id="path4343"
         style="font-style:normal;font-variant:normal;font-weight:100;font-stretch:normal;font-size:medium;line-height:125%;font-family:Monotone;-inkscape-font-specification:'Monotone Thin';letter-spacing:0.5px;word-spacing:-5.24000025px;fill:none;fill-opacity:1;stroke:#f1efd6;stroke-width:0.5;stroke-linecap:butt;stroke-linejoin:miter;stroke-miterlimit:4;stroke-dasharray:none;stroke-opacity:1"
         d="m 234.72389,162.0444 3.75704,-3.36371 6.414,-4.9e-4 3.75704,3.3642 0,15.00977 -3.75668,3.33199 -6.69824,0 -3.47316,-3.33199 z m 9.01604,14.27992 0,-13.35965 -4.104,0 0,13.35965 z"
         sodipodi:nodetypes="cccccccccccccc" />
    </g>
    <g
       style="display:inline;opacity:1"
       transform="translate(2.00009,0)"
       id="g3399">
      <path
         d="m 264.5206,180.38616 -3.5086,-3.33199 0,-15.26363 3.50895,-3.10985 6.166,0 3.75696,3.36371 0,3.55412 -5.23996,0 0,-2.85598 -3.2,0 0,4.7917 5.21488,0 3.22508,2.82425 0,6.69568 -3.47315,3.33199 z m 4.68335,-4.06184 0,-4.75997 -3.2,0 0,4.75997 z"
         style="font-style:normal;font-variant:normal;font-weight:100;font-stretch:normal;font-size:medium;line-height:125%;font-family:Monotone;-inkscape-font-specification:'Monotone Thin';letter-spacing:0.5px;word-spacing:-5.24000025px;fill:#53241c;fill-opacity:1;stroke:#53241c;stroke-width:1px;stroke-linecap:butt;stroke-linejoin:miter;stroke-opacity:1"
         id="path4313"
         inkscape:connector-curvature="0"
         sodipodi:nodetypes="ccccccccccccccccccccc" />
      <path
         inkscape:connector-curvature="0"
         id="path4347"
         style="font-style:normal;font-variant:normal;font-weight:100;font-stretch:normal;font-size:medium;line-height:125%;font-family:Monotone;-inkscape-font-specification:'Monotone Thin';letter-spacing:0.5px;word-spacing:-5.24000025px;fill:none;fill-opacity:1;stroke:#f1efd6;stroke-width:0.5;stroke-linecap:butt;stroke-linejoin:miter;stroke-miterlimit:4;stroke-dasharray:none;stroke-opacity:1"
         d="m 264.5206,180.38616 -3.5086,-3.33199 0,-15.26363 3.5086,-3.10985 6.16663,0 3.75668,3.36371 0,3.55412 -5.23998,0 4e-5,-2.85598 -3.20002,0 0,4.7917 5.21488,0 3.22508,2.82425 0,6.69568 -3.47315,3.33199 z m 4.68333,-4.06184 0,-4.75997 -3.19998,0 0,4.75997 z"
         sodipodi:nodetypes="ccccccccccccccccccccc" />
    </g>
    <g
       style="display:inline;opacity:1"
       id="g4264"
       transform="translate(0.19176,0)">
      <g
         id="g3407"
         transform="matrix(1.3237323,0,0,1.0944529,-69.177493,-16.305513)">
        <g
           id="text4337"
           style="font-style:normal;font-variant:normal;font-weight:100;font-stretch:normal;font-size:29.72056198px;line-height:125%;font-family:Monotone;-inkscape-font-specification:'Monotone Thin';letter-spacing:0px;word-spacing:0px;display:inline;fill:none;fill-opacity:1;stroke:#f1efd6;stroke-width:0.5;stroke-linecap:butt;stroke-linejoin:miter;stroke-miterlimit:4;stroke-dasharray:none;stroke-opacity:1"
           transform="scale(0.71531697,1.3979817)">
          <path
             inkscape:connector-curvature="0"
             id="path3441"
             d="m 298.37407,119.92738 5.46859,0 0,2.64513 -5.46859,0 0,-2.64513 z" />
        </g>
        <g
           id="text3371"
           style="font-style:normal;font-variant:normal;font-weight:100;font-stretch:normal;font-size:29.72056198px;line-height:125%;font-family:Monotone;-inkscape-font-specification:'Monotone Thin';letter-spacing:0px;word-spacing:0px;display:inline;fill:#53241c;fill-opacity:1;stroke:#53241c;stroke-width:1px;stroke-linecap:butt;stroke-linejoin:miter;stroke-opacity:1"
           transform="scale(0.71531697,1.3979817)">
          <path
             sodipodi:nodetypes="ccccc"
             inkscape:connector-curvature="0"
             id="path3444"
             d="m 298.37407,119.92738 5.46909,-1.2e-4 -5e-4,2.64525 -5.46859,0 z" />
        </g>
      </g>
      <g
         id="g3448"
         style="font-style:normal;font-variant:normal;font-weight:100;font-stretch:normal;font-size:29.72056198px;line-height:125%;font-family:Monotone;-inkscape-font-specification:'Monotone Thin';letter-spacing:0px;word-spacing:0px;display:inline;fill:none;fill-opacity:1;stroke:#f1efd6;stroke-width:0.41540468;stroke-linecap:butt;stroke-linejoin:miter;stroke-miterlimit:4;stroke-dasharray:none;stroke-opacity:1"
         transform="matrix(0.94688818,0,0,1.5300251,-69.177493,-16.305513)">
        <path
           inkscape:connector-curvature="0"
           id="path3450"
           d="m 298.37407,119.92738 5.46859,0 0,2.64513 -5.46859,0 0,-2.64513 z"
           style="stroke:#f1efd6;stroke-width:0.41540468;stroke-miterlimit:4;stroke-dasharray:none;stroke-opacity:1" />
      </g>
      <g
         id="g3452"
         style="font-style:normal;font-variant:normal;font-weight:100;font-stretch:normal;font-size:29.72056198px;line-height:125%;font-family:Monotone;-inkscape-font-specification:'Monotone Thin';letter-spacing:0px;word-spacing:0px;display:inline;fill:#53241c;fill-opacity:1;stroke:#f1efd6;stroke-width:0.41540468;stroke-linecap:butt;stroke-linejoin:miter;stroke-miterlimit:4;stroke-dasharray:none;stroke-opacity:1"
         transform="matrix(0.94688818,0,0,1.5300251,-69.177493,-16.305513)">
        <path
           sodipodi:nodetypes="ccccc"
           inkscape:connector-curvature="0"
           id="path3454"
           d="m 298.37407,119.92738 5.46909,-1.2e-4 -5e-4,2.64525 -5.46859,0 z"
           style="stroke:#f1efd6;stroke-width:0.41540468;stroke-miterlimit:4;stroke-dasharray:none;stroke-opacity:1" />
      </g>
    </g>
  </g>
</svg>
