<?xml version="1.0" encoding="UTF-8" standalone="no"?>
<!-- Created with Inkscape (http://www.inkscape.org/) -->

<svg
   xmlns:dc="http://purl.org/dc/elements/1.1/"
   xmlns:cc="http://creativecommons.org/ns#"
   xmlns:rdf="http://www.w3.org/1999/02/22-rdf-syntax-ns#"
   xmlns:svg="http://www.w3.org/2000/svg"
   xmlns="http://www.w3.org/2000/svg"
   xmlns:sodipodi="http://sodipodi.sourceforge.net/DTD/sodipodi-0.dtd"
   xmlns:inkscape="http://www.inkscape.org/namespaces/inkscape"
   width="210mm"
   height="297mm"
   viewBox="0 0 744.09448819 1052.3622047"
   id="svg2"
   version="1.1"
   inkscape:version="0.91 r13725"
   sodipodi:docname="Silhouette FE3 Rev 11 COREi64 Label DIP 2017-01-05.svg"
   inkscape:export-filename="C:\Users\heather\Desktop\Projects\Final Expansion 3\Label\FE3 Rev 11 COREi64 2016-12-20.png"
   inkscape:export-xdpi="600"
   inkscape:export-ydpi="600">
  <defs
     id="defs4" />
  <sodipodi:namedview
     id="base"
     pagecolor="#ffffff"
     bordercolor="#666666"
     borderopacity="1.0"
     inkscape:pageopacity="0.0"
     inkscape:pageshadow="2"
     inkscape:zoom="3.3866679"
     inkscape:cx="391.75683"
     inkscape:cy="676.1874"
     inkscape:document-units="px"
     inkscape:current-layer="g3439"
     showgrid="false"
     inkscape:window-width="1920"
     inkscape:window-height="1137"
     inkscape:window-x="-8"
     inkscape:window-y="-8"
     inkscape:window-maximized="1"
     inkscape:object-paths="true"
     inkscape:snap-intersection-paths="true"
     inkscape:snap-smooth-nodes="true"
     inkscape:object-nodes="true"
     inkscape:snap-midpoints="true"
     inkscape:snap-others="true"
     inkscape:snap-object-midpoints="false"
     inkscape:snap-bbox="false"
     inkscape:snap-global="true" />
  <metadata
     id="metadata7">
    <rdf:RDF>
      <cc:Work
         rdf:about="">
        <dc:format>image/svg+xml</dc:format>
        <dc:type
           rdf:resource="http://purl.org/dc/dcmitype/StillImage" />
        <dc:title></dc:title>
      </cc:Work>
    </rdf:RDF>
  </metadata>
  <g
     style="display:inline"
     inkscape:label="Label"
     id="g3439"
     inkscape:groupmode="layer">
    <path
       style="color:#000000;display:inline;overflow:visible;visibility:visible;opacity:1;fill:#f1efd6;fill-opacity:1;fill-rule:nonzero;stroke:none;stroke-width:0.1;stroke-linecap:square;stroke-linejoin:miter;stroke-miterlimit:4;stroke-dasharray:none;stroke-dashoffset:0;stroke-opacity:1;marker:none;enable-background:accumulate"
       d="m 166.87109,262.78906 c -0.554,0 -1,0.446 -1,1 l 0,30.82514 1.20535,0 c 3.88658,-2.1e-4 7.03732,3.15007 7.03711,7.03665 2.1e-4,3.88658 -3.15053,7.03756 -7.03711,7.03735 l -1.20535,0 0,5.396 1.20535,0 c 3.88658,-2.1e-4 7.03732,3.15077 7.03711,7.03735 2.1e-4,3.88658 -3.15053,7.03686 -7.03711,7.03665 l -1.20535,0 0,160.40235 c 0,0.554 0.446,1 1,1 l 449.77149,0 c 0.554,0 1,-0.446 1,-1 l 0,-224.77149 c 0,-0.554 -0.446,-1 -1,-1 l -69.70564,9.2e-4 0,92.47308 c 0,2.493 -2.12221,4.50001 -4.75781,4.5 l -148.30139,-4.2e-4 c -2.6356,-10e-6 -4.75586,-2.00702 -4.75586,-4.5 l 0,-92.47308 -37.19018,0 0,92.47308 c 0,2.493 -2.007,4.50001 -4.5,4.5 l -147.39784,-5e-4 c -2.493,-10e-6 -4.5,-2.007 -4.5,-4.5 l 0,-92.47308 z"
       id="path3442"
       inkscape:connector-curvature="0"
       sodipodi:nodetypes="ssccccccccccsssssscssssccsssscs" />
    <g
       style="display:inline"
       id="g4233"
       transform="translate(-8.1e-4,0.71122)">
      <path
         style="color:#000000;display:inline;overflow:visible;visibility:visible;opacity:1;fill:#53241c;fill-opacity:1;fill-rule:nonzero;stroke:none;stroke-width:6.00199986;stroke-linecap:square;stroke-linejoin:round;stroke-miterlimit:0;stroke-dasharray:none;stroke-dashoffset:0;stroke-opacity:1;marker:none;enable-background:accumulate"
         d="m 402.9122,436.97917 0,8.53892 -202.20711,0 23.16057,24.74079 179.04654,0 0,8.54049 19.26638,-20.91089 z"
         id="path3547"
         inkscape:connector-curvature="0"
         sodipodi:nodetypes="cccccccc" />
      <path
         sodipodi:nodetypes="cccccccc"
         inkscape:connector-curvature="0"
         id="path3549"
         d="m 378.12222,410.5968 0,8.53893 -202.20659,0 23.15976,24.74078 179.04683,0 0,8.54051 19.26638,-20.9109 z"
         style="color:#000000;display:inline;overflow:visible;visibility:visible;opacity:1;fill:#53241c;fill-opacity:1;fill-rule:nonzero;stroke:none;stroke-width:6.00199986;stroke-linecap:square;stroke-linejoin:round;stroke-miterlimit:0;stroke-dasharray:none;stroke-dashoffset:0;stroke-opacity:1;marker:none;enable-background:accumulate" />
      <path
         inkscape:connector-curvature="0"
         style="color:#000000;display:inline;overflow:visible;visibility:visible;opacity:1;fill:#f1efd6;fill-opacity:1;fill-rule:nonzero;stroke:none;stroke-width:6.00199986;stroke-linecap:square;stroke-linejoin:round;stroke-miterlimit:0;stroke-dasharray:none;stroke-dashoffset:0;stroke-opacity:1;marker:none;enable-background:accumulate"
         d="m 365.21264,424.6092 0,8.53909 -194.08787,0 0,8.67232 15.04131,16.06884 179.04656,0 0,8.53909 19.26644,-20.90967 z"
         id="path3551"
         sodipodi:nodetypes="ccccccccc" />
    </g>
    <path
       sodipodi:nodetypes="cccccccccccccc"
       inkscape:connector-curvature="0"
       id="path3555"
       d="m 177.02547,364.31613 c -2.78147,0 -5.90047,3.11882 -5.90047,5.90027 l 0,108.91531 c 0,2.78128 3.11919,5.89948 5.90047,5.89948 l 429.46284,0 c 2.78123,0 5.9003,-3.11825 5.9003,-5.89948 l 0,-108.91531 c 0,-2.78149 -3.11881,-5.90057 -5.9003,-5.90057 z m -1.11015,4.79013 431.68319,-3.3e-4 0,111.13555 -431.68341,0 z"
       style="color:#000000;font-style:normal;font-variant:normal;font-weight:normal;font-stretch:normal;font-size:medium;line-height:normal;font-family:sans-serif;text-indent:0;text-align:start;text-decoration:none;text-decoration-line:none;text-decoration-style:solid;text-decoration-color:#000000;letter-spacing:normal;word-spacing:normal;text-transform:none;direction:ltr;block-progression:tb;writing-mode:lr-tb;baseline-shift:baseline;text-anchor:start;white-space:normal;clip-rule:nonzero;display:inline;overflow:visible;visibility:visible;opacity:1;isolation:auto;mix-blend-mode:normal;color-interpolation:sRGB;color-interpolation-filters:linearRGB;solid-color:#000000;solid-opacity:1;fill:#53241c;fill-opacity:1;fill-rule:nonzero;stroke:none;stroke-width:6.00199986;stroke-linecap:square;stroke-linejoin:round;stroke-miterlimit:0;stroke-dasharray:none;stroke-dashoffset:0;stroke-opacity:1;marker:none;color-rendering:auto;image-rendering:auto;shape-rendering:auto;text-rendering:auto;enable-background:accumulate" />
    <path
       style="color:#000000;display:inline;overflow:visible;visibility:visible;opacity:1;fill:#d0ab65;fill-opacity:1;fill-rule:nonzero;stroke:none;stroke-width:6.00199986;stroke-linecap:square;stroke-linejoin:round;stroke-miterlimit:0;stroke-dasharray:none;stroke-dashoffset:0;stroke-opacity:1;marker:none;enable-background:accumulate"
       d="m 175.91563,369.10712 336.40717,0 -16.14159,17.51808 -320.26563,3.1e-4 z"
       id="rect4190"
       inkscape:connector-curvature="0"
       sodipodi:nodetypes="ccccc" />
    <path
       sodipodi:nodetypes="ccccc"
       inkscape:connector-curvature="0"
       id="path4197"
       d="m 607.59882,480.24235 -200.145,3.7e-4 18.66801,-20.16692 181.47703,0 z"
       style="color:#000000;display:inline;overflow:visible;visibility:visible;opacity:1;fill:#d0ab65;fill-opacity:1;fill-rule:nonzero;stroke:none;stroke-width:6.00199986;stroke-linecap:square;stroke-linejoin:round;stroke-miterlimit:0;stroke-dasharray:none;stroke-dashoffset:0;stroke-opacity:1;marker:none;enable-background:accumulate" />
    <path
       style="color:#000000;font-style:normal;font-variant:normal;font-weight:normal;font-stretch:normal;font-size:medium;line-height:normal;font-family:sans-serif;text-indent:0;text-align:start;text-decoration:none;text-decoration-line:none;text-decoration-style:solid;text-decoration-color:#000000;letter-spacing:normal;word-spacing:normal;text-transform:none;direction:ltr;block-progression:tb;writing-mode:lr-tb;baseline-shift:baseline;text-anchor:start;white-space:normal;clip-rule:nonzero;display:inline;overflow:visible;visibility:visible;opacity:1;isolation:auto;mix-blend-mode:normal;color-interpolation:sRGB;color-interpolation-filters:linearRGB;solid-color:#000000;solid-opacity:1;fill:#53241c;fill-opacity:1;fill-rule:nonzero;stroke:none;stroke-width:6.00199986;stroke-linecap:square;stroke-linejoin:round;stroke-miterlimit:0;stroke-dasharray:none;stroke-dashoffset:0;stroke-opacity:1;marker:none;color-rendering:auto;image-rendering:auto;shape-rendering:auto;text-rendering:auto;enable-background:accumulate"
       d="m 557.70591,315.8809 c -2.78147,0 -5.90047,3.11882 -5.90047,5.90027 l 0,30.6631 c 0,2.78128 3.11919,5.89948 5.90047,5.89948 l 49.52135,0 c 2.78123,0 5.9003,-3.11825 5.9003,-5.89948 l 0,-30.6631 c 0,-2.78149 -3.11881,-5.90057 -5.9003,-5.90057 z m -1.11015,4.79013 51.7417,-3.3e-4 0,32.88334 -51.74192,0 z"
       id="path4229"
       inkscape:connector-curvature="0"
       sodipodi:nodetypes="cccccccccccccc" />
    <path
       sodipodi:nodetypes="cccccccccccccc"
       inkscape:connector-curvature="0"
       id="path4231"
       d="m 557.70591,268.10402 c -2.78147,0 -5.90047,3.11882 -5.90047,5.90027 l 0,30.6631 c 0,2.78128 3.11919,5.89948 5.90047,5.89948 l 49.52135,0 c 2.78123,0 5.9003,-3.11825 5.9003,-5.89948 l 0,-30.6631 c 0,-2.78149 -3.11881,-5.90057 -5.9003,-5.90057 z m -1.11015,4.79013 51.7417,-3.3e-4 0,32.88334 -51.74192,0 z"
       style="color:#000000;font-style:normal;font-variant:normal;font-weight:normal;font-stretch:normal;font-size:medium;line-height:normal;font-family:sans-serif;text-indent:0;text-align:start;text-decoration:none;text-decoration-line:none;text-decoration-style:solid;text-decoration-color:#000000;letter-spacing:normal;word-spacing:normal;text-transform:none;direction:ltr;block-progression:tb;writing-mode:lr-tb;baseline-shift:baseline;text-anchor:start;white-space:normal;clip-rule:nonzero;display:inline;overflow:visible;visibility:visible;opacity:1;isolation:auto;mix-blend-mode:normal;color-interpolation:sRGB;color-interpolation-filters:linearRGB;solid-color:#000000;solid-opacity:1;fill:#53241c;fill-opacity:1;fill-rule:nonzero;stroke:none;stroke-width:6.00199986;stroke-linecap:square;stroke-linejoin:round;stroke-miterlimit:0;stroke-dasharray:none;stroke-dashoffset:0;stroke-opacity:1;marker:none;color-rendering:auto;image-rendering:auto;shape-rendering:auto;text-rendering:auto;enable-background:accumulate" />
    <path
       sodipodi:nodetypes="cccccccccccccc"
       inkscape:connector-curvature="0"
       id="path5222"
       d="m 362.10806,268.15432 c -2.78147,0 -5.90047,3.11882 -5.90047,5.90027 l 0,78.43998 c 0,2.78128 3.11919,5.89948 5.90047,5.89948 l 16.83765,0 c 2.78123,0 5.9003,-3.11825 5.9003,-5.89948 l 0,-78.43998 c 0,-2.78149 -3.11881,-5.90057 -5.9003,-5.90057 z m -1.11015,4.79013 19.058,-3.3e-4 0,80.66022 -19.05822,0 z"
       style="color:#000000;font-style:normal;font-variant:normal;font-weight:normal;font-stretch:normal;font-size:medium;line-height:normal;font-family:sans-serif;text-indent:0;text-align:start;text-decoration:none;text-decoration-line:none;text-decoration-style:solid;text-decoration-color:#000000;letter-spacing:normal;word-spacing:normal;text-transform:none;direction:ltr;block-progression:tb;writing-mode:lr-tb;baseline-shift:baseline;text-anchor:start;white-space:normal;clip-rule:nonzero;display:inline;overflow:visible;visibility:visible;opacity:1;isolation:auto;mix-blend-mode:normal;color-interpolation:sRGB;color-interpolation-filters:linearRGB;solid-color:#000000;solid-opacity:1;fill:#53241c;fill-opacity:1;fill-rule:nonzero;stroke:none;stroke-width:6.00199986;stroke-linecap:square;stroke-linejoin:round;stroke-miterlimit:0;stroke-dasharray:none;stroke-dashoffset:0;stroke-opacity:1;marker:none;color-rendering:auto;image-rendering:auto;shape-rendering:auto;text-rendering:auto;enable-background:accumulate" />
    <path
       transform="matrix(0.91981937,-0.39234211,0.39234211,0.91981937,0,0)"
       d="m 382.52575,581.82717 q 0.22833,1.5983 0.22833,2.51162 0,5.13742 -3.65327,9.93234 -3.53911,4.68076 -11.18815,8.79069 11.87314,5.13742 13.12895,13.81394 0.11417,0.79916 0.11417,2.16914 0,5.13741 -4.10994,10.50316 -2.73995,3.65327 -11.53064,11.64481 l -32.42281,0 q 23.06129,-19.75051 22.14797,-26.02958 -0.57082,-3.65327 -4.10993,-6.50739 -3.53911,-2.85412 -12.21564,-6.73573 11.75898,-6.96405 16.21141,-11.30231 4.45243,-4.33827 4.45243,-8.56236 0,-1.02749 -0.11417,-1.59831 -0.68499,-5.59408 -7.42071,-16.5539 l -0.91332,22.14797 -20.09301,0 -0.34249,-29.68285 21.46298,0 -0.22833,5.47991 20.89216,0 q 1.82664,2.2833 4.90909,7.76321 4.10994,7.53488 4.79492,12.21564 z"
       style="display:inline;font-style:normal;font-variant:normal;font-weight:100;font-stretch:normal;font-size:114.16481781px;line-height:125%;font-family:BaccaratUpright;-inkscape-font-specification:'BaccaratUpright Thin';letter-spacing:0px;word-spacing:0px;opacity:1;fill:#d0ab65;fill-opacity:1;stroke:none;stroke-width:1px;stroke-linecap:butt;stroke-linejoin:miter;stroke-opacity:1"
       id="path4369" />
    <flowRoot
       xml:space="preserve"
       id="flowRoot4644"
       style="display:inline;font-style:normal;font-variant:normal;font-weight:100;font-stretch:normal;font-size:50px;line-height:125%;font-family:Monotone;-inkscape-font-specification:'Monotone Thin';letter-spacing:0px;word-spacing:0px;fill:#000000;fill-opacity:1;stroke:none;stroke-width:1px;stroke-linecap:butt;stroke-linejoin:miter;stroke-opacity:1"
       transform="matrix(0.32831904,0,0,0.6416512,235.46705,306.46306)"><flowRegion
         id="flowRegion4646"><rect
           id="rect4648"
           width="272.16711"
           height="72.384865"
           x="312.70264"
           y="84.335251"
           style="font-style:normal;font-variant:normal;font-weight:100;font-stretch:normal;font-size:50px;font-family:Monotone;-inkscape-font-specification:'Monotone Thin'" /></flowRegion><flowPara
         id="flowPara4650" /></flowRoot>    <g
       transform="scale(1.2088019,0.82726541)"
       style="display:inline;font-style:normal;font-variant:normal;font-weight:100;font-stretch:normal;font-size:19.53339195px;line-height:125%;font-family:Eurostile-Black-DTC;-inkscape-font-specification:'Eurostile-Black-DTC Thin';letter-spacing:-0.75999999px;word-spacing:-0.47px;opacity:1;fill:#53241c;fill-opacity:1;stroke:none;stroke-width:1px;stroke-linecap:butt;stroke-linejoin:miter;stroke-opacity:1"
       id="text3387">
      <path
         d="m 158.73231,450.25114 0,2.50027 -6.40695,0 0,2.50028 q 0.56647,-0.64461 1.19154,-0.78134 0.62507,-0.13673 1.44547,-0.13673 2.34401,0 3.34021,0.9376 1.01574,0.91807 1.01574,3.32068 l 0,0.4102 q 0,0.19533 0,0.37113 0,0.1758 -0.0195,0.3516 -0.0195,0.68367 -0.19533,1.32827 -0.15627,0.62507 -0.6446,1.13294 -0.60554,0.60553 -1.42594,0.83994 -0.8204,0.2344 -1.67987,0.293 -0.33207,0.0195 -0.66414,0.0195 -0.33207,0.0195 -0.66413,0.0195 -0.293,0 -0.58601,0 -0.293,0 -0.586,-0.0195 -0.9376,-0.0586 -1.79707,-0.31253 -0.85947,-0.27347 -1.44547,-1.03527 -0.31253,-0.39067 -0.42974,-0.85947 -0.0977,-0.48834 -0.13673,-0.99621 -0.0195,-0.13673 -0.0195,-0.27346 0,-0.13674 -0.0195,-0.27347 0,-0.0195 0,-0.0391 0,-0.0391 0,-0.0586 l 3.32068,-0.0195 q 0.0977,0.72273 0.4102,0.95713 0.33207,0.21487 0.99621,0.21487 1.5236,0 1.89473,-0.31253 0.37114,-0.31254 0.37114,-1.73847 0,-1.21108 -0.4102,-1.44548 -0.39067,-0.2344 -1.52361,-0.2344 -0.0977,0 -0.21486,0 -0.0977,0 -0.19534,0 -0.21487,0 -0.42973,0.0195 -0.19534,0.0195 -0.39067,0.0586 -0.25393,0.0586 -0.37114,0.21486 -0.0977,0.13674 -0.13673,0.35161 l -3.02767,-0.0195 0,-7.28595 9.43462,0 0,0 z"
         style=""
         id="path4297" />
      <path
         d="m 169.05996,450.2316 0,13.02878 -3.35975,0 0,-9.9425 -3.41834,3.06674 -1.95334,-2.20727 4.74661,-3.94575 3.98482,0 0,0 z"
         style=""
         id="path4299" />
      <path
         d="m 182.82547,460.54523 0,2.71515 -10.25503,0 0,-2.94955 q 0,-2.30494 1.15247,-2.98861 1.17201,-0.7032 2.96908,-1.0548 0.33207,-0.0781 0.68367,-0.13673 0.3516,-0.0781 0.7032,-0.15627 0.0586,-0.0195 0.0977,-0.0195 0.0391,-0.0195 0.0977,-0.0195 0.74227,-0.19533 0.97667,-0.48833 0.2344,-0.31254 0.2344,-1.172 0,-0.99621 -0.42973,-1.17201 -0.4102,-0.19533 -1.26967,-0.19533 l -0.19534,-0.0195 q -1.15247,0.0195 -1.44547,0.35161 -0.27346,0.33206 -0.27346,1.465 -0.0195,0.0781 -0.0195,0.15627 0,0.0586 0,0.1172 l -3.28161,-0.0195 q 0,-2.89094 1.15247,-3.82854 1.15247,-0.95714 3.90668,-0.95714 2.36354,0 3.76995,0.70321 1.4064,0.68366 1.4064,3.41834 0,1.13294 -0.25393,2.09007 -0.25394,0.95714 -1.40641,1.48454 -0.54693,0.25393 -1.172,0.44927 -0.60554,0.1758 -1.25014,0.33207 -0.39067,0.0977 -0.80087,0.19533 -0.39067,0.0781 -0.78133,0.15627 -0.78134,0.1758 -1.03527,0.48833 -0.25394,0.293 -0.25394,1.07434 l 6.97342,-0.0195 0,0 z"
         style=""
         id="path4302" />
      <path
         d="m 191.30476,450.2316 0,7.34456 0.52741,0 1.79707,-3.43788 3.28161,0 -2.57841,4.37548 3.16441,4.74662 -3.47694,0 -2.18774,-3.73088 -0.52741,0 0,3.73088 -2.96907,0 0,-13.02878 2.96907,0 0,0 z"
         style=""
         id="path4304" />
      <path
         d="m 197.9351,463.26038 0,-13.02878 7.09062,0 q 1.77754,0.0195 2.83234,0.68367 1.0548,0.6446 1.0548,2.65654 0,1.13294 -0.31253,1.97288 -0.293,0.8204 -1.71894,1.0548 l 0,0.0977 q 1.32827,0.13673 1.77754,0.83993 0.4688,0.7032 0.4688,1.99241 0,2.18774 -0.879,2.96907 -0.85947,0.76181 -3.16441,0.76181 l -7.14922,0 0,0 z m 3.49648,-2.87141 2.32447,0 q 0.8204,0.0195 1.3478,-0.13674 0.54694,-0.1758 0.54694,-1.13293 0,-0.91807 -0.42974,-1.07434 -0.4102,-0.1758 -1.2306,-0.1758 l -2.55887,-0.0195 0,2.53934 0,0 z m 0,-4.94195 2.2268,0 q 0.0781,0.0195 0.15627,0.0195 0.0781,0 0.13673,0 0.62507,-0.0195 1.05481,-0.15626 0.44926,-0.15627 0.44926,-0.95714 0,-0.7032 -0.25393,-0.95714 -0.2344,-0.27346 -0.9376,-0.27346 l -2.83234,-0.0195 0,2.34401 0,0 z"
         style=""
         id="path4306" />
      <path
         d="m 214.1432,463.26038 0,-13.02878 6.56322,0 q 2.50027,0.0195 3.57461,0.85947 1.07433,0.82041 1.07433,3.43788 0,1.465 -0.33206,2.38307 -0.31254,0.89854 -2.12914,1.28921 l 0,0.1172 q 1.21107,0.0781 1.77754,0.74227 0.586,0.6446 0.586,1.83614 l 0,2.36354 -3.55508,0 0,-1.73848 q 0,-0.78133 -0.31253,-1.2306 -0.29301,-0.4688 -1.15247,-0.4688 l -2.59795,-0.0195 0,3.45741 -3.49647,0 0,0 z m 3.49647,-6.42649 2.77375,0 q 0.95713,0.0195 1.15247,-0.42973 0.21486,-0.44927 0.21486,-1.28921 0,-0.95713 -0.21486,-1.4064 -0.21487,-0.44927 -1.32827,-0.44927 l -2.59795,-0.0195 0,3.59414 0,0 z"
         style=""
         id="path4308" />
      <path
         d="m 234.37595,461.01404 -4.66848,0 -0.62507,2.24634 -3.63321,0 3.90668,-13.02878 5.29355,0 3.96527,13.02878 -3.55507,0 -0.68367,-2.24634 0,0 z m -0.68367,-2.51981 -1.64081,-5.66469 -1.60173,5.66469 3.24254,0 0,0 z"
         style=""
         id="path4310" />
      <path
         d="m 254.90994,450.2316 0,13.02878 -3.43788,0 0.25394,-9.98157 -0.0977,0 -3.24254,9.98157 -3.00814,0 -3.32068,-9.98157 -0.1172,0 0.293,9.98157 -3.43788,0 0,-13.02878 5.50842,0 2.48074,8.18449 0.13673,0 2.34401,-8.18449 5.64515,0 0,0 z"
         style=""
         id="path4312" />
      <path
         d="m 259.54054,455.44702 3.94575,0 0,-3.92621 1.56267,0 0,3.92621 3.96528,0 0,1.50407 -3.96528,0 0,3.92621 -1.56267,0 0,-3.92621 -3.94575,0 0,-1.50407 0,0 z"
         style=""
         id="path4314" />
      <path
         d="m 283.439,450.25114 0,2.50027 -6.40695,0 0,2.50028 q 0.56647,-0.64461 1.19154,-0.78134 0.62506,-0.13673 1.44547,-0.13673 2.344,0 3.34021,0.9376 1.01573,0.91807 1.01573,3.32068 l 0,0.4102 q 0,0.19533 0,0.37113 0,0.1758 -0.0195,0.3516 -0.0195,0.68367 -0.19533,1.32827 -0.15627,0.62507 -0.64461,1.13294 -0.60553,0.60553 -1.42593,0.83994 -0.82041,0.2344 -1.67988,0.293 -0.33206,0.0195 -0.66413,0.0195 -0.33207,0.0195 -0.66414,0.0195 -0.293,0 -0.586,0 -0.293,0 -0.586,-0.0195 -0.9376,-0.0586 -1.79707,-0.31253 -0.85947,-0.27347 -1.44547,-1.03527 -0.31254,-0.39067 -0.42974,-0.85947 -0.0977,-0.48834 -0.13673,-0.99621 -0.0195,-0.13673 -0.0195,-0.27346 0,-0.13674 -0.0195,-0.27347 0,-0.0195 0,-0.0391 0,-0.0391 0,-0.0586 l 3.32068,-0.0195 q 0.0977,0.72273 0.4102,0.95713 0.33207,0.21487 0.9962,0.21487 1.52361,0 1.89474,-0.31253 0.37114,-0.31254 0.37114,-1.73847 0,-1.21108 -0.4102,-1.44548 -0.39067,-0.2344 -1.52361,-0.2344 -0.0977,0 -0.21487,0 -0.0977,0 -0.19533,0 -0.21487,0 -0.42973,0.0195 -0.19534,0.0195 -0.39067,0.0586 -0.25394,0.0586 -0.37114,0.21486 -0.0977,0.13674 -0.13673,0.35161 l -3.02768,-0.0195 0,-7.28595 9.43463,0 0,0 z"
         style=""
         id="path4316" />
      <path
         d="m 293.76664,450.2316 0,13.02878 -3.35974,0 0,-9.9425 -3.41834,3.06674 -1.95334,-2.20727 4.74661,-3.94575 3.98481,0 0,0 z"
         style=""
         id="path4318" />
      <path
         d="m 307.53215,460.54523 0,2.71515 -10.25503,0 0,-2.94955 q 0,-2.30494 1.15247,-2.98861 1.172,-0.7032 2.96908,-1.0548 0.33206,-0.0781 0.68367,-0.13673 0.3516,-0.0781 0.7032,-0.15627 0.0586,-0.0195 0.0977,-0.0195 0.0391,-0.0195 0.0977,-0.0195 0.74227,-0.19533 0.97667,-0.48833 0.2344,-0.31254 0.2344,-1.172 0,-0.99621 -0.42973,-1.17201 -0.4102,-0.19533 -1.26967,-0.19533 l -0.19534,-0.0195 q -1.15247,0.0195 -1.44547,0.35161 -0.27347,0.33206 -0.27347,1.465 -0.0195,0.0781 -0.0195,0.15627 0,0.0586 0,0.1172 l -3.28161,-0.0195 q 0,-2.89094 1.15247,-3.82854 1.15247,-0.95714 3.90668,-0.95714 2.36354,0 3.76994,0.70321 1.40641,0.68366 1.40641,3.41834 0,1.13294 -0.25394,2.09007 -0.25393,0.95714 -1.4064,1.48454 -0.54693,0.25393 -1.172,0.44927 -0.60554,0.1758 -1.25014,0.33207 -0.39067,0.0977 -0.80087,0.19533 -0.39067,0.0781 -0.78133,0.15627 -0.78134,0.1758 -1.03527,0.48833 -0.25394,0.293 -0.25394,1.07434 l 6.97342,-0.0195 0,0 z"
         style=""
         id="path4320" />
      <path
         d="m 316.01145,450.2316 0,7.34456 0.5274,0 1.79708,-3.43788 3.28161,0 -2.57841,4.37548 3.16441,4.74662 -3.47695,0 -2.18774,-3.73088 -0.5274,0 0,3.73088 -2.96907,0 0,-13.02878 2.96907,0 0,0 z"
         style=""
         id="path4323" />
      <path
         d="m 322.64178,463.26038 0,-13.02878 7.09062,0 q 1.77754,0.0195 2.83234,0.68367 1.0548,0.6446 1.0548,2.65654 0,1.13294 -0.31253,1.97288 -0.293,0.8204 -1.71894,1.0548 l 0,0.0977 q 1.32827,0.13673 1.77754,0.83993 0.4688,0.7032 0.4688,1.99241 0,2.18774 -0.879,2.96907 -0.85947,0.76181 -3.16441,0.76181 l -7.14922,0 0,0 z m 3.49648,-2.87141 2.32447,0 q 0.8204,0.0195 1.3478,-0.13674 0.54694,-0.1758 0.54694,-1.13293 0,-0.91807 -0.42974,-1.07434 -0.4102,-0.1758 -1.2306,-0.1758 l -2.55887,-0.0195 0,2.53934 0,0 z m 0,-4.94195 2.2268,0 q 0.0781,0.0195 0.15627,0.0195 0.0781,0 0.13673,0 0.62507,-0.0195 1.05481,-0.15626 0.44926,-0.15627 0.44926,-0.95714 0,-0.7032 -0.25393,-0.95714 -0.2344,-0.27346 -0.9376,-0.27346 l -2.83234,-0.0195 0,2.34401 0,0 z"
         style=""
         id="path4325" />
      <path
         d="m 342.34637,453.10301 0,2.53934 5.29355,0 0,2.87141 -5.29355,0 0,4.74662 -3.49648,0 0,-13.02878 9.2393,0 0,2.87141 -5.74282,0 0,0 z"
         style=""
         id="path4327" />
      <path
         d="m 351.66315,450.2316 0,13.02878 -2.96907,0 0,-13.02878 2.96907,0 0,0 z"
         style=""
         id="path4329" />
      <path
         d="m 355.99953,456.85342 -3.00814,0 q 0,-2.01194 1.172,-2.38307 1.19154,-0.39067 2.83235,-0.39067 1.91427,0 3.20347,0.48834 1.30874,0.48833 1.30874,2.8128 l 0,5.87956 -2.96908,0 0.1172,-1.34781 -0.1172,0 q -0.1172,0.72274 -0.68367,1.03527 -0.54693,0.293 -1.21107,0.3516 -0.2344,0.0391 -0.48833,0.0391 -0.2344,0.0195 -0.44927,0.0195 -1.36734,0 -2.22681,-0.586 -0.85946,-0.586 -0.85946,-2.07054 0,-1.8166 0.9376,-2.38307 0.9376,-0.586 2.53934,-0.586 0.0781,0 0.15627,0 0.0977,0 0.1758,0 0.60553,0.0195 1.15247,0.19533 0.56647,0.1758 0.83993,0.80087 l 0.1172,-0.0195 0,-1.66034 q 0,-0.66414 -0.31253,-0.89854 -0.293,-0.25393 -0.97667,-0.25393 -0.6446,0 -0.9376,0.1758 -0.27347,0.1758 -0.31254,0.80087 l 0,-0.0195 z m -0.39067,3.59415 q 0,0.74227 0.44927,0.879 0.44927,0.1172 1.01574,0.1172 0.56647,0 1.01574,-0.15627 0.44926,-0.1758 0.44926,-0.83993 0,-0.0391 0,-0.0586 0,-0.0391 0,-0.0586 0,-0.15627 -0.0391,-0.293 -0.0391,-0.13674 -0.15627,-0.2344 -0.15627,-0.1172 -0.37114,-0.1758 -0.19533,-0.0586 -0.42973,-0.0781 -0.15627,-0.0195 -0.33207,-0.0195 -0.15626,0 -0.293,0 -0.54693,0 -0.9376,0.15627 -0.37114,0.15626 -0.37114,0.78133 l 0,-0.0195 z"
         style=""
         id="path4331" />
      <path
         d="m 370.67397,456.75576 -2.81281,0 q 0,0 -0.0195,0 0,-0.0195 0,-0.0391 0,-0.0195 -0.0195,-0.0391 0,-0.0195 0,-0.0391 -0.0977,-0.44927 -0.39067,-0.54694 -0.293,-0.0977 -0.66413,-0.0977 l -0.54694,-0.0195 q -0.4102,0.0195 -0.74226,0.1172 -0.33207,0.0781 -0.39067,0.586 0,0.6446 0.6446,0.78134 0.66413,0.1172 1.56267,0.13673 0.19533,0.0195 0.39067,0.0195 0.19533,0 0.4102,0.0195 1.1134,0.0586 2.05101,0.50787 0.9376,0.44927 0.9376,2.051 0,2.10961 -1.38687,2.63701 -1.36734,0.5274 -3.10581,0.5274 -1.77754,0 -3.10581,-0.39066 -1.30874,-0.41021 -1.30874,-2.53935 l 3.02768,-0.0195 q 0,0.66414 0.27347,0.85947 0.27346,0.1758 0.85946,0.1758 l 0.62507,-0.0195 q 0.4688,0.0195 0.83994,-0.0977 0.39067,-0.1172 0.39067,-0.68367 0,-0.62507 -0.39067,-0.74227 -0.37114,-0.13673 -0.879,-0.15626 l -0.60554,-0.0195 q -1.67987,0.0195 -2.89094,-0.39067 -1.21107,-0.42973 -1.21107,-2.4612 0,-2.01194 1.30874,-2.40261 1.30873,-0.39067 2.91047,-0.39067 0.33207,0 0.72274,0.0195 0.39066,0 0.78133,0.0391 1.03527,0.0977 1.89474,0.56647 0.85947,0.44927 0.85947,1.66034 0,0.0586 0,0.1172 0,0.0391 0,0.0781 -0.0195,0.0586 -0.0195,0.1172 0,0.0391 0,0.0977 l 0,-0.0195 z"
         style=""
         id="path4334" />
      <path
         d="m 374.84951,450.2316 0,5.60609 0.1172,0 q 0.37113,-0.99621 0.95714,-1.36734 0.60553,-0.39067 1.67987,-0.39067 1.36734,0 2.18774,0.62507 0.83993,0.60554 0.83993,2.07054 l 0,6.48509 -2.96907,0 0,-5.41075 q 0,-0.68367 -0.21487,-1.07434 -0.19533,-0.39067 -1.03527,-0.39067 -0.8204,0 -1.19154,0.44927 -0.37113,0.42973 -0.37113,1.2306 l 0,5.19589 -2.96908,0 0,-13.02878 2.96908,0 0,0 z"
         style=""
         id="path4336" />
    </g>
    <g
       transform="matrix(0.91981937,-0.39234211,0.39234211,0.91981937,0,0)"
       style="display:inline;font-style:normal;font-variant:normal;font-weight:normal;font-stretch:normal;font-size:114.16481781px;line-height:125%;font-family:Calibri;-inkscape-font-specification:Calibri;letter-spacing:0px;word-spacing:0px;opacity:1;fill:#d0ab65;fill-opacity:1;stroke:none;stroke-width:1px;stroke-linecap:butt;stroke-linejoin:miter;stroke-opacity:1"
       id="text4243" />
    <g
       transform="matrix(0.9875879,0,-0.14762509,1.0125681,0,0)"
       style="display:inline;font-style:normal;font-variant:normal;font-weight:100;font-stretch:normal;font-size:26.079216px;line-height:125%;font-family:BaccaratUpright;-inkscape-font-specification:'BaccaratUpright Thin';letter-spacing:-0.0317676px;word-spacing:-1.29452968px;opacity:1;fill:#53241c;fill-opacity:1;stroke:none;stroke-width:1px;stroke-linecap:butt;stroke-linejoin:miter;stroke-opacity:1"
       id="text4652">
      <path
         d="m 482.30113,407.73205 -0.0261,3.85972 -4.30307,0.15647 -0.20864,4.95506 4.38131,0 -0.0522,3.05126 -4.40739,0.33903 -0.15647,6.38941 -4.69426,0 -0.28687,-13.58727 4.0162,-1.04317 -4.74642,0.10432 0.36511,-4.22483 10.11874,0 z"
         style=""
         id="path4339" />
      <path
         d="m 490.26182,408.07108 -0.28687,18.41192 -4.6421,0 -0.73022,-18.41192 5.65919,0 z"
         style=""
         id="path4342" />
      <path
         d="m 507.18114,407.73205 -0.20864,18.72487 -5.55487,0.49551 -3.20774,-13.11785 0.0782,12.64842 -3.99012,0 -1.2518,-17.65563 7.09355,0 3.12951,13.63943 -0.83454,-15.36066 4.74642,0.62591 z"
         style=""
         id="path4344" />
      <path
         d="m 521.60866,407.10614 1.22573,19.37686 -4.85074,0 -0.39118,-4.19875 -2.86872,0.46942 -0.39119,3.72933 -4.25091,0 0.70414,-17.65563 5.3984,0 -1.19965,11.18799 2.34713,0 -1.33004,-12.90922 5.60703,0 z"
         style=""
         id="path4346" />
      <path
         d="m 536.50865,423.32742 -0.0782,3.15558 -9.1538,0 -0.67806,-18.75095 5.52879,0 -0.20863,15.49105 4.58994,0.10432 z"
         style=""
         id="path4348" />
      <path
         d="m 554.6615,407.73205 -0.0261,3.85972 -4.30307,0.15647 -0.0782,4.17268 4.35523,0 -0.0782,3.05127 -4.40738,0.20863 -0.0522,3.99012 4.43346,0.20864 -0.0521,3.10342 -8.9191,0 q -0.0521,-0.13039 -0.0782,-0.23471 -0.0522,-0.20863 -0.0522,-0.39119 -0.26079,-1.53867 -0.44335,-3.75541 -0.15647,-2.21673 -0.15647,-4.45954 0,-2.79048 0.28687,-4.72034 l 3.91188,-1.06925 -4.82465,0.10432 0.3651,-4.22483 10.11874,0 z"
         style=""
         id="path4350" />
      <path
         d="m 570.12079,407.10614 -4.38131,9.93619 4.66818,9.44067 -5.03329,0 -2.29497,-4.45954 -2.0081,4.45954 -3.80756,0 3.59893,-8.78869 -4.61602,-8.86694 5.37231,0 1.85163,3.67717 2.03418,-5.3984 4.61602,0 z"
         style=""
         id="path4352" />
      <path
         d="m 585.04912,411.51353 q 0.0782,0.52159 0.0782,1.04317 0,1.2518 -0.39119,2.84263 -0.28687,1.14749 -0.96493,2.99911 -0.41727,1.12141 -1.12141,2.84264 l -5.16368,0 q 1.09533,-2.45145 1.59083,-3.93796 0.67806,-2.06026 0.67806,-3.62501 0,-0.57375 -0.0782,-1.17357 -0.23471,-1.51259 -1.59083,-2.55576 -1.06925,-0.83454 -4.04228,-2.21673 l 6.25901,-1.30397 q 2.42537,1.40828 3.36422,2.37321 1.14749,1.14749 1.3822,2.71224 z m -7.56297,-1.72123 -0.28687,16.6907 -4.51171,0 -0.59982,-16.6907 5.3984,0 z"
         style=""
         id="path4354" />
      <path
         d="m 598.8589,407.10614 1.22572,19.37686 -4.85073,0 -0.39119,-4.19875 -2.86872,0.46942 -0.39118,3.72933 -4.25092,0 0.70414,-17.65563 5.3984,0 -1.19964,11.18799 2.34713,0 -1.33004,-12.90922 5.60703,0 z"
         style=""
         id="path4356" />
      <path
         d="m 616.7631,407.73205 -0.20863,18.72487 -5.55487,0.49551 -3.20775,-13.11785 0.0782,12.64842 -3.99012,0 -1.2518,-17.65563 7.09354,0 3.12951,13.63943 -0.83454,-15.36066 4.74642,0.62591 z"
         style=""
         id="path4358" />
      <path
         d="m 631.06024,407.10614 -0.28687,6.88492 -4.40739,0 0,-6.88492 4.69426,0 z m -0.99101,13.19609 q 0.0261,0.18255 0.0261,0.52158 0,1.2518 -0.78238,2.81656 -0.93885,1.85162 -1.92986,2.84263 l -7.2761,0 1.43436,-1.53867 q 1.2518,-1.33004 1.85162,-2.24281 0.6259,-0.93886 0.6259,-1.77339 0,-0.18256 -0.0522,-0.41727 -0.0522,-0.26079 -3.05127,-3.28598 -1.35612,-1.3822 -1.59083,-2.89479 -0.0782,-0.44335 -0.0782,-0.83454 0,-0.7563 0.23471,-1.59083 0.23471,-0.83453 1.14749,-3.07735 l 5.55487,0 q -0.41727,0.8867 -0.73022,1.79947 -0.46943,1.35612 -0.46943,2.26889 0,0.18255 0.0522,0.54766 0.15648,1.09533 3.33814,4.06836 1.48652,1.3822 1.69515,2.79048 z"
         style=""
         id="path4360" />
      <path
         d="m 638.91825,408.07108 -0.28687,18.41192 -4.6421,0 -0.73022,-18.41192 5.65919,0 z"
         style=""
         id="path4362" />
      <path
         d="m 655.55069,414.06929 q 0.0782,0.44335 0.10432,1.12141 0.0261,0.67806 0.0261,0.78238 0,2.55576 -0.86061,5.268 -0.86062,2.68616 -2.42537,5.24192 l -7.38042,0 q -1.69515,-2.34713 -2.45145,-3.93796 -0.73021,-1.59083 -0.91277,-2.71224 -0.18255,-1.14748 -0.18255,-2.11241 0,-1.82555 0.4955,-3.75541 0.41727,-1.59083 1.22573,-3.44246 l 4.58994,0 q -0.96493,-0.83453 -1.85163,-1.51259 -0.86061,-0.70414 -1.7473,-1.27788 l 6.57196,-0.93886 q 2.06026,1.66907 3.20774,3.36422 1.2518,1.85163 1.59083,3.91188 z m -5.55487,0.70414 q -0.23471,-1.38219 -0.7563,-2.39928 -0.36511,-0.73022 -1.22572,-1.72123 -0.4955,2.08633 -0.67806,3.28598 -0.31295,2.06026 -0.31295,3.52069 0,1.06925 0.0261,1.5126 0.0522,0.44334 0.18255,1.40828 0.15648,0.93885 0.46943,2.03417 0.41727,1.46044 1.01709,2.81656 0.73022,-2.03418 1.09533,-4.0162 0.39118,-2.0081 0.39118,-3.85972 0,-1.19965 -0.20863,-2.58185 z"
         style=""
         id="path4364" />
      <path
         d="m 672.25811,407.73205 -0.20863,18.72487 -5.55487,0.49551 -3.20775,-13.11785 0.0782,12.64842 -3.99012,0 -1.2518,-17.65563 7.09354,0 3.12951,13.63943 -0.83453,-15.36066 4.74641,0.62591 z"
         style=""
         id="path4366" />
    </g>
    <g
       style="display:inline"
       transform="matrix(0.13199692,-0.03536847,0.03536847,0.13199692,134.39951,268.68936)"
       id="g4146">
      <path
         inkscape:connector-curvature="0"
         id="path47793"
         d="m 387.57839,216.83073 2.31445,-2.17432 0,-42.56004 0,-42.56004 -11.23369,-11.26564 -11.23369,-11.26565 -67.95186,0 -67.95186,0 -2.31445,2.17431 -2.31445,2.17432 0,51.51123 0,51.51124 2.17431,2.31445 2.17432,2.31445 77.01123,0 77.01124,0 2.31445,-2.17431 z"
         style="fill:#53241c;fill-opacity:1" />
      <path
         inkscape:connector-curvature="0"
         id="path47791"
         d="m 235.89284,205.50504 0,-4.5 4.5,0 4.5,0 0,-12.5 0,-12.5 -4.5,0 -4.5,0 0,-4.5 0,-4.5 13,0 13,0 0,4.5 0,4.5 -4.5,0 -4.5,0 0,12.5 0,12.5 4.5,0 4.5,0 0,4.5 0,4.5 -13,0 -13,0 0,-4.5 z"
         style="fill:#f1efd6;fill-opacity:1" />
      <path
         inkscape:connector-curvature="0"
         id="path47789"
         d="m 278.89284,205.50504 0,-4.5 -4.5,0 -4.5,0 0,-12.5 0,-12.5 4.5,0 4.5,0 0,-4.5 0,-4.5 8.5,0 8.5,0 0,4.5 0,4.5 -8.5,0 -8.5,0 0,4 0,4 4,0 4,0 0,4.5 0,4.5 -4,0 -4,0 0,4 0,4 8.5,0 8.5,0 0,4.5 0,4.5 -8.5,0 -8.5,0 0,-4.5 z"
         style="fill:#f1efd6;fill-opacity:1" />
      <path
         inkscape:connector-curvature="0"
         id="path47787"
         d="m 312.89284,205.50504 0,-4.5 -4.5,0 -4.5,0 0,-12.5 0,-12.5 4.5,0 4.5,0 0,-4.5 0,-4.5 8.5,0 8.5,0 0,4.5 0,4.5 -8.5,0 -8.5,0 0,12.5 0,12.5 8.5,0 8.5,0 0,4.5 0,4.5 -8.5,0 -8.5,0 0,-4.5 z"
         style="fill:#f1efd6;fill-opacity:1" />
      <path
         inkscape:connector-curvature="0"
         id="path47785"
         d="m 346.89284,205.50504 0,-4.5 17,0 17,0 0,4.5 0,4.5 -17,0 -17,0 0,-4.5 z"
         style="fill:#d0ab65;fill-opacity:1" />
      <path
         inkscape:connector-curvature="0"
         id="path47783"
         d="m 346.89284,188.50504 0,-4.5 17,0 17,0 0,4.5 0,4.5 -17,0 -17,0 0,-4.5 z"
         style="fill:#d0ab65;fill-opacity:1" />
      <path
         inkscape:connector-curvature="0"
         id="path47781"
         d="m 346.89284,171.50504 0,-4.5 17,0 17,0 0,4.5 0,4.5 -17,0 -17,0 0,-4.5 z"
         style="fill:#d0ab65;fill-opacity:1" />
      <path
         inkscape:connector-curvature="0"
         id="path47779"
         d="m 235.89284,154.50504 0,-4.5 8.5,0 8.5,0 0,-4 0,-4 -8.5,0 -8.5,0 0,-8.5 0,-8.5 4.5,0 4.5,0 0,-4.5 0,-4.5 8.5,0 8.5,0 0,4.5 0,4.5 -8.5,0 -8.5,0 0,4 0,4 8.5,0 8.5,0 0,8.5 0,8.5 -4.5,0 -4.5,0 0,4.5 0,4.5 -8.5,0 -8.5,0 0,-4.5 z"
         style="fill:#f1efd6;fill-opacity:1" />
      <path
         inkscape:connector-curvature="0"
         id="path47777"
         d="m 269.89258,116.00586 0,21.5 0,21.5 8.5,0 8.5,0 0,-4.5 0,-4.5 -4,0 -4,0 0,-12.5 0,-12.5 4,0 4,0 0,-4.5 0,-4.5 -8.5,0 -8.5,0 z m 17,9 0,12.5 0,12.5 4.5,0 4.5,0 0,-12.5 0,-12.5 -4.5,0 -4.5,0 z"
         style="fill:#f1efd6;fill-opacity:1" />
      <path
         inkscape:connector-curvature="0"
         id="path47773"
         d="m 303.89284,146.00504 0,-13 8.5,0 8.5,0 0,-4 0,-4 -8.5,0 -8.5,0 0,-4.5 0,-4.5 8.5,0 8.5,0 0,4 0,4 4.5,0 4.5,0 0,9 0,9 -8.5,0 -8.5,0 0,4 0,4 8.5,0 8.5,0 0,4.5 0,4.5 -13,0 -13,0 0,-13 z"
         style="fill:#f1efd6;fill-opacity:1" />
      <path
         inkscape:connector-curvature="0"
         id="path47771"
         d="m 346.89284,154.50504 0,-4.5 17,0 17,0 0,4.5 0,4.5 -17,0 -17,0 0,-4.5 z"
         style="fill:#d0ab65;fill-opacity:1" />
      <path
         inkscape:connector-curvature="0"
         id="path47769"
         d="m 346.89284,137.50504 0,-4.5 17,0 17,0 0,4.5 0,4.5 -17,0 -17,0 0,-4.5 z"
         style="fill:#d0ab65;fill-opacity:1" />
      <path
         inkscape:connector-curvature="0"
         id="path47765"
         d="m 337.89284,120.50504 0,-4.5 13,0 13,0 0,4.5 0,4.5 -13,0 -13,0 0,-4.5 z"
         style="fill:#d0ab65;fill-opacity:1" />
    </g>
    <g
       style="display:inline;font-style:normal;font-variant:normal;font-weight:normal;font-stretch:normal;font-size:7.5px;line-height:125%;font-family:Calibri;-inkscape-font-specification:Calibri;letter-spacing:0px;word-spacing:0px;fill:#53241c;fill-opacity:1;stroke:none;stroke-width:1px;stroke-linecap:butt;stroke-linejoin:miter;stroke-opacity:1"
       id="text5194">
      <path
         d="m 179.79684,300.58412 -1.4875,0 q 0,-0.4375 -0.175,-0.55125 -0.175,-0.11375 -0.595,-0.11375 l -0.1575,-0.009 q -0.0175,0.009 -0.035,0.009 -0.0175,0 -0.035,0 -0.28875,0 -0.53375,0.0875 -0.245,0.0788 -0.245,0.44625 0,0.27125 0.0963,0.4025 0.105,0.13125 0.385,0.14875 0.13125,0.009 0.27125,0.0175 0.14,0.009 0.28,0.0175 0.0175,0 0.035,0 0.0175,0 0.0437,0 0.88375,0.035 1.60125,0.2625 0.72625,0.2275 0.72625,1.42625 0,0.1225 0,0.25375 0,0.1225 -0.0175,0.25375 -0.0175,0.27125 -0.105,0.53375 -0.0788,0.2625 -0.28875,0.4375 -0.28,0.23625 -0.63,0.32375 -0.35,0.0788 -0.7175,0.0962 -0.105,0.009 -0.21,0.009 -0.0962,0 -0.20125,0 l -0.385,0 q -1.2075,0 -1.82875,-0.2625 -0.62125,-0.2625 -0.62125,-1.65375 l 1.4875,-0.009 q 0,0.3325 0.11375,0.525 0.11375,0.18375 0.48125,0.18375 l 0.67375,-0.009 q 0.2975,0.009 0.49875,-0.0788 0.21,-0.0962 0.21,-0.49 0,-0.3675 -0.1925,-0.44625 -0.18375,-0.0788 -0.49,-0.0962 -0.0175,0 -0.035,0 -0.009,0 -0.0263,0 -0.14875,-0.009 -0.28875,-0.0175 -0.13125,-0.009 -0.2625,-0.0175 -1.015,-0.0525 -1.5925,-0.315 -0.56875,-0.2625 -0.56875,-1.54875 0,-0.76125 0.3325,-1.16375 0.3325,-0.4025 1.11125,-0.46375 0.25375,-0.0175 0.5075,-0.0263 0.2625,-0.0175 0.51625,-0.0175 1.015,0 1.68875,0.21875 0.67375,0.21875 0.67375,1.46125 0,0.0263 0,0.0525 0,0.0175 0,0.035 -0.009,0.0263 -0.009,0.0525 0,0.0175 0,0.0437 l 0,-0.009 z"
         style="font-style:normal;font-variant:normal;font-weight:100;font-stretch:normal;font-size:8.75px;line-height:125%;font-family:Eurostile-Black-DTC;-inkscape-font-specification:'Eurostile-Black-DTC, Thin';text-align:start;writing-mode:lr-tb;text-anchor:start;fill:#53241c;fill-opacity:1"
         id="path4281" />
      <path
         d="m 183.36437,300.11162 0,4.48875 -1.56625,0 0,-4.48875 -1.47875,0 0,-1.3475 4.62,0 0,1.3475 -1.575,0 0,0 z"
         style="font-style:normal;font-variant:normal;font-weight:100;font-stretch:normal;font-size:8.75px;line-height:125%;font-family:Eurostile-Black-DTC;-inkscape-font-specification:'Eurostile-Black-DTC, Thin';text-align:start;writing-mode:lr-tb;text-anchor:start;fill:#53241c;fill-opacity:1"
         id="path4283" />
      <path
         d="m 188.55333,303.59412 -2.09125,0 -0.28,1.00625 -1.6275,0 1.75,-5.83625 2.37125,0 1.77625,5.83625 -1.5925,0 -0.30625,-1.00625 0,0 z m -0.30625,-1.12875 -0.735,-2.5375 -0.7175,2.5375 1.4525,0 0,0 z"
         style="font-style:normal;font-variant:normal;font-weight:100;font-stretch:normal;font-size:8.75px;line-height:125%;font-family:Eurostile-Black-DTC;-inkscape-font-specification:'Eurostile-Black-DTC, Thin';text-align:start;writing-mode:lr-tb;text-anchor:start;fill:#53241c;fill-opacity:1"
         id="path4285" />
      <path
         d="m 193.10559,300.11162 0,4.48875 -1.56625,0 0,-4.48875 -1.47875,0 0,-1.3475 4.62,0 0,1.3475 -1.575,0 0,0 z"
         style="font-style:normal;font-variant:normal;font-weight:100;font-stretch:normal;font-size:8.75px;line-height:125%;font-family:Eurostile-Black-DTC;-inkscape-font-specification:'Eurostile-Black-DTC, Thin';text-align:start;writing-mode:lr-tb;text-anchor:start;fill:#53241c;fill-opacity:1"
         id="path4287" />
    </g>
    <g
       style="display:inline;font-style:normal;font-variant:normal;font-weight:normal;font-stretch:normal;font-size:7.5px;line-height:125%;font-family:Calibri;-inkscape-font-specification:Calibri;letter-spacing:0px;word-spacing:0px;fill:#53241c;fill-opacity:1;stroke:none;stroke-width:1px;stroke-linecap:butt;stroke-linejoin:miter;stroke-opacity:1"
       id="text5200">
      <path
         d="m 180.79865,323.03199 -2.09125,0 -0.28,1.00625 -1.6275,0 1.75,-5.83625 2.37125,0 1.77625,5.83625 -1.5925,0 -0.30625,-1.00625 0,0 z m -0.30625,-1.12875 -0.735,-2.5375 -0.7175,2.5375 1.4525,0 0,0 z"
         style="font-style:normal;font-variant:normal;font-weight:100;font-stretch:normal;font-size:8.75px;line-height:125%;font-family:Eurostile-Black-DTC;-inkscape-font-specification:'Eurostile-Black-DTC, Thin';text-align:start;writing-mode:lr-tb;text-anchor:start;fill:#53241c;fill-opacity:1"
         id="path4290" />
      <path
         d="m 186.43665,321.83324 1.54875,0 0,0.175 q 0,0.5425 -0.0875,1.015 -0.0875,0.4725 -0.62125,0.77875 -0.28,0.16625 -0.595,0.21875 -0.315,0.0525 -0.63875,0.0613 -0.035,0 -0.0788,0 -0.035,0 -0.0787,0 -0.16625,0 -0.3325,0 -0.16625,0 -0.32375,-0.009 -0.16625,0 -0.3325,-0.009 -0.16625,0 -0.3325,0 -1.14625,-0.1225 -1.4175,-0.8575 -0.27125,-0.74375 -0.28875,-1.715 l -0.009,-0.76125 q 0,-1.49625 0.5775,-2.03 0.5775,-0.53375 2.0475,-0.53375 l 0.48125,-0.009 q 0.0613,0.009 0.1225,0.009 0.07,0 0.13125,0 0.46375,0.0175 0.88375,0.14875 0.42,0.13125 0.665,0.56 0.1225,0.21 0.16625,0.455 0.0437,0.23625 0.0525,0.48125 0,0.07 0,0.14 0.009,0.07 0.009,0.13125 0,0.0175 0,0.035 0,0.009 0,0.0175 0,0.009 0,0.0263 0,0.009 0,0.0263 l 0,0.105 -1.575,0 q 0,-0.4375 -0.16625,-0.60375 -0.16625,-0.175 -0.62125,-0.175 l -0.2625,-0.009 q -0.0525,0.009 -0.11375,0.009 -0.0613,0 -0.1225,0.009 -0.14,0.009 -0.27125,0.0525 -0.1225,0.0437 -0.21,0.14875 -0.0875,0.0962 -0.1225,0.21875 -0.0263,0.1225 -0.035,0.245 0,0.035 -0.009,0.07 0,0.0263 0,0.0612 -0.009,0.1225 -0.0175,0.25375 0,0.1225 -0.009,0.245 0,0.13125 0,0.2625 0,0.1225 0,0.245 0,0.035 0,0.0788 0,0.035 0,0.07 0,0.0437 0,0.0788 0,0.035 0,0.0787 0,0.63875 0.18375,0.875 0.18375,0.23625 0.8225,0.23625 0.455,0 0.7175,-0.1225 0.27125,-0.13125 0.27125,-0.63875 0,-0.0175 0,-0.035 0,-0.0175 0,-0.035 -0.009,-0.0175 -0.009,-0.035 0,-0.0175 0,-0.035 l 0,-0.009 z"
         style="font-style:normal;font-variant:normal;font-weight:100;font-stretch:normal;font-size:8.75px;line-height:125%;font-family:Eurostile-Black-DTC;-inkscape-font-specification:'Eurostile-Black-DTC, Thin';text-align:start;writing-mode:lr-tb;text-anchor:start;fill:#53241c;fill-opacity:1"
         id="path4292" />
      <path
         d="m 191.27253,319.54949 0,4.48875 -1.56625,0 0,-4.48875 -1.47875,0 0,-1.3475 4.62,0 0,1.3475 -1.575,0 0,0 z"
         style="font-style:normal;font-variant:normal;font-weight:100;font-stretch:normal;font-size:8.75px;line-height:125%;font-family:Eurostile-Black-DTC;-inkscape-font-specification:'Eurostile-Black-DTC, Thin';text-align:start;writing-mode:lr-tb;text-anchor:start;fill:#53241c;fill-opacity:1"
         id="path4294" />
    </g>
    <g
       style="display:inline"
       id="g5075"
       transform="matrix(1.0657282,0,0,1.0657282,-230.26048,61.020353)">
      <g
         id="g3395"
         transform="translate(239.31511,151.0671)"
         style="display:inline;opacity:1">
        <path
           sodipodi:nodetypes="ccccccc"
           inkscape:connector-curvature="0"
           id="path4311"
           style="font-style:normal;font-variant:normal;font-weight:100;font-stretch:normal;font-size:medium;line-height:125%;font-family:Monotone;-inkscape-font-specification:'Monotone Thin';letter-spacing:0.5px;word-spacing:-5.24000025px;fill:#53241c;fill-opacity:1;stroke:#53241c;stroke-width:1px;stroke-linecap:butt;stroke-linejoin:miter;stroke-opacity:1"
           d="m 257.64973,158.68038 0,21.70578 -4.41278,0 0,-17.64362 -2.40995,0 0,-4.06252 c 2.66985,-1.5e-4 4.15288,9e-5 6.82273,3.6e-4 z" />
        <path
           sodipodi:nodetypes="ccccccc"
           d="m 257.64973,158.68038 0,21.70578 -4.41278,0 0,-17.64362 -2.40995,0 0,-4.06251 c 2.66985,-1.5e-4 4.15288,8e-5 6.82273,3.5e-4 z"
           style="font-style:normal;font-variant:normal;font-weight:100;font-stretch:normal;font-size:medium;line-height:125%;font-family:Monotone;-inkscape-font-specification:'Monotone Thin';letter-spacing:0.5px;word-spacing:-5.24000025px;fill:none;fill-opacity:1;stroke:#f1efd6;stroke-width:0.5;stroke-linecap:butt;stroke-linejoin:miter;stroke-miterlimit:4;stroke-dasharray:none;stroke-opacity:1"
           id="path4345"
           inkscape:connector-curvature="0" />
      </g>
      <g
         id="g3421"
         transform="translate(236.36272,151.0671)"
         style="display:inline;opacity:1">
        <path
           inkscape:connector-curvature="0"
           id="path4301"
           style="font-style:normal;font-variant:normal;font-weight:100;font-stretch:normal;font-size:medium;line-height:125%;font-family:Monotone;-inkscape-font-specification:'Monotone Thin';letter-spacing:0.5px;word-spacing:-5.24000025px;fill:#53241c;fill-opacity:1;stroke:#53241c;stroke-width:1px;stroke-linecap:butt;stroke-linejoin:miter;stroke-opacity:1"
           d="m 172.66833,158.68069 5.88311,0 1.38217,12.4695 0.49616,0 1.38218,-12.4695 5.88311,0 -4.30406,21.70547 -6.383,0 z"
           sodipodi:nodetypes="ccccccccc" />
        <path
           d="m 172.66833,158.68069 5.88311,0 1.38217,12.4695 0.49616,0 1.38218,-12.4695 5.88311,0 -4.30406,21.70547 -6.383,0 z"
           style="font-style:normal;font-variant:normal;font-weight:100;font-stretch:normal;font-size:medium;line-height:125%;font-family:Monotone;-inkscape-font-specification:'Monotone Thin';letter-spacing:0.5px;word-spacing:-5.24000025px;fill:none;fill-opacity:1;stroke:#f1efd6;stroke-width:0.5;stroke-linecap:butt;stroke-linejoin:miter;stroke-miterlimit:4;stroke-dasharray:none;stroke-opacity:1"
           id="path4322"
           inkscape:connector-curvature="0"
           sodipodi:nodetypes="ccccccccc" />
      </g>
      <g
         id="g3417"
         transform="translate(237.25532,151.0671)"
         style="display:inline;opacity:1">
        <path
           inkscape:connector-curvature="0"
           id="path4303"
           style="font-style:normal;font-variant:normal;font-weight:100;font-stretch:normal;font-size:medium;line-height:125%;font-family:Monotone;-inkscape-font-specification:'Monotone Thin';letter-spacing:0.5px;word-spacing:-5.24000025px;fill:#53241c;fill-opacity:1;stroke:#53241c;stroke-width:1px;stroke-linecap:butt;stroke-linejoin:miter;stroke-opacity:1"
           d="m 189.29221,158.68069 4.88293,0 0,21.70547 -4.88293,0 z"
           sodipodi:nodetypes="ccccc" />
        <path
           sodipodi:nodetypes="ccccc"
           d="m 189.29221,158.68069 4.88293,0 0,21.70547 -4.88293,0 z"
           style="font-style:normal;font-variant:normal;font-weight:100;font-stretch:normal;font-size:medium;line-height:125%;font-family:Monotone;-inkscape-font-specification:'Monotone Thin';letter-spacing:0.5px;word-spacing:-5.24000025px;fill:none;fill-opacity:1;stroke:#f1efd6;stroke-width:0.5;stroke-linecap:butt;stroke-linejoin:miter;stroke-miterlimit:4;stroke-dasharray:none;stroke-opacity:1"
           id="path4333"
           inkscape:connector-curvature="0" />
      </g>
      <g
         transform="translate(236.21204,151.0671)"
         id="g4256"
         style="display:inline;opacity:1">
        <path
           sodipodi:nodetypes="ccccccccccccccccc"
           inkscape:connector-curvature="0"
           id="path4305"
           style="font-style:normal;font-variant:normal;font-weight:100;font-stretch:normal;font-size:medium;line-height:125%;font-family:Monotone;-inkscape-font-specification:'Monotone Thin';letter-spacing:0.5px;word-spacing:-5.24000025px;fill:#53241c;fill-opacity:1;stroke:#53241c;stroke-width:1px;stroke-linecap:butt;stroke-linejoin:miter;stroke-opacity:1"
           d="m 211.30841,171.08834 0,5.96583 -3.47317,3.33199 -6.16663,0 -4.04021,-3.07812 0,-15.26364 3.79213,-3.36371 5.88311,0 4.00477,3.10985 0,5.23597 -4.81241,0 0,-3.33831 -3.689,0 0,12.236 3.689,0 0,-4.83586 z" />
        <path
           d="m 211.30841,171.08834 0,5.96583 -3.47317,3.33199 -6.16663,0 -4.04021,-3.07812 0,-15.26364 3.79213,-3.36371 5.88311,0 4.00477,3.10985 0,5.23597 -4.81241,0 0,-3.33831 -3.689,0 0,12.236 3.689,0 0,-4.83586 z"
           style="font-style:normal;font-variant:normal;font-weight:100;font-stretch:normal;font-size:medium;line-height:125%;font-family:Monotone;-inkscape-font-specification:'Monotone Thin';letter-spacing:0.5px;word-spacing:-5.24000025px;fill:none;fill-opacity:1;stroke:#f1efd6;stroke-width:0.5;stroke-linecap:butt;stroke-linejoin:miter;stroke-miterlimit:4;stroke-dasharray:none;stroke-opacity:1"
           id="path4335"
           inkscape:connector-curvature="0"
           sodipodi:nodetypes="ccccccccccccccccc" />
      </g>
      <g
         transform="translate(236.27535,151.0671)"
         id="g4275"
         style="display:inline;opacity:1">
        <path
           inkscape:connector-curvature="0"
           id="path4307"
           style="font-style:normal;font-variant:normal;font-weight:100;font-stretch:normal;font-size:medium;line-height:125%;font-family:Monotone;-inkscape-font-specification:'Monotone Thin';letter-spacing:0.5px;word-spacing:-5.24000025px;fill:#53241c;fill-opacity:1;stroke:#53241c;stroke-width:1px;stroke-linecap:butt;stroke-linejoin:miter;stroke-opacity:1"
           d="m 235.11872,180.38616 -13.92808,0 0,-4.37196 9.81536,-9.90795 0,-3.14158 -5.2,0 0,2.88771 -4.36728,0 0,-3.80798 3.5086,-3.36371 6.13119,0 4.04021,3.10985 0,5.96583 c -2.66839,2.9527 -2.578,2.83063 -8.3285,8.56795 l 8.3285,0 z"
           sodipodi:nodetypes="cccccccccccccccc" />
        <path
           d="m 235.11872,180.38616 -13.92808,0 0,-4.37196 9.81536,-9.90795 0,-3.14158 -5.2,0 0,2.88771 -4.36728,0 0,-3.80798 3.5086,-3.36371 6.13119,0 4.04021,3.10985 0,5.96583 c -2.66839,2.9527 -2.53168,2.78159 -8.3285,8.56795 l 8.3285,0 z"
           style="font-style:normal;font-variant:normal;font-weight:100;font-stretch:normal;font-size:medium;line-height:125%;font-family:Monotone;-inkscape-font-specification:'Monotone Thin';letter-spacing:0.5px;word-spacing:-5.24000025px;fill:none;fill-opacity:1;stroke:#f1efd6;stroke-width:0.5;stroke-linecap:butt;stroke-linejoin:miter;stroke-miterlimit:4;stroke-dasharray:none;stroke-opacity:1"
           id="path4341"
           inkscape:connector-curvature="0"
           sodipodi:nodetypes="cccccccccccccccc" />
      </g>
      <g
         id="g3391"
         transform="translate(239.08016,151.0671)"
         style="display:inline;opacity:1">
        <path
           sodipodi:nodetypes="cccccccccccccc"
           inkscape:connector-curvature="0"
           id="path4309"
           style="font-style:normal;font-variant:normal;font-weight:100;font-stretch:normal;font-size:medium;line-height:125%;font-family:Monotone;-inkscape-font-specification:'Monotone Thin';letter-spacing:0.5px;word-spacing:-5.24000025px;fill:#53241c;fill-opacity:1;stroke:#53241c;stroke-width:1px;stroke-linecap:butt;stroke-linejoin:miter;stroke-opacity:1"
           d="m 234.72389,162.0444 3.75669,-3.36371 6.41471,0 3.75668,3.36371 0,15.00977 -3.75668,3.33199 -6.69824,0 -3.47316,-3.33199 z m 9.01604,14.27992 0,-13.35965 -4.104,0 0,13.35965 z" />
        <path
           sodipodi:nodetypes="cccccccccccccc"
           d="m 234.72389,162.0444 3.75704,-3.36371 6.414,-4.9e-4 3.75704,3.3642 0,15.00977 -3.75668,3.33199 -6.69824,0 -3.47316,-3.33199 z m 9.01604,14.27992 0,-13.35965 -4.104,0 0,13.35965 z"
           style="font-style:normal;font-variant:normal;font-weight:100;font-stretch:normal;font-size:medium;line-height:125%;font-family:Monotone;-inkscape-font-specification:'Monotone Thin';letter-spacing:0.5px;word-spacing:-5.24000025px;fill:none;fill-opacity:1;stroke:#f1efd6;stroke-width:0.5;stroke-linecap:butt;stroke-linejoin:miter;stroke-miterlimit:4;stroke-dasharray:none;stroke-opacity:1"
           id="path4343"
           inkscape:connector-curvature="0" />
      </g>
      <g
         id="g3399"
         transform="translate(238.36281,151.0671)"
         style="display:inline;opacity:1">
        <path
           sodipodi:nodetypes="ccccccccccccccccccccc"
           inkscape:connector-curvature="0"
           id="path4313"
           style="font-style:normal;font-variant:normal;font-weight:100;font-stretch:normal;font-size:medium;line-height:125%;font-family:Monotone;-inkscape-font-specification:'Monotone Thin';letter-spacing:0.5px;word-spacing:-5.24000025px;fill:#53241c;fill-opacity:1;stroke:#53241c;stroke-width:1px;stroke-linecap:butt;stroke-linejoin:miter;stroke-opacity:1"
           d="m 264.5206,180.38616 -3.5086,-3.33199 0,-15.26363 3.50895,-3.10985 6.166,0 3.75696,3.36371 0,3.55412 -5.23996,0 0,-2.85598 -3.2,0 0,4.7917 5.21488,0 3.22508,2.82425 0,6.69568 -3.47315,3.33199 z m 4.68335,-4.06184 0,-4.75997 -3.2,0 0,4.75997 z" />
        <path
           sodipodi:nodetypes="ccccccccccccccccccccc"
           d="m 264.5206,180.38616 -3.5086,-3.33199 0,-15.26363 3.5086,-3.10985 6.16663,0 3.75668,3.36371 0,3.55412 -5.23998,0 4e-5,-2.85598 -3.20002,0 0,4.7917 5.21488,0 3.22508,2.82425 0,6.69568 -3.47315,3.33199 z m 4.68333,-4.06184 0,-4.75997 -3.19998,0 0,4.75997 z"
           style="font-style:normal;font-variant:normal;font-weight:100;font-stretch:normal;font-size:medium;line-height:125%;font-family:Monotone;-inkscape-font-specification:'Monotone Thin';letter-spacing:0.5px;word-spacing:-5.24000025px;fill:none;fill-opacity:1;stroke:#f1efd6;stroke-width:0.5;stroke-linecap:butt;stroke-linejoin:miter;stroke-miterlimit:4;stroke-dasharray:none;stroke-opacity:1"
           id="path4347"
           inkscape:connector-curvature="0" />
      </g>
      <g
         transform="translate(236.55448,151.0671)"
         id="g4264"
         style="display:inline;opacity:1">
        <g
           transform="matrix(1.3237323,0,0,1.0944529,-69.177493,-16.305513)"
           id="g3407">
          <g
             transform="scale(0.71531697,1.3979817)"
             style="font-style:normal;font-variant:normal;font-weight:100;font-stretch:normal;font-size:29.72056198px;line-height:125%;font-family:Monotone;-inkscape-font-specification:'Monotone Thin';letter-spacing:0px;word-spacing:0px;display:inline;fill:none;fill-opacity:1;stroke:#f1efd6;stroke-width:0.5;stroke-linecap:butt;stroke-linejoin:miter;stroke-miterlimit:4;stroke-dasharray:none;stroke-opacity:1"
             id="text4337">
            <path
               d="m 298.37407,119.92738 5.46859,0 0,2.64513 -5.46859,0 0,-2.64513 z"
               id="path3441"
               inkscape:connector-curvature="0" />
          </g>
          <g
             transform="scale(0.71531697,1.3979817)"
             style="font-style:normal;font-variant:normal;font-weight:100;font-stretch:normal;font-size:29.72056198px;line-height:125%;font-family:Monotone;-inkscape-font-specification:'Monotone Thin';letter-spacing:0px;word-spacing:0px;display:inline;fill:#53241c;fill-opacity:1;stroke:#53241c;stroke-width:1px;stroke-linecap:butt;stroke-linejoin:miter;stroke-opacity:1"
             id="text3371">
            <path
               d="m 298.37407,119.92738 5.46909,-1.2e-4 -5e-4,2.64525 -5.46859,0 z"
               id="path3444"
               inkscape:connector-curvature="0"
               sodipodi:nodetypes="ccccc" />
          </g>
        </g>
        <g
           transform="matrix(0.94688818,0,0,1.5300251,-69.177493,-16.305513)"
           style="font-style:normal;font-variant:normal;font-weight:100;font-stretch:normal;font-size:29.72056198px;line-height:125%;font-family:Monotone;-inkscape-font-specification:'Monotone Thin';letter-spacing:0px;word-spacing:0px;display:inline;fill:none;fill-opacity:1;stroke:#f1efd6;stroke-width:0.41540468;stroke-linecap:butt;stroke-linejoin:miter;stroke-miterlimit:4;stroke-dasharray:none;stroke-opacity:1"
           id="g3448">
          <path
             style="stroke:#f1efd6;stroke-width:0.41540468;stroke-miterlimit:4;stroke-dasharray:none;stroke-opacity:1"
             d="m 298.37407,119.92738 5.46859,0 0,2.64513 -5.46859,0 0,-2.64513 z"
             id="path3450"
             inkscape:connector-curvature="0" />
        </g>
        <g
           transform="matrix(0.94688818,0,0,1.5300251,-69.177493,-16.305513)"
           style="font-style:normal;font-variant:normal;font-weight:100;font-stretch:normal;font-size:29.72056198px;line-height:125%;font-family:Monotone;-inkscape-font-specification:'Monotone Thin';letter-spacing:0px;word-spacing:0px;display:inline;fill:#53241c;fill-opacity:1;stroke:#f1efd6;stroke-width:0.41540468;stroke-linecap:butt;stroke-linejoin:miter;stroke-miterlimit:4;stroke-dasharray:none;stroke-opacity:1"
           id="g3452">
          <path
             style="stroke:#f1efd6;stroke-width:0.41540468;stroke-miterlimit:4;stroke-dasharray:none;stroke-opacity:1"
             d="m 298.37407,119.92738 5.46909,-1.2e-4 -5e-4,2.64525 -5.46859,0 z"
             id="path3454"
             inkscape:connector-curvature="0"
             sodipodi:nodetypes="ccccc" />
        </g>
      </g>
    </g>
    <g
       style="display:inline;font-style:normal;font-variant:normal;font-weight:normal;font-stretch:normal;font-size:7.5px;line-height:125%;font-family:Calibri;-inkscape-font-specification:Calibri;text-align:center;letter-spacing:0px;word-spacing:0px;text-anchor:middle;fill:#53241c;fill-opacity:1;stroke:none;stroke-width:1px;stroke-linecap:butt;stroke-linejoin:miter;stroke-opacity:1"
       id="text5194-3">
      <path
         d="m 575.48436,285.94028 -0.63875,0.875 -0.56875,-0.455 q -0.245,0.2275 -0.5775,0.32375 -0.32375,0.0962 -0.665,0.1225 -0.20125,0.0175 -0.4025,0.0175 -0.1925,0.009 -0.37625,0.009 -1.365,0 -2.03875,-0.44625 -0.67375,-0.455 -0.67375,-1.95125 0,-0.1575 0,-0.315 0,-0.1575 0,-0.32375 0,-0.1575 0,-0.315 0.009,-0.1575 0.009,-0.315 0,-1.4 0.72625,-1.82 0.72625,-0.42 1.96,-0.42 0.27125,0 0.53375,0.009 0.27125,0 0.5425,0.0263 0.51625,0.0525 0.95375,0.4025 0.4375,0.35 0.56875,0.86625 0.0525,0.21 0.0788,0.42875 0.0263,0.21 0.0437,0.42875 0.009,0.175 0.009,0.35 0,0.175 0,0.34125 0,0.30625 -0.009,0.6125 0,0.2975 -0.0175,0.60375 -0.009,0.14 -0.035,0.27125 -0.0175,0.13125 -0.0613,0.25375 l 0.63875,0.42 0,0 z m -2.9575,-2.09125 0.81375,0.595 q 0.0175,-0.0875 0.0175,-0.175 0,-0.0962 0,-0.1925 0.009,-0.1225 0.009,-0.245 0.009,-0.13125 0.009,-0.25375 0,-0.595 -0.1225,-0.95375 -0.1225,-0.35875 -0.81375,-0.35875 l -0.20125,-0.009 q -0.665,0.009 -0.875,0.2275 -0.21,0.21875 -0.21,0.8575 l 0,0.95375 q 0,0.7175 0.18375,0.9625 0.1925,0.245 0.93625,0.245 0.07,0 0.14,0 0.0788,0 0.14875,-0.009 0.105,-0.009 0.20125,-0.0263 0.0963,-0.0175 0.18375,-0.0525 l -1.0325,-0.69125 0.6125,-0.875 0,0 z"
         style="font-style:normal;font-variant:normal;font-weight:100;font-stretch:normal;font-size:8.75px;line-height:125%;font-family:Eurostile-Black-DTC;-inkscape-font-specification:'Eurostile-Black-DTC, Thin';text-align:center;writing-mode:lr-tb;text-anchor:middle;fill:#53241c;fill-opacity:1"
         id="path4251" />
      <path
         d="m 579.19121,280.95278 1.56625,0 0,3.68375 q 0,0.11375 -0.009,0.21875 0,0.105 -0.009,0.20125 -0.009,0.035 -0.009,0.07 0,0.035 -0.009,0.07 0,0.07 -0.009,0.14 0,0.07 -0.009,0.14 -0.13125,0.875 -0.77875,1.11125 -0.6475,0.23625 -1.4,0.23625 l -0.21,0 q -1.26,0 -1.95125,-0.28 -0.6825,-0.28875 -0.6825,-1.77625 l 0,-3.815 1.56625,0 0,3.80625 q 0,0.51625 0.23625,0.63 0.245,0.105 0.69125,0.105 0.55125,0 0.77875,-0.11375 0.23625,-0.11375 0.23625,-0.7 l 0,-3.7275 0,0 z"
         style="font-style:normal;font-variant:normal;font-weight:100;font-stretch:normal;font-size:8.75px;line-height:125%;font-family:Eurostile-Black-DTC;-inkscape-font-specification:'Eurostile-Black-DTC, Thin';text-align:center;writing-mode:lr-tb;text-anchor:middle;fill:#53241c;fill-opacity:1"
         id="path4253" />
      <path
         d="m 583.26434,280.95278 0,5.83625 -1.56625,0 0,-5.83625 1.56625,0 0,0 z"
         style="font-style:normal;font-variant:normal;font-weight:100;font-stretch:normal;font-size:8.75px;line-height:125%;font-family:Eurostile-Black-DTC;-inkscape-font-specification:'Eurostile-Black-DTC, Thin';text-align:center;writing-mode:lr-tb;text-anchor:middle;fill:#53241c;fill-opacity:1"
         id="path4255" />
      <path
         d="m 587.60529,284.58403 1.54875,0 0,0.175 q 0,0.5425 -0.0875,1.015 -0.0875,0.4725 -0.62125,0.77875 -0.28,0.16625 -0.595,0.21875 -0.315,0.0525 -0.63875,0.0613 -0.035,0 -0.0788,0 -0.035,0 -0.0788,0 -0.16625,0 -0.3325,0 -0.16625,0 -0.32375,-0.009 -0.16625,0 -0.3325,-0.009 -0.16625,0 -0.3325,0 -1.14625,-0.1225 -1.4175,-0.8575 -0.27125,-0.74375 -0.28875,-1.715 l -0.009,-0.76125 q 0,-1.49625 0.5775,-2.03 0.5775,-0.53375 2.0475,-0.53375 l 0.48125,-0.009 q 0.0612,0.009 0.1225,0.009 0.07,0 0.13125,0 0.46375,0.0175 0.88375,0.14875 0.42,0.13125 0.665,0.56 0.1225,0.21 0.16625,0.455 0.0437,0.23625 0.0525,0.48125 0,0.07 0,0.14 0.009,0.07 0.009,0.13125 0,0.0175 0,0.035 0,0.009 0,0.0175 0,0.009 0,0.0263 0,0.009 0,0.0263 l 0,0.105 -1.575,0 q 0,-0.4375 -0.16625,-0.60375 -0.16625,-0.175 -0.62125,-0.175 l -0.2625,-0.009 q -0.0525,0.009 -0.11375,0.009 -0.0612,0 -0.1225,0.009 -0.14,0.009 -0.27125,0.0525 -0.1225,0.0437 -0.21,0.14875 -0.0875,0.0962 -0.1225,0.21875 -0.0263,0.1225 -0.035,0.245 0,0.035 -0.009,0.07 0,0.0263 0,0.0613 -0.009,0.1225 -0.0175,0.25375 0,0.1225 -0.009,0.245 0,0.13125 0,0.2625 0,0.1225 0,0.245 0,0.035 0,0.0788 0,0.035 0,0.07 0,0.0437 0,0.0788 0,0.035 0,0.0788 0,0.63875 0.18375,0.875 0.18375,0.23625 0.8225,0.23625 0.455,0 0.7175,-0.1225 0.27125,-0.13125 0.27125,-0.63875 0,-0.0175 0,-0.035 0,-0.0175 0,-0.035 -0.009,-0.0175 -0.009,-0.035 0,-0.0175 0,-0.035 l 0,-0.009 z"
         style="font-style:normal;font-variant:normal;font-weight:100;font-stretch:normal;font-size:8.75px;line-height:125%;font-family:Eurostile-Black-DTC;-inkscape-font-specification:'Eurostile-Black-DTC, Thin';text-align:center;writing-mode:lr-tb;text-anchor:middle;fill:#53241c;fill-opacity:1"
         id="path4257" />
      <path
         d="m 591.36492,280.95278 0,2.21375 0.4725,0 1.505,-2.21375 1.88125,0 -2.05625,2.87 2.2225,2.96625 -1.925,0 -1.6275,-2.30125 -0.4725,0 0,2.30125 -1.56625,0 0,-5.83625 1.56625,0 0,0 z"
         style="font-style:normal;font-variant:normal;font-weight:100;font-stretch:normal;font-size:8.75px;line-height:125%;font-family:Eurostile-Black-DTC;-inkscape-font-specification:'Eurostile-Black-DTC, Thin';text-align:center;writing-mode:lr-tb;text-anchor:middle;fill:#53241c;fill-opacity:1"
         id="path4259" />
      <path
         d="m 569.62411,297.72653 0,-5.83625 2.94,0 q 1.12,0.009 1.60125,0.385 0.48125,0.3675 0.48125,1.54 0,0.65625 -0.14875,1.0675 -0.14,0.4025 -0.95375,0.5775 l 0,0.0525 q 0.5425,0.035 0.79625,0.3325 0.2625,0.28875 0.2625,0.8225 l 0,1.05875 -1.5925,0 0,-0.77875 q 0,-0.35 -0.14,-0.55125 -0.13125,-0.21 -0.51625,-0.21 l -1.16375,-0.009 0,1.54875 -1.56625,0 0,0 z m 1.56625,-2.87875 1.2425,0 q 0.42875,0.009 0.51625,-0.1925 0.0962,-0.20125 0.0962,-0.5775 0,-0.42875 -0.0962,-0.63 -0.0963,-0.20125 -0.595,-0.20125 l -1.16375,-0.009 0,1.61 0,0 z"
         style="font-style:normal;font-variant:normal;font-weight:100;font-stretch:normal;font-size:8.75px;line-height:125%;font-family:Eurostile-Black-DTC;-inkscape-font-specification:'Eurostile-Black-DTC, Thin';text-align:center;writing-mode:lr-tb;text-anchor:middle;fill:#53241c;fill-opacity:1"
         id="path4261" />
      <path
         d="m 577.00091,293.17653 0,1.05 2.485,0 0,1.085 -2.485,0 0,1.12875 2.7125,0 0,1.28625 -4.27875,0 0,-5.83625 4.22625,0 0,1.28625 -2.66,0 0,0 z"
         style="font-style:normal;font-variant:normal;font-weight:100;font-stretch:normal;font-size:8.75px;line-height:125%;font-family:Eurostile-Black-DTC;-inkscape-font-specification:'Eurostile-Black-DTC, Thin';text-align:center;writing-mode:lr-tb;text-anchor:middle;fill:#53241c;fill-opacity:1"
         id="path4263" />
      <path
         d="m 585.15659,293.71028 -1.4875,0 q 0,-0.4375 -0.175,-0.55125 -0.175,-0.11375 -0.595,-0.11375 l -0.1575,-0.009 q -0.0175,0.009 -0.035,0.009 -0.0175,0 -0.035,0 -0.28875,0 -0.53375,0.0875 -0.245,0.0787 -0.245,0.44625 0,0.27125 0.0963,0.4025 0.105,0.13125 0.385,0.14875 0.13125,0.009 0.27125,0.0175 0.14,0.009 0.28,0.0175 0.0175,0 0.035,0 0.0175,0 0.0438,0 0.88375,0.035 1.60125,0.2625 0.72625,0.2275 0.72625,1.42625 0,0.1225 0,0.25375 0,0.1225 -0.0175,0.25375 -0.0175,0.27125 -0.105,0.53375 -0.0787,0.2625 -0.28875,0.4375 -0.28,0.23625 -0.63,0.32375 -0.35,0.0788 -0.7175,0.0962 -0.105,0.009 -0.21,0.009 -0.0963,0 -0.20125,0 l -0.385,0 q -1.2075,0 -1.82875,-0.2625 -0.62125,-0.2625 -0.62125,-1.65375 l 1.4875,-0.009 q 0,0.3325 0.11375,0.525 0.11375,0.18375 0.48125,0.18375 l 0.67375,-0.009 q 0.2975,0.009 0.49875,-0.0788 0.21,-0.0962 0.21,-0.49 0,-0.3675 -0.1925,-0.44625 -0.18375,-0.0787 -0.49,-0.0962 -0.0175,0 -0.035,0 -0.009,0 -0.0263,0 -0.14875,-0.009 -0.28875,-0.0175 -0.13125,-0.009 -0.2625,-0.0175 -1.015,-0.0525 -1.5925,-0.315 -0.56875,-0.2625 -0.56875,-1.54875 0,-0.76125 0.3325,-1.16375 0.3325,-0.4025 1.11125,-0.46375 0.25375,-0.0175 0.5075,-0.0263 0.2625,-0.0175 0.51625,-0.0175 1.015,0 1.68875,0.21875 0.67375,0.21875 0.67375,1.46125 0,0.0263 0,0.0525 0,0.0175 0,0.035 -0.009,0.0263 -0.009,0.0525 0,0.0175 0,0.0437 l 0,-0.009 z"
         style="font-style:normal;font-variant:normal;font-weight:100;font-stretch:normal;font-size:8.75px;line-height:125%;font-family:Eurostile-Black-DTC;-inkscape-font-specification:'Eurostile-Black-DTC, Thin';text-align:center;writing-mode:lr-tb;text-anchor:middle;fill:#53241c;fill-opacity:1"
         id="path4265" />
      <path
         d="m 587.64788,293.17653 0,1.05 2.485,0 0,1.085 -2.485,0 0,1.12875 2.7125,0 0,1.28625 -4.27875,0 0,-5.83625 4.22625,0 0,1.28625 -2.66,0 0,0 z"
         style="font-style:normal;font-variant:normal;font-weight:100;font-stretch:normal;font-size:8.75px;line-height:125%;font-family:Eurostile-Black-DTC;-inkscape-font-specification:'Eurostile-Black-DTC, Thin';text-align:center;writing-mode:lr-tb;text-anchor:middle;fill:#53241c;fill-opacity:1"
         id="path4267" />
      <path
         d="m 593.79981,293.23778 0,4.48875 -1.56625,0 0,-4.48875 -1.47875,0 0,-1.3475 4.62,0 0,1.3475 -1.575,0 0,0 z"
         style="font-style:normal;font-variant:normal;font-weight:100;font-stretch:normal;font-size:8.75px;line-height:125%;font-family:Eurostile-Black-DTC;-inkscape-font-specification:'Eurostile-Black-DTC, Thin';text-align:center;writing-mode:lr-tb;text-anchor:middle;fill:#53241c;fill-opacity:1"
         id="path4269" />
    </g>
    <g
       style="display:inline;font-style:normal;font-variant:normal;font-weight:normal;font-stretch:normal;font-size:7.5px;line-height:125%;font-family:Calibri;-inkscape-font-specification:Calibri;text-align:center;letter-spacing:0px;word-spacing:0px;text-anchor:middle;fill:#53241c;fill-opacity:1;stroke:none;stroke-width:1px;stroke-linecap:butt;stroke-linejoin:miter;stroke-opacity:1"
       id="text4251">
      <path
         d="m 574.33611,329.99404 0,1.1375 2.37125,0 0,1.28625 -2.37125,0 0,2.12625 -1.56625,0 0,-5.83625 4.13875,0 0,1.28625 -2.5725,0 0,0 z"
         style="font-style:normal;font-variant:normal;font-weight:100;font-stretch:normal;font-size:8.75px;line-height:125%;font-family:Eurostile-Black-DTC;-inkscape-font-specification:'Eurostile-Black-DTC, Thin';text-align:center;writing-mode:lr-tb;text-anchor:middle;fill:#53241c;fill-opacity:1"
         id="path4232" />
      <path
         d="m 581.06377,328.70779 1.56625,0 0,3.68375 q 0,0.11375 -0.009,0.21875 0,0.105 -0.009,0.20125 -0.009,0.035 -0.009,0.07 0,0.035 -0.009,0.07 0,0.07 -0.009,0.14 0,0.07 -0.009,0.14 -0.13125,0.875 -0.77875,1.11125 -0.6475,0.23625 -1.4,0.23625 l -0.21,0 q -1.26,0 -1.95125,-0.28 -0.6825,-0.28875 -0.6825,-1.77625 l 0,-3.815 1.56625,0 0,3.80625 q 0,0.51625 0.23625,0.63 0.245,0.105 0.69125,0.105 0.55125,0 0.77875,-0.11375 0.23625,-0.11375 0.23625,-0.7 l 0,-3.7275 0,0 z"
         style="font-style:normal;font-variant:normal;font-weight:100;font-stretch:normal;font-size:8.75px;line-height:125%;font-family:Eurostile-Black-DTC;-inkscape-font-specification:'Eurostile-Black-DTC, Thin';text-align:center;writing-mode:lr-tb;text-anchor:middle;fill:#53241c;fill-opacity:1"
         id="path4234" />
      <path
         d="m 585.13689,328.70779 0,4.4975 2.45,0 0,1.33875 -4.01625,0 0,-5.83625 1.56625,0 0,0 z"
         style="font-style:normal;font-variant:normal;font-weight:100;font-stretch:normal;font-size:8.75px;line-height:125%;font-family:Eurostile-Black-DTC;-inkscape-font-specification:'Eurostile-Black-DTC, Thin';text-align:center;writing-mode:lr-tb;text-anchor:middle;fill:#53241c;fill-opacity:1"
         id="path4236" />
      <path
         d="m 589.69988,328.70779 0,4.4975 2.45,0 0,1.33875 -4.01625,0 0,-5.83625 1.56625,0 0,0 z"
         style="font-style:normal;font-variant:normal;font-weight:100;font-stretch:normal;font-size:8.75px;line-height:125%;font-family:Eurostile-Black-DTC;-inkscape-font-specification:'Eurostile-Black-DTC, Thin';text-align:center;writing-mode:lr-tb;text-anchor:middle;fill:#53241c;fill-opacity:1"
         id="path4238" />
      <path
         d="m 569.59115,345.48154 0,-5.83625 2.94,0 q 1.12,0.009 1.60125,0.385 0.48125,0.3675 0.48125,1.54 0,0.65625 -0.14875,1.0675 -0.14,0.4025 -0.95375,0.5775 l 0,0.0525 q 0.5425,0.035 0.79625,0.3325 0.2625,0.28875 0.2625,0.8225 l 0,1.05875 -1.5925,0 0,-0.77875 q 0,-0.35 -0.14,-0.55125 -0.13125,-0.21 -0.51625,-0.21 l -1.16375,-0.009 0,1.54875 -1.56625,0 0,0 z m 1.56625,-2.87875 1.2425,0 q 0.42875,0.009 0.51625,-0.1925 0.0962,-0.20125 0.0962,-0.5775 0,-0.42875 -0.0962,-0.63 -0.0963,-0.20125 -0.595,-0.20125 l -1.16375,-0.009 0,1.61 0,0 z"
         style="font-style:normal;font-variant:normal;font-weight:100;font-stretch:normal;font-size:8.75px;line-height:125%;font-family:Eurostile-Black-DTC;-inkscape-font-specification:'Eurostile-Black-DTC, Thin';text-align:center;writing-mode:lr-tb;text-anchor:middle;fill:#53241c;fill-opacity:1"
         id="path4240" />
      <path
         d="m 576.96795,340.93154 0,1.05 2.485,0 0,1.085 -2.485,0 0,1.12875 2.7125,0 0,1.28625 -4.27875,0 0,-5.83625 4.22625,0 0,1.28625 -2.66,0 0,0 z"
         style="font-style:normal;font-variant:normal;font-weight:100;font-stretch:normal;font-size:8.75px;line-height:125%;font-family:Eurostile-Black-DTC;-inkscape-font-specification:'Eurostile-Black-DTC, Thin';text-align:center;writing-mode:lr-tb;text-anchor:middle;fill:#53241c;fill-opacity:1"
         id="path4242" />
      <path
         d="m 585.12363,341.46529 -1.4875,0 q 0,-0.4375 -0.175,-0.55125 -0.175,-0.11375 -0.595,-0.11375 l -0.1575,-0.009 q -0.0175,0.009 -0.035,0.009 -0.0175,0 -0.035,0 -0.28875,0 -0.53375,0.0875 -0.245,0.0788 -0.245,0.44625 0,0.27125 0.0963,0.4025 0.105,0.13125 0.385,0.14875 0.13125,0.009 0.27125,0.0175 0.14,0.009 0.28,0.0175 0.0175,0 0.035,0 0.0175,0 0.0438,0 0.88375,0.035 1.60125,0.2625 0.72625,0.2275 0.72625,1.42625 0,0.1225 0,0.25375 0,0.1225 -0.0175,0.25375 -0.0175,0.27125 -0.105,0.53375 -0.0787,0.2625 -0.28875,0.4375 -0.28,0.23625 -0.63,0.32375 -0.35,0.0788 -0.7175,0.0962 -0.105,0.009 -0.21,0.009 -0.0963,0 -0.20125,0 l -0.385,0 q -1.2075,0 -1.82875,-0.2625 -0.62125,-0.2625 -0.62125,-1.65375 l 1.4875,-0.009 q 0,0.3325 0.11375,0.525 0.11375,0.18375 0.48125,0.18375 l 0.67375,-0.009 q 0.2975,0.009 0.49875,-0.0788 0.21,-0.0962 0.21,-0.49 0,-0.3675 -0.1925,-0.44625 -0.18375,-0.0788 -0.49,-0.0962 -0.0175,0 -0.035,0 -0.009,0 -0.0263,0 -0.14875,-0.009 -0.28875,-0.0175 -0.13125,-0.009 -0.2625,-0.0175 -1.015,-0.0525 -1.5925,-0.315 -0.56875,-0.2625 -0.56875,-1.54875 0,-0.76125 0.3325,-1.16375 0.3325,-0.4025 1.11125,-0.46375 0.25375,-0.0175 0.5075,-0.0263 0.2625,-0.0175 0.51625,-0.0175 1.015,0 1.68875,0.21875 0.67375,0.21875 0.67375,1.46125 0,0.0262 0,0.0525 0,0.0175 0,0.035 -0.009,0.0263 -0.009,0.0525 0,0.0175 0,0.0437 l 0,-0.009 z"
         style="font-style:normal;font-variant:normal;font-weight:100;font-stretch:normal;font-size:8.75px;line-height:125%;font-family:Eurostile-Black-DTC;-inkscape-font-specification:'Eurostile-Black-DTC, Thin';text-align:center;writing-mode:lr-tb;text-anchor:middle;fill:#53241c;fill-opacity:1"
         id="path4244" />
      <path
         d="m 587.61492,340.93154 0,1.05 2.485,0 0,1.085 -2.485,0 0,1.12875 2.7125,0 0,1.28625 -4.27875,0 0,-5.83625 4.22625,0 0,1.28625 -2.66,0 0,0 z"
         style="font-style:normal;font-variant:normal;font-weight:100;font-stretch:normal;font-size:8.75px;line-height:125%;font-family:Eurostile-Black-DTC;-inkscape-font-specification:'Eurostile-Black-DTC, Thin';text-align:center;writing-mode:lr-tb;text-anchor:middle;fill:#53241c;fill-opacity:1"
         id="path4246" />
      <path
         d="m 593.76686,340.99279 0,4.48875 -1.56625,0 0,-4.48875 -1.47875,0 0,-1.3475 4.62,0 0,1.3475 -1.575,0 0,0 z"
         style="font-style:normal;font-variant:normal;font-weight:100;font-stretch:normal;font-size:8.75px;line-height:125%;font-family:Eurostile-Black-DTC;-inkscape-font-specification:'Eurostile-Black-DTC, Thin';text-align:center;writing-mode:lr-tb;text-anchor:middle;fill:#53241c;fill-opacity:1"
         id="path4248" />
    </g>
    <g
       transform="matrix(0.9875879,0,-0.14762509,1.0125681,0,0)"
       style="display:inline;font-style:normal;font-variant:normal;font-weight:100;font-stretch:normal;font-size:26.079216px;line-height:125%;font-family:BaccaratUpright;-inkscape-font-specification:'BaccaratUpright Thin';letter-spacing:-0.0317676px;word-spacing:-1.29452968px;opacity:1;fill:#53241c;fill-opacity:1;stroke:none;stroke-width:1px;stroke-linecap:butt;stroke-linejoin:miter;stroke-opacity:1"
       id="text4652-1">
      <path
         d="m 423.1869,276.69109 -0.0261,3.85972 -4.30307,0.15648 -0.20864,4.95505 4.38131,0 -0.0522,3.05127 -4.40738,0.33903 -0.15648,6.38941 -4.69426,0 -0.28687,-13.58727 4.0162,-1.04317 -4.74642,0.10431 0.36511,-4.22483 10.11874,0 z"
         style=""
         id="path4278" />
    </g>
    <g
       transform="matrix(0.9875879,0,-0.14762509,1.0125681,0,0)"
       style="display:inline;font-style:normal;font-variant:normal;font-weight:100;font-stretch:normal;font-size:26.079216px;line-height:125%;font-family:BaccaratUpright;-inkscape-font-specification:'BaccaratUpright Thin';letter-spacing:-0.0317676px;word-spacing:-1.29452968px;opacity:1;fill:#53241c;fill-opacity:1;stroke:none;stroke-width:1px;stroke-linecap:butt;stroke-linejoin:miter;stroke-opacity:1"
       id="text4266">
      <path
         d="m 426.67292,300.01113 -0.0261,3.85972 -4.30307,0.15648 -0.0782,4.17267 4.35523,0 -0.0782,3.05127 -4.40739,0.20863 -0.0522,3.99012 4.43347,0.20864 -0.0522,3.10342 -8.91909,0 q -0.0522,-0.13039 -0.0782,-0.23471 -0.0522,-0.20863 -0.0522,-0.39119 -0.26079,-1.53867 -0.44335,-3.7554 -0.15647,-2.21674 -0.15647,-4.45955 0,-2.79048 0.28687,-4.72034 l 3.91188,-1.06925 -4.82465,0.10432 0.36511,-4.22483 10.11873,0 z"
         style=""
         id="path4275" />
    </g>
    <g
       transform="matrix(0.9875879,0,-0.14762509,1.0125681,0,0)"
       style="display:inline;font-style:normal;font-variant:normal;font-weight:100;font-stretch:normal;font-size:26.079216px;line-height:125%;font-family:BaccaratUpright;-inkscape-font-specification:'BaccaratUpright Thin';letter-spacing:-0.0317676px;word-spacing:-1.29452968px;opacity:1;fill:#d0ab65;fill-opacity:1;stroke:none;stroke-width:1px;stroke-linecap:butt;stroke-linejoin:miter;stroke-opacity:1"
       id="text4272">
      <path
         d="m 430.81066,328.83398 q 0.0522,0.36511 0.0522,0.57374 0,1.17357 -0.83454,2.26889 -0.80845,1.06925 -2.55576,2.0081 2.71224,1.17357 2.99911,3.15559 0.0261,0.18255 0.0261,0.4955 0,1.17357 -0.93885,2.39929 -0.6259,0.83454 -2.634,2.66008 l -7.4065,0 q 5.268,-4.5117 5.05937,-5.94606 -0.1304,-0.83453 -0.93885,-1.48651 -0.80846,-0.65198 -2.79048,-1.53868 2.68616,-1.59083 3.70325,-2.58184 1.01709,-0.99101 1.01709,-1.95594 0,-0.23471 -0.0261,-0.36511 -0.15648,-1.27788 -1.69515,-3.78149 l -0.20863,5.05937 -4.58994,0 -0.0782,-6.7806 4.90289,0 -0.0522,1.25181 4.7725,0 q 0.41727,0.52158 1.1214,1.77338 0.93886,1.72123 1.09533,2.79048 z"
         style=""
         id="path4272" />
    </g>
    <path
       sodipodi:nodetypes="ssccccccccccsssssscssssccsssscs"
       inkscape:connector-curvature="0"
       id="path4230"
       d="m 166.87109,262.78906 c -0.554,0 -1,0.446 -1,1 l 0,30.82514 1.20535,0 c 3.88658,-2.1e-4 7.03732,3.15007 7.03711,7.03665 2.1e-4,3.88658 -3.15053,7.03756 -7.03711,7.03735 l -1.20535,0 0,5.396 1.20535,0 c 3.88658,-2.1e-4 7.03732,3.15077 7.03711,7.03735 2.1e-4,3.88658 -3.15053,7.03686 -7.03711,7.03665 l -1.20535,0 0,160.40235 c 0,0.554 0.446,1 1,1 l 449.77149,0 c 0.554,0 1,-0.446 1,-1 l 0,-224.77149 c 0,-0.554 -0.446,-1 -1,-1 l -69.70564,9.2e-4 0,92.47308 c 0,2.493 -2.12221,4.50001 -4.75781,4.5 l -148.30139,-4.2e-4 c -2.6356,-10e-6 -4.75586,-2.00702 -4.75586,-4.5 l 0,-92.47308 -37.19018,0 0,92.47308 c 0,2.493 -2.007,4.50001 -4.5,4.5 l -147.39784,-5e-4 c -2.493,-10e-6 -4.5,-2.007 -4.5,-4.5 l 0,-92.47308 z"
       style="display:inline;color:#000000;overflow:visible;visibility:visible;opacity:1;fill:none;fill-opacity:1;fill-rule:nonzero;stroke:#000000;stroke-width:0.1;stroke-linecap:square;stroke-linejoin:miter;stroke-miterlimit:4;stroke-dasharray:none;stroke-dashoffset:0;stroke-opacity:1;marker:none;enable-background:accumulate" />
    <rect
       style="display:inline;color:#000000;overflow:visible;visibility:visible;opacity:1;fill:none;fill-opacity:1;fill-rule:nonzero;stroke:#000000;stroke-width:0.09947141;stroke-linecap:square;stroke-linejoin:miter;stroke-miterlimit:4;stroke-dasharray:none;stroke-dashoffset:0;stroke-opacity:1;marker:none;enable-background:accumulate"
       id="rect4225"
       width="57.7575"
       height="66.259583"
       x="232.04778"
       y="418.77335" />
  </g>
</svg>
